PT_Sans-Web-Regular.ufo
<glyph name="numbersign" format="1">
  <advance width="545"/>
  <unicode hex="0023"/>
  <outline>
    <contour>
      <point x="280" y="225" type="line"/>
      <point x="175" y="225" type="line"/>
      <point x="136" y="58" type="line"/>
      <point x="67" y="58" type="line"/>
      <point x="106" y="225" type="line"/>
      <point x="28" y="225" type="line"/>
      <point x="42" y="289" type="line"/>
      <point x="121" y="289" type="line"/>
      <point x="152" y="420" type="line"/>
      <point x="78" y="420" type="line"/>
      <point x="92" y="484" type="line"/>
      <point x="167" y="484" type="line"/>
      <point x="205" y="642" type="line"/>
      <point x="274" y="642" type="line"/>
      <point x="236" y="484" type="line"/>
      <point x="341" y="484" type="line"/>
      <point x="379" y="642" type="line"/>
      <point x="448" y="642" type="line"/>
      <point x="410" y="484" type="line"/>
      <point x="487" y="484" type="line"/>
      <point x="471" y="420" type="line"/>
      <point x="395" y="420" type="line"/>
      <point x="364" y="289" type="line"/>
      <point x="437" y="289" type="line"/>
      <point x="421" y="225" type="line"/>
      <point x="349" y="225" type="line"/>
      <point x="310" y="58" type="line"/>
      <point x="241" y="58" type="line"/>
    </contour>
    <contour>
      <point x="190" y="289" type="line"/>
      <point x="295" y="289" type="line"/>
      <point x="326" y="420" type="line"/>
      <point x="221" y="420" type="line"/>
    </contour>
  </outline>
</glyph>
<glyph name="dollar" format="1">
  <advance width="545"/>
  <unicode hex="0024"/>
  <outline>
    <contour>
      <point x="242" y="-12" type="line"/>
      <point x="187" y="-11"/>
      <point x="102" y="6"/>
      <point x="76" y="20" type="qcurve"/>
      <point x="103" y="93" type="line"/>
      <point x="123" y="81"/>
      <point x="192" y="61"/>
      <point x="242" y="60" type="qcurve"/>
      <point x="242" y="330" type="line"/>
      <point x="212" y="345"/>
      <point x="153" y="379"/>
      <point x="130.0" y="402.5" type="qcurve" smooth="yes" name="inserted"/>
      <point x="107" y="426"/>
      <point x="79" y="490"/>
      <point x="79" y="534" type="qcurve" smooth="yes"/>
      <point x="79" y="606"/>
      <point x="160" y="698"/>
      <point x="242" y="709" type="qcurve"/>
      <point x="242" y="800" type="line"/>
      <point x="310" y="800" type="line"/>
      <point x="310" y="712" type="line"/>
      <point x="361" y="710"/>
      <point x="426" y="695"/>
      <point x="452" y="683" type="qcurve"/>
      <point x="428" y="613" type="line"/>
      <point x="408" y="623"/>
      <point x="352" y="638"/>
      <point x="310" y="640" type="qcurve"/>
      <point x="310" y="393" type="line"/>
      <point x="341" y="377"/>
      <point x="403" y="340"/>
      <point x="427.5" y="316.0" type="qcurve" smooth="yes" name="inserted"/>
      <point x="452" y="292"/>
      <point x="482" y="228"/>
      <point x="482" y="185" type="qcurve" smooth="yes"/>
      <point x="482" y="107"/>
      <point x="395" y="6"/>
      <point x="310" y="-8" type="qcurve"/>
      <point x="310" y="-100" type="line"/>
      <point x="242" y="-100" type="line"/>
    </contour>
    <contour>
      <point x="399" y="178" type="qcurve" smooth="yes"/>
      <point x="399" y="202"/>
      <point x="382" y="240"/>
      <point x="368.0" y="255.0" type="qcurve" smooth="yes" name="inserted"/>
      <point x="354" y="270"/>
      <point x="316" y="294"/>
      <point x="294" y="305" type="qcurve"/>
      <point x="294" y="62" type="line"/>
      <point x="340" y="69"/>
      <point x="399" y="126"/>
    </contour>
    <contour>
      <point x="162" y="539" type="qcurve" smooth="yes"/>
      <point x="162" y="496"/>
      <point x="217" y="442"/>
      <point x="258" y="420" type="qcurve"/>
      <point x="258" y="639" type="line"/>
      <point x="205" y="633"/>
      <point x="162" y="575"/>
    </contour>
  </outline>
</glyph>
<glyph name="asterisk" format="1">
  <advance width="351"/>
  <unicode hex="002A"/>
  <outline>
    <contour>
      <point x="130" y="715" type="line"/>
      <point x="155" y="673" type="line"/>
      <point x="173" y="617" type="line"/>
      <point x="194" y="674" type="line"/>
      <point x="218" y="714" type="line"/>
      <point x="266" y="688" type="line"/>
      <point x="240" y="645" type="line"/>
      <point x="194" y="597" type="line"/>
      <point x="262" y="609" type="line"/>
      <point x="310" y="609" type="line"/>
      <point x="310" y="553" type="line"/>
      <point x="264" y="553" type="line"/>
      <point x="200" y="565" type="line"/>
      <point x="246" y="517" type="line"/>
      <point x="269" y="478" type="line"/>
      <point x="222" y="450" type="line"/>
      <point x="196" y="492" type="line"/>
      <point x="173" y="553" type="line"/>
      <point x="154" y="495" type="line"/>
      <point x="129" y="453" type="line"/>
      <point x="79" y="481" type="line"/>
      <point x="106" y="523" type="line"/>
      <point x="148" y="565" type="line"/>
      <point x="90" y="553" type="line"/>
      <point x="40" y="553" type="line"/>
      <point x="40" y="609" type="line"/>
      <point x="90" y="609" type="line"/>
      <point x="152" y="597" type="line"/>
      <point x="107" y="641" type="line"/>
      <point x="81" y="687" type="line"/>
    </contour>
  </outline>
</glyph>
<glyph name="zero" format="1">
  <advance width="545"/>
  <unicode hex="0030"/>
  <outline>
    <contour>
      <point x="43" y="350" type="qcurve" smooth="yes"/>
      <point x="43" y="530"/>
      <point x="160" y="712"/>
      <point x="272" y="712" type="qcurve" smooth="yes"/>
      <point x="393" y="712"/>
      <point x="502" y="533"/>
      <point x="502" y="350" type="qcurve" smooth="yes"/>
      <point x="502" y="170"/>
      <point x="385" y="-12"/>
      <point x="272" y="-12" type="qcurve" smooth="yes"/>
      <point x="153" y="-12"/>
      <point x="43" y="178"/>
    </contour>
    <contour>
      <point x="126" y="350" type="qcurve" smooth="yes"/>
      <point x="126" y="285"/>
      <point x="143" y="178"/>
      <point x="161.0" y="139.5" type="qcurve" smooth="yes" name="inserted"/>
      <point x="179" y="101"/>
      <point x="234" y="58"/>
      <point x="272" y="58" type="qcurve" smooth="yes"/>
      <point x="348" y="58"/>
      <point x="419" y="199"/>
      <point x="419" y="350" type="qcurve" smooth="yes"/>
      <point x="419" y="414"/>
      <point x="404" y="522"/>
      <point x="386.5" y="561.0" type="qcurve" smooth="yes" name="inserted"/>
      <point x="369" y="600"/>
      <point x="313" y="642"/>
      <point x="272" y="642" type="qcurve" smooth="yes"/>
      <point x="197" y="642"/>
      <point x="126" y="500"/>
    </contour>
  </outline>
</glyph>
<glyph name="one" format="1">
  <advance width="545"/>
  <unicode hex="0031"/>
  <outline>
    <contour>
      <point x="108" y="74" type="line"/>
      <point x="248" y="74" type="line"/>
      <point x="248" y="558" type="line"/>
      <point x="258" y="617" type="line"/>
      <point x="218" y="570" type="line"/>
      <point x="108" y="491" type="line"/>
      <point x="70" y="542" type="line"/>
      <point x="290" y="712" type="line"/>
      <point x="326" y="712" type="line"/>
      <point x="326" y="74" type="line"/>
      <point x="463" y="74" type="line"/>
      <point x="463" y="0" type="line"/>
      <point x="108" y="0" type="line"/>
    </contour>
  </outline>
</glyph>
<glyph name="two" format="1">
  <advance width="545"/>
  <unicode hex="0032"/>
  <outline>
    <contour>
      <point x="446" y="541" type="qcurve" smooth="yes"/>
      <point x="446" y="488"/>
      <point x="407" y="377"/>
      <point x="375.5" y="321.0" type="qcurve" smooth="yes" name="inserted"/>
      <point x="344" y="265"/>
      <point x="266" y="158"/>
      <point x="227" y="110" type="qcurve"/>
      <point x="178" y="67" type="line"/>
      <point x="178" y="63" type="line"/>
      <point x="242" y="74" type="line"/>
      <point x="460" y="74" type="line"/>
      <point x="460" y="0" type="line"/>
      <point x="62" y="0" type="line"/>
      <point x="62" y="29" type="line"/>
      <point x="84" y="52"/>
      <point x="146" y="120"/>
      <point x="179.5" y="161.5" type="qcurve" smooth="yes" name="inserted"/>
      <point x="213" y="203"/>
      <point x="278" y="296"/>
      <point x="304.5" y="344.0" type="qcurve" smooth="yes" name="inserted"/>
      <point x="331" y="392"/>
      <point x="363" y="486"/>
      <point x="363" y="528" type="qcurve" smooth="yes"/>
      <point x="363" y="577"/>
      <point x="307" y="642"/>
      <point x="250" y="642" type="qcurve" smooth="yes"/>
      <point x="212" y="642"/>
      <point x="140" y="611"/>
      <point x="114" y="591" type="qcurve"/>
      <point x="81" y="648" type="line"/>
      <point x="116" y="678"/>
      <point x="212" y="712"/>
      <point x="267" y="712" type="qcurve" smooth="yes"/>
      <point x="310" y="712"/>
      <point x="376" y="687"/>
      <point x="399.0" y="664.0" type="qcurve" smooth="yes" name="inserted"/>
      <point x="422" y="641"/>
      <point x="446" y="578"/>
    </contour>
  </outline>
</glyph>
<glyph name="three" format="1">
  <advance width="545"/>
  <unicode hex="0033"/>
  <outline>
    <contour>
      <point x="234" y="58" type="qcurve" smooth="yes"/>
      <point x="268" y="58"/>
      <point x="326" y="78"/>
      <point x="347.0" y="97.5" type="qcurve" smooth="yes" name="inserted"/>
      <point x="368" y="117"/>
      <point x="392" y="171"/>
      <point x="392" y="203" type="qcurve" smooth="yes"/>
      <point x="392" y="273"/>
      <point x="309" y="341"/>
      <point x="236" y="341" type="qcurve" smooth="yes"/>
      <point x="162" y="341" type="line"/>
      <point x="162" y="370" type="line"/>
      <point x="306" y="592" type="line"/>
      <point x="352" y="636" type="line"/>
      <point x="287" y="626" type="line"/>
      <point x="89" y="626" type="line"/>
      <point x="89" y="700" type="line"/>
      <point x="446" y="700" type="line"/>
      <point x="446" y="671" type="line"/>
      <point x="287" y="432" type="line"/>
      <point x="252" y="403" type="line"/>
      <point x="252" y="401" type="line"/>
      <point x="286" y="408" type="line"/>
      <point x="326" y="407"/>
      <point x="394" y="380"/>
      <point x="419.0" y="354.5" type="qcurve" smooth="yes" name="inserted"/>
      <point x="444" y="329"/>
      <point x="472" y="258"/>
      <point x="472" y="213" type="qcurve" smooth="yes"/>
      <point x="472" y="159"/>
      <point x="434" y="75"/>
      <point x="401.5" y="46.5" type="qcurve" smooth="yes" name="inserted"/>
      <point x="369" y="18"/>
      <point x="281" y="-12"/>
      <point x="232" y="-12" type="qcurve" smooth="yes"/>
      <point x="187" y="-12"/>
      <point x="115" y="2"/>
      <point x="88" y="13" type="qcurve"/>
      <point x="109" y="84" type="line"/>
      <point x="132" y="73"/>
      <point x="195" y="58"/>
    </contour>
  </outline>
</glyph>
<glyph name="seven" format="1">
  <advance width="545"/>
  <unicode hex="0037"/>
  <outline>
    <contour>
      <point x="110" y="0" type="line"/>
      <point x="361" y="586" type="line"/>
      <point x="405" y="635" type="line"/>
      <point x="346" y="626" type="line"/>
      <point x="61" y="626" type="line"/>
      <point x="61" y="700" type="line"/>
      <point x="479" y="700" type="line"/>
      <point x="479" y="673" type="line"/>
      <point x="191" y="0" type="line"/>
    </contour>
  </outline>
</glyph>
<glyph name="eight" format="1">
  <advance width="545"/>
  <unicode hex="0038"/>
  <outline>
    <contour>
      <point x="68" y="167" type="qcurve" smooth="yes"/>
      <point x="68" y="230"/>
      <point x="134" y="323"/>
      <point x="204" y="361" type="qcurve"/>
      <point x="179" y="376"/>
      <point x="136" y="409"/>
      <point x="119.5" y="430.0" type="qcurve" smooth="yes" name="inserted"/>
      <point x="103" y="451"/>
      <point x="84" y="503"/>
      <point x="84" y="537" type="qcurve" smooth="yes"/>
      <point x="84" y="576"/>
      <point x="111" y="640"/>
      <point x="136.5" y="663.0" type="qcurve" smooth="yes" name="inserted"/>
      <point x="162" y="686"/>
      <point x="233" y="712"/>
      <point x="278" y="712" type="qcurve" smooth="yes"/>
      <point x="320" y="712"/>
      <point x="388" y="688"/>
      <point x="411.5" y="667.0" type="qcurve" smooth="yes" name="inserted"/>
      <point x="435" y="646"/>
      <point x="461" y="588"/>
      <point x="461" y="553" type="qcurve" smooth="yes"/>
      <point x="461" y="496"/>
      <point x="409" y="409"/>
      <point x="349" y="367" type="qcurve"/>
      <point x="375" y="352"/>
      <point x="422" y="316"/>
      <point x="439.5" y="294.0" type="qcurve" smooth="yes" name="inserted"/>
      <point x="457" y="272"/>
      <point x="477" y="217"/>
      <point x="477" y="182" type="qcurve" smooth="yes"/>
      <point x="477" y="139"/>
      <point x="449" y="68"/>
      <point x="422.0" y="42.5" type="qcurve" smooth="yes" name="inserted"/>
      <point x="395" y="17"/>
      <point x="317" y="-12"/>
      <point x="267" y="-12" type="qcurve" smooth="yes"/>
      <point x="219" y="-12"/>
      <point x="145" y="16"/>
      <point x="119.5" y="40.0" type="qcurve" smooth="yes" name="inserted"/>
      <point x="94" y="64"/>
      <point x="68" y="129"/>
    </contour>
    <contour>
      <point x="399" y="177" type="qcurve" smooth="yes"/>
      <point x="399" y="207"/>
      <point x="375" y="252"/>
      <point x="355.5" y="270.5" type="qcurve" smooth="yes" name="inserted"/>
      <point x="336" y="289"/>
      <point x="286" y="319"/>
      <point x="259" y="333" type="qcurve"/>
      <point x="198" y="299"/>
      <point x="146" y="215"/>
      <point x="146" y="177" type="qcurve" smooth="yes"/>
      <point x="146" y="153"/>
      <point x="162" y="109"/>
      <point x="178.0" y="93.0" type="qcurve" smooth="yes" name="inserted"/>
      <point x="194" y="77"/>
      <point x="241" y="58"/>
      <point x="272" y="58" type="qcurve" smooth="yes"/>
      <point x="297" y="58"/>
      <point x="343" y="73"/>
      <point x="360.5" y="87.5" type="qcurve" smooth="yes" name="inserted"/>
      <point x="378" y="102"/>
      <point x="399" y="147"/>
    </contour>
    <contour>
      <point x="162" y="539" type="qcurve" smooth="yes"/>
      <point x="162" y="511"/>
      <point x="184" y="468"/>
      <point x="202.5" y="451.0" type="qcurve" smooth="yes" name="inserted"/>
      <point x="221" y="434"/>
      <point x="269" y="405"/>
      <point x="295" y="392" type="qcurve"/>
      <point x="340" y="427"/>
      <point x="383" y="495"/>
      <point x="383" y="536" type="qcurve" smooth="yes"/>
      <point x="383" y="587"/>
      <point x="320" y="642"/>
      <point x="276" y="642" type="qcurve" smooth="yes"/>
      <point x="249" y="642"/>
      <point x="207" y="624"/>
      <point x="192.0" y="610.0" type="qcurve" smooth="yes" name="inserted"/>
      <point x="177" y="596"/>
      <point x="162" y="559"/>
    </contour>
  </outline>
</glyph>
<glyph name="nine" format="1">
  <advance width="545"/>
  <unicode hex="0039"/>
  <outline>
    <contour>
      <point x="52" y="488" type="qcurve" smooth="yes"/>
      <point x="52" y="536"/>
      <point x="80" y="618"/>
      <point x="107.0" y="648.0" type="qcurve" smooth="yes" name="inserted"/>
      <point x="134" y="678"/>
      <point x="215" y="712"/>
      <point x="269" y="712" type="qcurve" smooth="yes"/>
      <point x="371" y="712"/>
      <point x="485" y="580"/>
      <point x="485" y="460" type="qcurve" smooth="yes"/>
      <point x="485" y="347"/>
      <point x="434" y="178"/>
      <point x="389.0" y="120.0" type="qcurve" smooth="yes" name="inserted"/>
      <point x="344" y="62"/>
      <point x="221" y="-3"/>
      <point x="149" y="-12" type="qcurve"/>
      <point x="131" y="52" type="line"/>
      <point x="189" y="61"/>
      <point x="282" y="111"/>
      <point x="315.5" y="149.0" type="qcurve" smooth="yes" name="inserted"/>
      <point x="349" y="187"/>
      <point x="391" y="284"/>
      <point x="399" y="341" type="qcurve"/>
      <point x="372" y="309"/>
      <point x="307" y="284"/>
      <point x="254" y="284" type="qcurve" smooth="yes"/>
      <point x="213" y="284"/>
      <point x="140" y="311"/>
      <point x="112.0" y="337.0" type="qcurve" smooth="yes" name="inserted"/>
      <point x="84" y="363"/>
      <point x="52" y="439"/>
    </contour>
    <contour>
      <point x="135" y="496" type="qcurve" smooth="yes"/>
      <point x="135" y="425"/>
      <point x="210" y="354"/>
      <point x="271" y="354" type="qcurve" smooth="yes"/>
      <point x="320" y="354"/>
      <point x="390" y="386"/>
      <point x="405" y="412" type="qcurve"/>
      <point x="407" y="425"/>
      <point x="407" y="445"/>
      <point x="407" y="456" type="qcurve" smooth="yes"/>
      <point x="407" y="492"/>
      <point x="390" y="559"/>
      <point x="373.0" y="585.5" type="qcurve" smooth="yes" name="inserted"/>
      <point x="356" y="612"/>
      <point x="301" y="642"/>
      <point x="264" y="642" type="qcurve" smooth="yes"/>
      <point x="203" y="642"/>
      <point x="135" y="565"/>
    </contour>
  </outline>
</glyph>
<glyph name="colon" format="1">
  <advance width="219"/>
  <unicode hex="003A"/>
  <outline>
    <contour>
      <point x="91" y="449" type="qcurve" smooth="yes"/>
      <point x="91" y="476"/>
      <point x="122" y="507"/>
      <point x="148" y="507" type="qcurve" smooth="yes"/>
      <point x="175" y="507"/>
      <point x="207" y="476"/>
      <point x="207" y="449" type="qcurve" smooth="yes"/>
      <point x="207" y="423"/>
      <point x="175" y="391"/>
      <point x="148" y="391" type="qcurve" smooth="yes"/>
      <point x="122" y="391"/>
      <point x="91" y="423"/>
    </contour>
    <contour>
      <point x="91" y="46" type="qcurve" smooth="yes"/>
      <point x="91" y="73"/>
      <point x="122" y="104"/>
      <point x="148" y="104" type="qcurve" smooth="yes"/>
      <point x="175" y="104"/>
      <point x="207" y="73"/>
      <point x="207" y="46" type="qcurve" smooth="yes"/>
      <point x="207" y="20"/>
      <point x="175" y="-12"/>
      <point x="148" y="-12" type="qcurve" smooth="yes"/>
      <point x="122" y="-12"/>
      <point x="91" y="20"/>
    </contour>
  </outline>
</glyph>
<glyph name="less" format="1">
  <advance width="505"/>
  <unicode hex="003C"/>
  <outline>
    <contour>
      <point x="42" y="305" type="line"/>
      <point x="42" y="334" type="line"/>
      <point x="420" y="565" type="line"/>
      <point x="458" y="503" type="line"/>
      <point x="221" y="358" type="line"/>
      <point x="130" y="320" type="line"/>
      <point x="220" y="288" type="line"/>
      <point x="463" y="144" type="line"/>
      <point x="425" y="84" type="line"/>
    </contour>
  </outline>
</glyph>
<glyph name="A" format="1">
  <advance width="585"/>
  <unicode hex="0041"/>
  <outline>
    <contour>
      <point x="418" y="194" type="line"/>
      <point x="160" y="194" type="line"/>
      <point x="90" y="0" type="line"/>
      <point x="8" y="0" type="line"/>
      <point x="273" y="711" type="line"/>
      <point x="311" y="711" type="line"/>
      <point x="577" y="0" type="line"/>
      <point x="490" y="0" type="line"/>
    </contour>
    <contour>
      <point x="187" y="266" type="line"/>
      <point x="393" y="266" type="line"/>
      <point x="315" y="479" type="line"/>
      <point x="290" y="585" type="line"/>
      <point x="289" y="585" type="line"/>
      <point x="264" y="477" type="line"/>
    </contour>
  </outline>
</glyph>
<glyph name="D" format="1">
  <advance width="654"/>
  <unicode hex="0044"/>
  <outline>
    <contour>
      <point x="85" y="700" type="line"/>
      <point x="104" y="703"/>
      <point x="151" y="706"/>
      <point x="176.5" y="706.5" type="qcurve" smooth="yes" name="inserted"/>
      <point x="202" y="707"/>
      <point x="251" y="708"/>
      <point x="272" y="708" type="qcurve" smooth="yes"/>
      <point x="356" y="708"/>
      <point x="479" y="656"/>
      <point x="519.0" y="609.5" type="qcurve" smooth="yes" name="inserted"/>
      <point x="559" y="563"/>
      <point x="598" y="433"/>
      <point x="598" y="355" type="qcurve" smooth="yes"/>
      <point x="598" y="284"/>
      <point x="561" y="153"/>
      <point x="521.0" y="102.5" type="qcurve" smooth="yes" name="inserted"/>
      <point x="481" y="52"/>
      <point x="353" y="-9"/>
      <point x="262" y="-9" type="qcurve" smooth="yes"/>
      <point x="246" y="-9"/>
      <point x="195" y="-8"/>
      <point x="168.0" y="-6.5" type="qcurve" smooth="yes" name="inserted"/>
      <point x="141" y="-5"/>
      <point x="95" y="-3"/>
      <point x="85" y="-1" type="qcurve"/>
    </contour>
    <contour>
      <point x="274" y="634" type="qcurve" smooth="yes"/>
      <point x="261" y="634"/>
      <point x="230" y="634"/>
      <point x="215.0" y="633.0" type="qcurve" smooth="yes" name="inserted"/>
      <point x="200" y="632"/>
      <point x="175" y="630"/>
      <point x="168" y="629" type="qcurve"/>
      <point x="168" y="69" type="line"/>
      <point x="173" y="68"/>
      <point x="201" y="67"/>
      <point x="216.0" y="66.5" type="qcurve" smooth="yes" name="inserted"/>
      <point x="231" y="66"/>
      <point x="259" y="65"/>
      <point x="264" y="65" type="qcurve" smooth="yes"/>
      <point x="334" y="65"/>
      <point x="429" y="113"/>
      <point x="457.5" y="153.5" type="qcurve" smooth="yes" name="inserted"/>
      <point x="486" y="194"/>
      <point x="510" y="299"/>
      <point x="510" y="355" type="qcurve" smooth="yes"/>
      <point x="510" y="404"/>
      <point x="488" y="503"/>
      <point x="461.0" y="543.0" type="qcurve" smooth="yes" name="inserted"/>
      <point x="434" y="583"/>
      <point x="343" y="634"/>
    </contour>
  </outline>
</glyph>
<glyph name="F" format="1">
  <advance width="517"/>
  <unicode hex="0046"/>
  <outline>
    <contour>
      <point x="85" y="700" type="line"/>
      <point x="466" y="700" type="line"/>
      <point x="466" y="626" type="line"/>
      <point x="168" y="626" type="line"/>
      <point x="168" y="387" type="line"/>
      <point x="446" y="387" type="line"/>
      <point x="446" y="313" type="line"/>
      <point x="168" y="313" type="line"/>
      <point x="168" y="0" type="line"/>
      <point x="85" y="0" type="line"/>
    </contour>
  </outline>
</glyph>
<glyph name="H" format="1">
  <advance width="672"/>
  <unicode hex="0048"/>
  <outline>
    <contour>
      <point x="504" y="321" type="line"/>
      <point x="168" y="321" type="line"/>
      <point x="168" y="0" type="line"/>
      <point x="85" y="0" type="line"/>
      <point x="85" y="700" type="line"/>
      <point x="168" y="700" type="line"/>
      <point x="168" y="395" type="line"/>
      <point x="504" y="395" type="line"/>
      <point x="504" y="700" type="line"/>
      <point x="587" y="700" type="line"/>
      <point x="587" y="0" type="line"/>
      <point x="504" y="0" type="line"/>
    </contour>
  </outline>
</glyph>
<glyph name="J" format="1">
  <advance width="291"/>
  <unicode hex="004A"/>
  <outline>
    <contour>
      <point x="112" y="700" type="line"/>
      <point x="195" y="700" type="line"/>
      <point x="195" y="154" type="line" smooth="yes"/>
      <point x="195" y="74"/>
      <point x="124" y="-10"/>
      <point x="52" y="-10" type="qcurve" smooth="yes"/>
      <point x="44" y="-10"/>
      <point x="20" y="-8"/>
      <point x="8.0" y="-6.0" type="qcurve" smooth="yes" name="inserted"/>
      <point x="-4" y="-4"/>
      <point x="-27" y="2"/>
      <point x="-34" y="6" type="qcurve"/>
      <point x="-18" y="77" type="line"/>
      <point x="-4.0" y="70.5" name="inserted"/>
      <point x="26.5" y="64.0"/>
      <point x="43" y="64" type="qcurve" smooth="yes"/>
      <point x="85" y="64"/>
      <point x="112" y="123"/>
      <point x="112" y="174" type="qcurve" smooth="yes"/>
    </contour>
  </outline>
</glyph>
<glyph name="K" format="1">
  <advance width="610"/>
  <unicode hex="004B"/>
  <outline>
    <contour>
      <point x="215" y="324" type="line"/>
      <point x="168" y="324" type="line"/>
      <point x="168" y="0" type="line"/>
      <point x="85" y="0" type="line"/>
      <point x="85" y="700" type="line"/>
      <point x="168" y="700" type="line"/>
      <point x="168" y="374" type="line"/>
      <point x="213" y="388" type="line"/>
      <point x="448" y="700" type="line"/>
      <point x="544" y="700" type="line"/>
      <point x="310" y="399" type="line"/>
      <point x="268" y="366" type="line"/>
      <point x="319" y="326" type="line"/>
      <point x="575" y="0" type="line"/>
      <point x="470" y="0" type="line"/>
    </contour>
  </outline>
</glyph>
<glyph name="N" format="1">
  <advance width="673"/>
  <unicode hex="004E"/>
  <outline>
    <contour>
      <point x="211" y="458" type="line"/>
      <point x="157" y="559" type="line"/>
      <point x="153" y="559" type="line"/>
      <point x="163" y="458" type="line"/>
      <point x="163" y="0" type="line"/>
      <point x="85" y="0" type="line"/>
      <point x="85" y="711" type="line"/>
      <point x="129" y="711" type="line"/>
      <point x="464" y="244" type="line"/>
      <point x="516" y="148" type="line"/>
      <point x="521" y="148" type="line"/>
      <point x="510" y="244" type="line"/>
      <point x="510" y="700" type="line"/>
      <point x="588" y="700" type="line"/>
      <point x="588" y="-11" type="line"/>
      <point x="544" y="-11" type="line"/>
    </contour>
  </outline>
</glyph>
<glyph name="O" format="1">
  <advance width="684"/>
  <unicode hex="004F"/>
  <outline>
    <contour>
      <point x="56" y="350" type="qcurve" smooth="yes"/>
      <point x="56" y="525"/>
      <point x="204" y="712"/>
      <point x="341" y="712" type="qcurve" smooth="yes"/>
      <point x="415" y="712"/>
      <point x="523" y="660"/>
      <point x="558.5" y="612.5" type="qcurve" smooth="yes" name="inserted"/>
      <point x="594" y="565"/>
      <point x="628" y="432"/>
      <point x="628" y="350" type="qcurve" smooth="yes"/>
      <point x="628" y="175"/>
      <point x="479" y="-12"/>
      <point x="341" y="-12" type="qcurve" smooth="yes"/>
      <point x="268" y="-12"/>
      <point x="161" y="40"/>
      <point x="125.5" y="87.5" type="qcurve" smooth="yes" name="inserted"/>
      <point x="90" y="135"/>
      <point x="56" y="268"/>
    </contour>
    <contour>
      <point x="144" y="350" type="qcurve" smooth="yes"/>
      <point x="144" y="292"/>
      <point x="167" y="188"/>
      <point x="191.0" y="148.5" type="qcurve" smooth="yes" name="inserted"/>
      <point x="215" y="109"/>
      <point x="290" y="62"/>
      <point x="341" y="62" type="qcurve" smooth="yes"/>
      <point x="434" y="62"/>
      <point x="540" y="203"/>
      <point x="540" y="350" type="qcurve" smooth="yes"/>
      <point x="540" y="407"/>
      <point x="517" y="512"/>
      <point x="492.5" y="551.5" type="qcurve" smooth="yes" name="inserted"/>
      <point x="468" y="591"/>
      <point x="393" y="638"/>
      <point x="341" y="638" type="qcurve" smooth="yes"/>
      <point x="249" y="638"/>
      <point x="144" y="497"/>
    </contour>
  </outline>
</glyph>
<glyph name="Q" format="1">
  <advance width="684"/>
  <unicode hex="0051"/>
  <outline>
    <contour>
      <point x="704" y="-171" type="line"/>
      <point x="680" y="-178"/>
      <point x="634" y="-183"/>
      <point x="611" y="-183" type="qcurve" smooth="yes"/>
      <point x="561" y="-183"/>
      <point x="466" y="-162"/>
      <point x="421.5" y="-149.5" type="qcurve" smooth="yes" name="inserted"/>
      <point x="377" y="-137"/>
      <point x="295" y="-116"/>
      <point x="258" y="-116" type="qcurve" smooth="yes"/>
      <point x="246.0" y="-116.0" name="inserted"/>
      <point x="223.0" y="-119.0"/>
      <point x="212" y="-122" type="qcurve"/>
      <point x="212" y="-49" type="line"/>
      <point x="226" y="-46"/>
      <point x="252" y="-42"/>
      <point x="266" y="-42" type="qcurve" smooth="yes"/>
      <point x="308" y="-42"/>
      <point x="391" y="-63"/>
      <point x="434.0" y="-75.5" type="qcurve" smooth="yes" name="inserted"/>
      <point x="477" y="-88"/>
      <point x="567" y="-109"/>
      <point x="617" y="-109" type="qcurve" smooth="yes"/>
      <point x="639.0" y="-109.0" name="inserted"/>
      <point x="682.5" y="-104.0"/>
      <point x="704" y="-99" type="qcurve"/>
    </contour>
    <contour>
      <point x="56" y="350" type="qcurve" smooth="yes"/>
      <point x="56" y="525"/>
      <point x="204" y="712"/>
      <point x="341" y="712" type="qcurve" smooth="yes"/>
      <point x="415" y="712"/>
      <point x="523" y="660"/>
      <point x="558.5" y="612.5" type="qcurve" smooth="yes" name="inserted"/>
      <point x="594" y="565"/>
      <point x="628" y="432"/>
      <point x="628" y="350" type="qcurve" smooth="yes"/>
      <point x="628" y="175"/>
      <point x="479" y="-12"/>
      <point x="341" y="-12" type="qcurve" smooth="yes"/>
      <point x="268" y="-12"/>
      <point x="161" y="40"/>
      <point x="125.5" y="87.5" type="qcurve" smooth="yes" name="inserted"/>
      <point x="90" y="135"/>
      <point x="56" y="268"/>
    </contour>
    <contour>
      <point x="144" y="350" type="qcurve" smooth="yes"/>
      <point x="144" y="292"/>
      <point x="167" y="188"/>
      <point x="191.0" y="148.5" type="qcurve" smooth="yes" name="inserted"/>
      <point x="215" y="109"/>
      <point x="290" y="62"/>
      <point x="341" y="62" type="qcurve" smooth="yes"/>
      <point x="434" y="62"/>
      <point x="540" y="203"/>
      <point x="540" y="350" type="qcurve" smooth="yes"/>
      <point x="540" y="407"/>
      <point x="517" y="512"/>
      <point x="492.5" y="551.5" type="qcurve" smooth="yes" name="inserted"/>
      <point x="468" y="591"/>
      <point x="393" y="638"/>
      <point x="341" y="638" type="qcurve" smooth="yes"/>
      <point x="249" y="638"/>
      <point x="144" y="497"/>
    </contour>
  </outline>
</glyph>
<glyph name="R" format="1">
  <advance width="595"/>
  <unicode hex="0052"/>
  <outline>
    <contour>
      <point x="85" y="693" type="line"/>
      <point x="123" y="700"/>
      <point x="222" y="708"/>
      <point x="263" y="708" type="qcurve" smooth="yes"/>
      <point x="309" y="708"/>
      <point x="392" y="688"/>
      <point x="423.5" y="665.0" type="qcurve" smooth="yes" name="inserted"/>
      <point x="455" y="642"/>
      <point x="493" y="568"/>
      <point x="493" y="515" type="qcurve" smooth="yes"/>
      <point x="493" y="433"/>
      <point x="403" y="331"/>
      <point x="334" y="314" type="qcurve"/>
      <point x="382" y="277" type="line"/>
      <point x="556" y="0" type="line"/>
      <point x="459" y="0" type="line"/>
      <point x="266" y="302" type="line"/>
      <point x="168" y="317" type="line"/>
      <point x="168" y="0" type="line"/>
      <point x="85" y="0" type="line"/>
    </contour>
    <contour>
      <point x="265" y="636" type="qcurve" smooth="yes"/>
      <point x="252" y="636"/>
      <point x="224" y="636"/>
      <point x="211.0" y="635.0" type="qcurve" smooth="yes" name="inserted"/>
      <point x="198" y="634"/>
      <point x="175" y="632"/>
      <point x="168" y="630" type="qcurve"/>
      <point x="168" y="372" type="line"/>
      <point x="246" y="372" type="line" smooth="yes"/>
      <point x="315" y="372"/>
      <point x="405" y="440"/>
      <point x="405" y="512" type="qcurve" smooth="yes"/>
      <point x="405" y="566"/>
      <point x="331" y="636"/>
    </contour>
  </outline>
</glyph>
<glyph name="U" format="1">
  <advance width="652"/>
  <unicode hex="0055"/>
  <outline>
    <contour>
      <point x="487" y="700" type="line"/>
      <point x="567" y="700" type="line"/>
      <point x="567" y="233" type="line" smooth="yes"/>
      <point x="567" y="170"/>
      <point x="534" y="78"/>
      <point x="503.5" y="48.5" type="qcurve" smooth="yes" name="inserted"/>
      <point x="473" y="19"/>
      <point x="387" y="-9"/>
      <point x="335" y="-9" type="qcurve" smooth="yes"/>
      <point x="211" y="-9"/>
      <point x="85" y="103"/>
      <point x="85" y="217" type="qcurve" smooth="yes"/>
      <point x="85" y="700" type="line"/>
      <point x="168" y="700" type="line"/>
      <point x="168" y="256" type="line" smooth="yes"/>
      <point x="168" y="203"/>
      <point x="189" y="130"/>
      <point x="210.0" y="107.5" type="qcurve" smooth="yes" name="inserted"/>
      <point x="231" y="85"/>
      <point x="294" y="65"/>
      <point x="336" y="65" type="qcurve" smooth="yes"/>
      <point x="417" y="65"/>
      <point x="487" y="154"/>
      <point x="487" y="256" type="qcurve" smooth="yes"/>
    </contour>
  </outline>
</glyph>
<glyph name="V" format="1">
  <advance width="568"/>
  <unicode hex="0056"/>
  <outline>
    <contour>
      <point x="267" y="219" type="line"/>
      <point x="291" y="113" type="line"/>
      <point x="292" y="113" type="line"/>
      <point x="318" y="221" type="line"/>
      <point x="487" y="700" type="line"/>
      <point x="570" y="700" type="line"/>
      <point x="305" y="-11" type="line"/>
      <point x="268" y="-11" type="line"/>
      <point x="-2" y="700" type="line"/>
      <point x="89" y="700" type="line"/>
    </contour>
  </outline>
</glyph>
<glyph name="X" format="1">
  <advance width="618"/>
  <unicode hex="0058"/>
  <outline>
    <contour>
      <point x="259" y="356" type="line"/>
      <point x="46" y="700" type="line"/>
      <point x="146" y="700" type="line"/>
      <point x="288" y="463" type="line"/>
      <point x="313" y="406" type="line"/>
      <point x="337" y="463" type="line"/>
      <point x="487" y="700" type="line"/>
      <point x="579" y="700" type="line"/>
      <point x="359" y="363" type="line"/>
      <point x="589" y="0" type="line"/>
      <point x="492" y="0" type="line"/>
      <point x="334" y="251" type="line"/>
      <point x="307" y="311" type="line"/>
      <point x="281" y="251" type="line"/>
      <point x="119" y="0" type="line"/>
      <point x="26" y="0" type="line"/>
    </contour>
  </outline>
</glyph>
<glyph name="Z" format="1">
  <advance width="545"/>
  <unicode hex="005A"/>
  <outline>
    <contour>
      <point x="38" y="75" type="line"/>
      <point x="391" y="586" type="line"/>
      <point x="433" y="626" type="line"/>
      <point x="38" y="626" type="line"/>
      <point x="38" y="700" type="line"/>
      <point x="508" y="700" type="line"/>
      <point x="508" y="625" type="line"/>
      <point x="153" y="111" type="line"/>
      <point x="111" y="74" type="line"/>
      <point x="508" y="74" type="line"/>
      <point x="508" y="0" type="line"/>
      <point x="38" y="0" type="line"/>
    </contour>
  </outline>
</glyph>
<glyph name="bracketright" format="1">
  <advance width="304"/>
  <unicode hex="005D"/>
  <outline>
    <contour>
      <point x="220" y="-230" type="line"/>
      <point x="38" y="-230" type="line"/>
      <point x="38" y="-160" type="line"/>
      <point x="142" y="-160" type="line"/>
      <point x="142" y="630" type="line"/>
      <point x="38" y="630" type="line"/>
      <point x="38" y="700" type="line"/>
      <point x="220" y="700" type="line"/>
    </contour>
  </outline>
</glyph>
<glyph name="underscore" format="1">
  <advance width="408"/>
  <unicode hex="005F"/>
  <outline>
    <contour>
      <point x="0" y="-135" type="line"/>
      <point x="408" y="-135" type="line"/>
      <point x="408" y="-205" type="line"/>
      <point x="0" y="-205" type="line"/>
    </contour>
  </outline>
</glyph>
<glyph name="grave" format="1">
  <advance width="280"/>
  <unicode hex="0060"/>
  <outline>
    <contour>
      <point x="220" y="571" type="line"/>
      <point x="175" y="571" type="line"/>
      <point x="60" y="699" type="line"/>
      <point x="60" y="720" type="line"/>
      <point x="155" y="720" type="line"/>
    </contour>
  </outline>
</glyph>
<glyph name="b" format="1">
  <advance width="540"/>
  <unicode hex="0062"/>
  <outline>
    <contour>
      <point x="77" y="700" type="line"/>
      <point x="157" y="700" type="line"/>
      <point x="157" y="451" type="line"/>
      <point x="161" y="451" type="line"/>
      <point x="184" y="480"/>
      <point x="255" y="512"/>
      <point x="297" y="512" type="qcurve" smooth="yes"/>
      <point x="394" y="512"/>
      <point x="491" y="388"/>
      <point x="491" y="258" type="qcurve" smooth="yes"/>
      <point x="491" y="127"/>
      <point x="363" y="-9"/>
      <point x="247" y="-9" type="qcurve" smooth="yes"/>
      <point x="191" y="-9"/>
      <point x="100" y="15"/>
      <point x="77" y="29" type="qcurve"/>
    </contour>
    <contour>
      <point x="283" y="442" type="qcurve" smooth="yes"/>
      <point x="233" y="442"/>
      <point x="171" y="386"/>
      <point x="157" y="335" type="qcurve"/>
      <point x="157" y="83" type="line"/>
      <point x="176" y="72"/>
      <point x="230" y="61"/>
      <point x="259" y="61" type="qcurve" smooth="yes"/>
      <point x="327" y="61"/>
      <point x="408" y="157"/>
      <point x="408" y="259" type="qcurve" smooth="yes"/>
      <point x="408" y="298"/>
      <point x="394" y="366"/>
      <point x="379.0" y="390.0" type="qcurve" smooth="yes" name="inserted"/>
      <point x="364" y="414"/>
      <point x="317" y="442"/>
    </contour>
  </outline>
</glyph>
<glyph name="f" format="1">
  <advance width="319"/>
  <unicode hex="0066"/>
  <outline>
    <contour>
      <point x="22" y="500" type="line"/>
      <point x="100" y="500" type="line"/>
      <point x="100" y="528" type="line" smooth="yes"/>
      <point x="100" y="574"/>
      <point x="115" y="642"/>
      <point x="132.0" y="663.5" type="qcurve" smooth="yes" name="inserted"/>
      <point x="149" y="685"/>
      <point x="203" y="706"/>
      <point x="243" y="706" type="qcurve" smooth="yes"/>
      <point x="275" y="706"/>
      <point x="324" y="698"/>
      <point x="351" y="687" type="qcurve"/>
      <point x="333" y="620" type="line"/>
      <point x="310" y="630"/>
      <point x="269" y="636"/>
      <point x="251" y="636" type="qcurve" smooth="yes"/>
      <point x="225" y="636"/>
      <point x="196" y="620"/>
      <point x="189.5" y="604.5" type="qcurve" smooth="yes" name="inserted"/>
      <point x="183" y="589"/>
      <point x="180" y="544"/>
      <point x="180" y="514" type="qcurve" smooth="yes"/>
      <point x="180" y="500" type="line"/>
      <point x="313" y="500" type="line"/>
      <point x="313" y="430" type="line"/>
      <point x="180" y="430" type="line"/>
      <point x="180" y="0" type="line"/>
      <point x="100" y="0" type="line"/>
      <point x="100" y="430" type="line"/>
      <point x="22" y="430" type="line"/>
    </contour>
  </outline>
</glyph>
<glyph name="g" format="1">
  <advance width="537"/>
  <unicode hex="0067"/>
  <outline>
    <contour>
      <point x="460" y="-23" type="line" smooth="yes"/>
      <point x="460" y="-120"/>
      <point x="357" y="-212"/>
      <point x="256" y="-212" type="qcurve" smooth="yes"/>
      <point x="196" y="-212"/>
      <point x="123" y="-197"/>
      <point x="97" y="-185" type="qcurve"/>
      <point x="118" y="-117" type="line"/>
      <point x="141" y="-126"/>
      <point x="197" y="-142"/>
      <point x="242" y="-142" type="qcurve" smooth="yes"/>
      <point x="284" y="-142"/>
      <point x="337" y="-127"/>
      <point x="353.0" y="-109.5" type="qcurve" smooth="yes" name="inserted"/>
      <point x="369" y="-92"/>
      <point x="381" y="-37"/>
      <point x="381" y="1" type="qcurve" smooth="yes"/>
      <point x="381" y="49" type="line"/>
      <point x="377" y="49" type="line"/>
      <point x="357" y="20"/>
      <point x="295" y="-11"/>
      <point x="245" y="-11" type="qcurve" smooth="yes"/>
      <point x="144" y="-11"/>
      <point x="49" y="115"/>
      <point x="49" y="248" type="qcurve" smooth="yes"/>
      <point x="49" y="376"/>
      <point x="171" y="509"/>
      <point x="290" y="509" type="qcurve" smooth="yes"/>
      <point x="347" y="509"/>
      <point x="428" y="491"/>
      <point x="460" y="479" type="qcurve"/>
    </contour>
    <contour>
      <point x="259" y="59" type="qcurve" smooth="yes"/>
      <point x="310" y="59"/>
      <point x="368" y="110"/>
      <point x="380" y="164" type="qcurve"/>
      <point x="380" y="420" type="line"/>
      <point x="360.0" y="429.5" name="inserted"/>
      <point x="309.0" y="439.0"/>
      <point x="278" y="439" type="qcurve" smooth="yes"/>
      <point x="210" y="439"/>
      <point x="132" y="347"/>
      <point x="132" y="249" type="qcurve" smooth="yes"/>
      <point x="132" y="207"/>
      <point x="146" y="137"/>
      <point x="161.0" y="112.0" type="qcurve" smooth="yes" name="inserted"/>
      <point x="176" y="87"/>
      <point x="224" y="59"/>
    </contour>
  </outline>
</glyph>
<glyph name="i" format="1">
  <advance width="268"/>
  <unicode hex="0069"/>
  <outline>
    <contour>
      <point x="94" y="500" type="line"/>
      <point x="174" y="500" type="line"/>
      <point x="174" y="0" type="line"/>
      <point x="94" y="0" type="line"/>
    </contour>
    <contour>
      <point x="77" y="652" type="qcurve" smooth="yes"/>
      <point x="77" y="675"/>
      <point x="108" y="708"/>
      <point x="132" y="708" type="qcurve" smooth="yes"/>
      <point x="156" y="708"/>
      <point x="190" y="675"/>
      <point x="190" y="652" type="qcurve" smooth="yes"/>
      <point x="190" y="629"/>
      <point x="156" y="599"/>
      <point x="132" y="599" type="qcurve" smooth="yes"/>
      <point x="108" y="599"/>
      <point x="77" y="629"/>
    </contour>
  </outline>
</glyph>
<glyph name="j" format="1">
  <advance width="267"/>
  <unicode hex="006A"/>
  <outline>
    <contour>
      <point x="93" y="500" type="line"/>
      <point x="173" y="500" type="line"/>
      <point x="173" y="-27" type="line" smooth="yes"/>
      <point x="173" y="-120"/>
      <point x="109" y="-212"/>
      <point x="39" y="-212" type="qcurve" smooth="yes"/>
      <point x="31" y="-212"/>
      <point x="17" y="-211"/>
      <point x="9" y="-210" type="qcurve"/>
      <point x="9" y="-142" type="line"/>
      <point x="37" y="-142"/>
      <point x="70" y="-125"/>
      <point x="79.0" y="-107.0" type="qcurve" smooth="yes" name="inserted"/>
      <point x="88" y="-89"/>
      <point x="93" y="-34"/>
      <point x="93" y="3" type="qcurve" smooth="yes"/>
    </contour>
    <contour>
      <point x="76" y="652" type="qcurve" smooth="yes"/>
      <point x="76" y="675"/>
      <point x="107" y="708"/>
      <point x="131" y="708" type="qcurve" smooth="yes"/>
      <point x="155" y="708"/>
      <point x="189" y="675"/>
      <point x="189" y="652" type="qcurve" smooth="yes"/>
      <point x="189" y="629"/>
      <point x="155" y="599"/>
      <point x="131" y="599" type="qcurve" smooth="yes"/>
      <point x="107" y="599"/>
      <point x="76" y="629"/>
    </contour>
  </outline>
</glyph>
<glyph name="k" format="1">
  <advance width="479"/>
  <unicode hex="006B"/>
  <outline>
    <contour>
      <point x="203" y="225" type="line"/>
      <point x="157" y="225" type="line"/>
      <point x="157" y="0" type="line"/>
      <point x="77" y="0" type="line"/>
      <point x="77" y="700" type="line"/>
      <point x="157" y="700" type="line"/>
      <point x="157" y="274" type="line"/>
      <point x="198" y="288" type="line"/>
      <point x="353" y="500" type="line"/>
      <point x="446" y="500" type="line"/>
      <point x="293" y="299" type="line"/>
      <point x="252" y="266" type="line"/>
      <point x="302" y="226" type="line"/>
      <point x="469" y="0" type="line"/>
      <point x="370" y="0" type="line"/>
    </contour>
  </outline>
</glyph>
<glyph name="l" format="1">
  <advance width="292"/>
  <unicode hex="006C"/>
  <outline>
    <contour>
      <point x="166" y="123" type="line" smooth="yes"/>
      <point x="166" y="88"/>
      <point x="190" y="58"/>
      <point x="212" y="58" type="qcurve" smooth="yes"/>
      <point x="225" y="58"/>
      <point x="255" y="62"/>
      <point x="274" y="69" type="qcurve"/>
      <point x="283" y="6" type="line"/>
      <point x="267" y="-2"/>
      <point x="210" y="-12"/>
      <point x="189" y="-12" type="qcurve" smooth="yes"/>
      <point x="144" y="-12"/>
      <point x="86" y="39"/>
      <point x="86" y="100" type="qcurve" smooth="yes"/>
      <point x="86" y="700" type="line"/>
      <point x="166" y="700" type="line"/>
    </contour>
  </outline>
</glyph>
<glyph name="n" format="1">
  <advance width="547"/>
  <unicode hex="006E"/>
  <outline>
    <contour>
      <point x="398" y="0" type="line"/>
      <point x="398" y="285" type="line" smooth="yes"/>
      <point x="398" y="363"/>
      <point x="353" y="442"/>
      <point x="293" y="442" type="qcurve" smooth="yes"/>
      <point x="240" y="442"/>
      <point x="171" y="385"/>
      <point x="157" y="342" type="qcurve"/>
      <point x="157" y="0" type="line"/>
      <point x="77" y="0" type="line"/>
      <point x="77" y="500" type="line"/>
      <point x="133" y="500" type="line"/>
      <point x="148" y="439" type="line"/>
      <point x="152" y="439" type="line"/>
      <point x="176" y="471"/>
      <point x="257" y="512"/>
      <point x="313" y="512" type="qcurve" smooth="yes"/>
      <point x="354" y="512"/>
      <point x="416" y="493"/>
      <point x="436.5" y="469.0" type="qcurve" smooth="yes" name="inserted"/>
      <point x="457" y="445"/>
      <point x="478" y="364"/>
      <point x="478" y="302" type="qcurve" smooth="yes"/>
      <point x="478" y="0" type="line"/>
    </contour>
  </outline>
</glyph>
<glyph name="q" format="1">
  <advance width="537"/>
  <unicode hex="0071"/>
  <outline>
    <contour>
      <point x="460" y="-200" type="line"/>
      <point x="380" y="-200" type="line"/>
      <point x="380" y="50" type="line"/>
      <point x="376" y="50" type="line"/>
      <point x="356" y="20"/>
      <point x="295" y="-12"/>
      <point x="245" y="-12" type="qcurve" smooth="yes"/>
      <point x="145" y="-12"/>
      <point x="49" y="115"/>
      <point x="49" y="248" type="qcurve" smooth="yes"/>
      <point x="49" y="377"/>
      <point x="173" y="509"/>
      <point x="292" y="509" type="qcurve" smooth="yes"/>
      <point x="345" y="509"/>
      <point x="438" y="489"/>
      <point x="460" y="478" type="qcurve"/>
    </contour>
    <contour>
      <point x="259" y="58" type="qcurve" smooth="yes"/>
      <point x="310" y="58"/>
      <point x="368" y="110"/>
      <point x="380" y="164" type="qcurve"/>
      <point x="380" y="420" type="line"/>
      <point x="361.5" y="429.5" name="inserted"/>
      <point x="310.5" y="439.0"/>
      <point x="278" y="439" type="qcurve" smooth="yes"/>
      <point x="209" y="439"/>
      <point x="132" y="346"/>
      <point x="132" y="249" type="qcurve" smooth="yes"/>
      <point x="132" y="207"/>
      <point x="146" y="136"/>
      <point x="161.0" y="111.0" type="qcurve" smooth="yes" name="inserted"/>
      <point x="176" y="86"/>
      <point x="224" y="58"/>
    </contour>
  </outline>
</glyph>
<glyph name="r" format="1">
  <advance width="340"/>
  <unicode hex="0072"/>
  <outline>
    <contour>
      <point x="313" y="423" type="line"/>
      <point x="298.0" y="428.0" name="inserted"/>
      <point x="269.5" y="433.0"/>
      <point x="256" y="433" type="qcurve" smooth="yes"/>
      <point x="213" y="433"/>
      <point x="163" y="386"/>
      <point x="157" y="350" type="qcurve"/>
      <point x="157" y="0" type="line"/>
      <point x="77" y="0" type="line"/>
      <point x="77" y="500" type="line"/>
      <point x="133" y="500" type="line"/>
      <point x="148" y="439" type="line"/>
      <point x="152" y="439" type="line"/>
      <point x="171" y="473"/>
      <point x="224" y="510"/>
      <point x="265" y="510" type="qcurve" smooth="yes"/>
      <point x="279.5" y="510.0" name="inserted"/>
      <point x="312.0" y="505.0"/>
      <point x="330" y="500" type="qcurve"/>
    </contour>
  </outline>
</glyph>
<glyph name="u" format="1">
  <advance width="539"/>
  <unicode hex="0075"/>
  <outline>
    <contour>
      <point x="149" y="500" type="line"/>
      <point x="149" y="215" type="line" smooth="yes"/>
      <point x="149" y="176"/>
      <point x="158" y="117"/>
      <point x="169.0" y="97.5" type="qcurve" smooth="yes" name="inserted"/>
      <point x="180" y="78"/>
      <point x="218" y="58"/>
      <point x="247" y="58" type="qcurve" smooth="yes"/>
      <point x="274" y="58"/>
      <point x="316" y="75"/>
      <point x="332.5" y="90.0" type="qcurve" smooth="yes" name="inserted"/>
      <point x="349" y="105"/>
      <point x="374" y="144"/>
      <point x="382" y="166" type="qcurve"/>
      <point x="382" y="500" type="line"/>
      <point x="462" y="500" type="line"/>
      <point x="462" y="142" type="line" smooth="yes"/>
      <point x="462" y="106"/>
      <point x="467" y="29"/>
      <point x="473" y="0" type="qcurve"/>
      <point x="418" y="0" type="line"/>
      <point x="398" y="79" type="line"/>
      <point x="393" y="79" type="line"/>
      <point x="370" y="40"/>
      <point x="292" y="-12"/>
      <point x="232" y="-12" type="qcurve" smooth="yes"/>
      <point x="192" y="-12"/>
      <point x="131" y="7"/>
      <point x="110.5" y="31.0" type="qcurve" smooth="yes" name="inserted"/>
      <point x="90" y="55"/>
      <point x="69" y="136"/>
      <point x="69" y="198" type="qcurve" smooth="yes"/>
      <point x="69" y="500" type="line"/>
    </contour>
  </outline>
</glyph>
<glyph name="w" format="1">
  <advance width="735"/>
  <unicode hex="0077"/>
  <outline>
    <contour>
      <point x="401" y="500" type="line"/>
      <point x="516" y="208" type="line"/>
      <point x="541" y="112" type="line"/>
      <point x="543" y="112" type="line"/>
      <point x="562" y="210" type="line"/>
      <point x="651" y="500" type="line"/>
      <point x="727" y="500" type="line"/>
      <point x="559" y="-11" type="line"/>
      <point x="520" y="-11" type="line"/>
      <point x="389" y="319" type="line"/>
      <point x="370" y="401" type="line"/>
      <point x="367" y="401" type="line"/>
      <point x="347" y="318" type="line"/>
      <point x="221" y="-11" type="line"/>
      <point x="182" y="-11" type="line"/>
      <point x="8" y="500" type="line"/>
      <point x="95" y="500" type="line"/>
      <point x="194" y="209" type="line"/>
      <point x="211" y="112" type="line"/>
      <point x="212" y="112" type="line"/>
      <point x="236" y="211" type="line"/>
      <point x="343" y="500" type="line"/>
    </contour>
  </outline>
</glyph>
<glyph name="braceleft" format="1">
  <advance width="346"/>
  <unicode hex="007B"/>
  <outline>
    <contour>
      <point x="137" y="112" type="line" smooth="yes"/>
      <point x="137" y="163"/>
      <point x="95" y="200"/>
      <point x="57" y="200" type="qcurve"/>
      <point x="57" y="270" type="line"/>
      <point x="95" y="270"/>
      <point x="137" y="310"/>
      <point x="137" y="354" type="qcurve" smooth="yes"/>
      <point x="137" y="596" type="line" smooth="yes"/>
      <point x="137" y="643"/>
      <point x="184" y="701"/>
      <point x="232" y="701" type="qcurve" smooth="yes"/>
      <point x="317" y="701" type="line"/>
      <point x="317" y="631" type="line"/>
      <point x="267" y="631" type="line" smooth="yes"/>
      <point x="240" y="631"/>
      <point x="215" y="604"/>
      <point x="215" y="572" type="qcurve" smooth="yes"/>
      <point x="215" y="335" type="line" smooth="yes"/>
      <point x="215" y="291"/>
      <point x="173" y="245"/>
      <point x="145" y="240" type="qcurve"/>
      <point x="145" y="234" type="line"/>
      <point x="172" y="230"/>
      <point x="215" y="177"/>
      <point x="215" y="135" type="qcurve" smooth="yes"/>
      <point x="215" y="-101" type="line" smooth="yes"/>
      <point x="215" y="-132"/>
      <point x="239" y="-160"/>
      <point x="268" y="-160" type="qcurve" smooth="yes"/>
      <point x="317" y="-160" type="line"/>
      <point x="317" y="-230" type="line"/>
      <point x="232" y="-230" type="line" smooth="yes"/>
      <point x="187" y="-230"/>
      <point x="137" y="-177"/>
      <point x="137" y="-126" type="qcurve" smooth="yes"/>
    </contour>
  </outline>
</glyph>
<glyph name="sterling" format="1">
  <advance width="545"/>
  <unicode hex="00A3"/>
  <outline>
    <contour>
      <point x="50" y="383" type="line"/>
      <point x="116" y="383" type="line"/>
      <point x="104" y="409"/>
      <point x="88" y="471"/>
      <point x="88" y="513" type="qcurve" smooth="yes"/>
      <point x="88" y="611"/>
      <point x="200" y="712"/>
      <point x="297" y="712" type="qcurve" smooth="yes"/>
      <point x="358" y="712"/>
      <point x="448" y="694"/>
      <point x="477" y="680" type="qcurve"/>
      <point x="451" y="609" type="line"/>
      <point x="428" y="620"/>
      <point x="351" y="638"/>
      <point x="296" y="638" type="qcurve" smooth="yes"/>
      <point x="236" y="638"/>
      <point x="171" y="573"/>
      <point x="171" y="518" type="qcurve" smooth="yes"/>
      <point x="171" y="476"/>
      <point x="191" y="412"/>
      <point x="205" y="383" type="qcurve"/>
      <point x="366" y="383" type="line"/>
      <point x="366" y="313" type="line"/>
      <point x="235" y="313" type="line"/>
      <point x="243" y="290"/>
      <point x="253" y="240"/>
      <point x="253" y="210" type="qcurve" smooth="yes"/>
      <point x="253" y="180"/>
      <point x="235" y="117"/>
      <point x="217" y="97" type="qcurve"/>
      <point x="178" y="64" type="line"/>
      <point x="178" y="60" type="line"/>
      <point x="240" y="74" type="line"/>
      <point x="496" y="74" type="line"/>
      <point x="496" y="0" type="line"/>
      <point x="50" y="0" type="line"/>
      <point x="50" y="72" type="line"/>
      <point x="82" y="72"/>
      <point x="127" y="95"/>
      <point x="141.5" y="113.5" type="qcurve" smooth="yes" name="inserted"/>
      <point x="156" y="132"/>
      <point x="170" y="179"/>
      <point x="170" y="203" type="qcurve" smooth="yes"/>
      <point x="170" y="236"/>
      <point x="157" y="289"/>
      <point x="147" y="313" type="qcurve"/>
      <point x="50" y="313" type="line"/>
    </contour>
  </outline>
</glyph>
<glyph name="brokenbar" format="1">
  <advance width="238"/>
  <unicode hex="00A6"/>
  <outline>
    <contour>
      <point x="85" y="206" type="line"/>
      <point x="153" y="206" type="line"/>
      <point x="153" y="-130" type="line"/>
      <point x="85" y="-130" type="line"/>
    </contour>
    <contour>
      <point x="153" y="364" type="line"/>
      <point x="85" y="364" type="line"/>
      <point x="85" y="700" type="line"/>
      <point x="153" y="700" type="line"/>
    </contour>
  </outline>
</glyph>
<glyph name="copyright" format="1">
  <advance width="806"/>
  <unicode hex="00A9"/>
  <outline>
    <contour>
      <point x="51" y="290" type="qcurve" smooth="yes"/>
      <point x="51" y="373"/>
      <point x="107" y="504"/>
      <point x="155.0" y="549.0" type="qcurve" smooth="yes" name="inserted"/>
      <point x="203" y="594"/>
      <point x="331" y="642"/>
      <point x="403" y="642" type="qcurve" smooth="yes"/>
      <point x="475" y="642"/>
      <point x="603" y="594"/>
      <point x="651.0" y="549.0" type="qcurve" smooth="yes" name="inserted"/>
      <point x="699" y="504"/>
      <point x="755" y="373"/>
      <point x="755" y="290" type="qcurve" smooth="yes"/>
      <point x="755" y="207"/>
      <point x="699" y="76"/>
      <point x="651.0" y="31.0" type="qcurve" smooth="yes" name="inserted"/>
      <point x="603" y="-14"/>
      <point x="475" y="-62"/>
      <point x="403" y="-62" type="qcurve" smooth="yes"/>
      <point x="323" y="-62"/>
      <point x="193" y="-14"/>
      <point x="147.0" y="31.0" type="qcurve" smooth="yes" name="inserted"/>
      <point x="101" y="76"/>
      <point x="51" y="207"/>
    </contour>
    <contour>
      <point x="121" y="290" type="qcurve" smooth="yes"/>
      <point x="121" y="221"/>
      <point x="165" y="114"/>
      <point x="203.0" y="78.0" type="qcurve" smooth="yes" name="inserted"/>
      <point x="241" y="42"/>
      <point x="344" y="4"/>
      <point x="403" y="4" type="qcurve" smooth="yes"/>
      <point x="462" y="4"/>
      <point x="565" y="42"/>
      <point x="603.0" y="78.0" type="qcurve" smooth="yes" name="inserted"/>
      <point x="641" y="114"/>
      <point x="685" y="221"/>
      <point x="685" y="290" type="qcurve" smooth="yes"/>
      <point x="685" y="359"/>
      <point x="641" y="466"/>
      <point x="603.0" y="502.0" type="qcurve" smooth="yes" name="inserted"/>
      <point x="565" y="538"/>
      <point x="462" y="576"/>
      <point x="403" y="576" type="qcurve" smooth="yes"/>
      <point x="344" y="576"/>
      <point x="241" y="538"/>
      <point x="203.0" y="502.0" type="qcurve" smooth="yes" name="inserted"/>
      <point x="165" y="466"/>
      <point x="121" y="359"/>
    </contour>
    <contour>
      <point x="519" y="127" type="line"/>
      <point x="496" y="114"/>
      <point x="439" y="100"/>
      <point x="401" y="100" type="qcurve" smooth="yes"/>
      <point x="320" y="100"/>
      <point x="235" y="202"/>
      <point x="235" y="290" type="qcurve" smooth="yes"/>
      <point x="235" y="381"/>
      <point x="326" y="480"/>
      <point x="401" y="480" type="qcurve" smooth="yes"/>
      <point x="419" y="480"/>
      <point x="448" y="476"/>
      <point x="460.5" y="472.5" type="qcurve" smooth="yes" name="inserted"/>
      <point x="473" y="469"/>
      <point x="497" y="459"/>
      <point x="512" y="453" type="qcurve"/>
      <point x="486" y="392" type="line"/>
      <point x="464" y="403"/>
      <point x="424" y="411"/>
      <point x="410" y="411" type="qcurve" smooth="yes"/>
      <point x="368" y="411"/>
      <point x="315" y="359"/>
      <point x="315" y="290" type="qcurve" smooth="yes"/>
      <point x="315" y="232"/>
      <point x="367" y="169"/>
      <point x="418" y="168" type="qcurve" smooth="yes"/>
      <point x="441.5" y="168.0" name="inserted"/>
      <point x="481.5" y="177.0"/>
      <point x="498" y="186" type="qcurve"/>
    </contour>
  </outline>
</glyph>
<glyph name="logicalnot" format="1">
  <advance width="505"/>
  <unicode hex="00AC"/>
  <outline>
    <contour>
      <point x="41" y="392" type="line"/>
      <point x="465" y="392" type="line"/>
      <point x="465" y="200" type="line"/>
      <point x="393" y="200" type="line"/>
      <point x="393" y="320" type="line"/>
      <point x="41" y="320" type="line"/>
    </contour>
  </outline>
</glyph>
<glyph name="uni00AD" format="1">
  <advance width="360"/>
  <unicode hex="00AD"/>
  <outline>
    <contour>
      <point x="58" y="325" type="line"/>
      <point x="302" y="325" type="line"/>
      <point x="302" y="251" type="line"/>
      <point x="58" y="251" type="line"/>
    </contour>
  </outline>
</glyph>
<glyph name="registered" format="1">
  <advance width="700"/>
  <unicode hex="00AE"/>
  <outline>
    <contour>
      <point x="85" y="451" type="qcurve" smooth="yes"/>
      <point x="85" y="515"/>
      <point x="127" y="614"/>
      <point x="163.5" y="647.5" type="qcurve" smooth="yes" name="inserted"/>
      <point x="200" y="681"/>
      <point x="296" y="716"/>
      <point x="350" y="716" type="qcurve" smooth="yes"/>
      <point x="405" y="716"/>
      <point x="502" y="681"/>
      <point x="538.0" y="647.5" type="qcurve" smooth="yes" name="inserted"/>
      <point x="574" y="614"/>
      <point x="615" y="515"/>
      <point x="615" y="451" type="qcurve" smooth="yes"/>
      <point x="615" y="387"/>
      <point x="573" y="288"/>
      <point x="536.5" y="254.5" type="qcurve" smooth="yes" name="inserted"/>
      <point x="500" y="221"/>
      <point x="404" y="186"/>
      <point x="350" y="186" type="qcurve" smooth="yes"/>
      <point x="294" y="186"/>
      <point x="198" y="221"/>
      <point x="162.0" y="254.5" type="qcurve" smooth="yes" name="inserted"/>
      <point x="126" y="288"/>
      <point x="85" y="387"/>
    </contour>
    <contour>
      <point x="148" y="451" type="qcurve" smooth="yes"/>
      <point x="148" y="399"/>
      <point x="180" y="322"/>
      <point x="207.5" y="296.5" type="qcurve" smooth="yes" name="inserted"/>
      <point x="235" y="271"/>
      <point x="309" y="245"/>
      <point x="350" y="245" type="qcurve" smooth="yes"/>
      <point x="393" y="245"/>
      <point x="467" y="270"/>
      <point x="494.0" y="295.5" type="qcurve" smooth="yes" name="inserted"/>
      <point x="521" y="321"/>
      <point x="552" y="398"/>
      <point x="552" y="451" type="qcurve" smooth="yes"/>
      <point x="552" y="503"/>
      <point x="520" y="580"/>
      <point x="492.5" y="605.5" type="qcurve" smooth="yes" name="inserted"/>
      <point x="465" y="631"/>
      <point x="392" y="657"/>
      <point x="350" y="657" type="qcurve" smooth="yes"/>
      <point x="306" y="657"/>
      <point x="232" y="631"/>
      <point x="205.0" y="605.5" type="qcurve" smooth="yes" name="inserted"/>
      <point x="178" y="580"/>
      <point x="148" y="503"/>
    </contour>
    <contour>
      <point x="247" y="581" type="line"/>
      <point x="263" y="586"/>
      <point x="321" y="591"/>
      <point x="347" y="591" type="qcurve" smooth="yes"/>
      <point x="389" y="591"/>
      <point x="449" y="556"/>
      <point x="449" y="513" type="qcurve" smooth="yes"/>
      <point x="449" y="481"/>
      <point x="408" y="447"/>
      <point x="378" y="445" type="qcurve"/>
      <point x="406" y="431" type="line"/>
      <point x="480" y="322" type="line"/>
      <point x="419" y="322" type="line"/>
      <point x="347" y="426" type="line"/>
      <point x="299" y="441" type="line"/>
      <point x="299" y="322" type="line"/>
      <point x="247" y="322" type="line"/>
    </contour>
    <contour>
      <point x="336" y="546" type="qcurve" smooth="yes"/>
      <point x="325" y="546"/>
      <point x="305" y="545"/>
      <point x="299" y="542" type="qcurve"/>
      <point x="299" y="471" type="line"/>
      <point x="333" y="471" type="line" smooth="yes"/>
      <point x="362" y="471"/>
      <point x="394" y="489"/>
      <point x="394" y="511" type="qcurve" smooth="yes"/>
      <point x="394.0" y="528.5" name="inserted"/>
      <point x="365.0" y="546.0"/>
    </contour>
  </outline>
</glyph>
<glyph name="degree" format="1">
  <advance width="425"/>
  <unicode hex="00B0"/>
  <outline>
    <contour>
      <point x="85" y="571" type="qcurve" smooth="yes"/>
      <point x="85" y="602"/>
      <point x="107" y="654"/>
      <point x="126.0" y="672.5" type="qcurve" smooth="yes" name="inserted"/>
      <point x="145" y="691"/>
      <point x="197" y="712"/>
      <point x="226" y="712" type="qcurve" smooth="yes"/>
      <point x="255" y="712"/>
      <point x="307" y="693"/>
      <point x="326.0" y="674.5" type="qcurve" smooth="yes" name="inserted"/>
      <point x="345" y="656"/>
      <point x="367" y="604"/>
      <point x="367" y="571" type="qcurve" smooth="yes"/>
      <point x="367" y="538"/>
      <point x="345" y="486"/>
      <point x="326.0" y="467.5" type="qcurve" smooth="yes" name="inserted"/>
      <point x="307" y="449"/>
      <point x="255" y="430"/>
      <point x="226" y="430" type="qcurve" smooth="yes"/>
      <point x="197" y="430"/>
      <point x="145" y="449"/>
      <point x="126.0" y="467.5" type="qcurve" smooth="yes" name="inserted"/>
      <point x="107" y="486"/>
      <point x="85" y="538"/>
    </contour>
    <contour>
      <point x="148" y="571" type="qcurve" smooth="yes"/>
      <point x="148" y="533"/>
      <point x="195" y="490"/>
      <point x="226" y="490" type="qcurve" smooth="yes"/>
      <point x="257" y="490"/>
      <point x="304" y="533"/>
      <point x="304" y="571" type="qcurve" smooth="yes"/>
      <point x="304" y="609"/>
      <point x="257" y="652"/>
      <point x="226" y="652" type="qcurve" smooth="yes"/>
      <point x="195" y="652"/>
      <point x="148" y="609"/>
    </contour>
  </outline>
</glyph>
<glyph name="cedilla" format="1">
  <advance width="287"/>
  <unicode hex="00B8"/>
  <outline>
    <contour>
      <point x="172" y="0" type="line"/>
      <point x="148" y="-43" type="line"/>
      <point x="190" y="-51"/>
      <point x="227" y="-87"/>
      <point x="227" y="-118" type="qcurve" smooth="yes"/>
      <point x="227" y="-157"/>
      <point x="163" y="-208"/>
      <point x="105" y="-208" type="qcurve" smooth="yes"/>
      <point x="94" y="-208"/>
      <point x="72" y="-206"/>
      <point x="60" y="-204" type="qcurve"/>
      <point x="69" y="-165" type="line"/>
      <point x="75" y="-166"/>
      <point x="85" y="-166"/>
      <point x="90" y="-166" type="qcurve" smooth="yes"/>
      <point x="112" y="-166"/>
      <point x="137" y="-158"/>
      <point x="143.5" y="-152.5" type="qcurve" smooth="yes" name="inserted"/>
      <point x="150" y="-147"/>
      <point x="153" y="-133"/>
      <point x="153" y="-127" type="qcurve" smooth="yes"/>
      <point x="153.0" y="-113.0" name="inserted"/>
      <point x="110.0" y="-94.5"/>
      <point x="67" y="-90" type="qcurve"/>
      <point x="115" y="0" type="line"/>
    </contour>
  </outline>
</glyph>
<glyph name="ordmasculine" format="1">
  <advance width="398"/>
  <unicode hex="00BA"/>
  <outline>
    <contour>
      <point x="44" y="542" type="qcurve" smooth="yes"/>
      <point x="44" y="587"/>
      <point x="68" y="651"/>
      <point x="88.5" y="672.0" type="qcurve" smooth="yes" name="inserted"/>
      <point x="109" y="693"/>
      <point x="166" y="712"/>
      <point x="199" y="712" type="qcurve" smooth="yes"/>
      <point x="232" y="712"/>
      <point x="289" y="694"/>
      <point x="309.5" y="674.0" type="qcurve" smooth="yes" name="inserted"/>
      <point x="330" y="654"/>
      <point x="354" y="589"/>
      <point x="354" y="542" type="qcurve" smooth="yes"/>
      <point x="354" y="495"/>
      <point x="330" y="430"/>
      <point x="309.5" y="410.0" type="qcurve" smooth="yes" name="inserted"/>
      <point x="289" y="390"/>
      <point x="232" y="372"/>
      <point x="199" y="372" type="qcurve" smooth="yes"/>
      <point x="166" y="372"/>
      <point x="109" y="390"/>
      <point x="88.5" y="410.0" type="qcurve" smooth="yes" name="inserted"/>
      <point x="68" y="430"/>
      <point x="44" y="495"/>
    </contour>
    <contour>
      <point x="118" y="542" type="qcurve" smooth="yes"/>
      <point x="118" y="482"/>
      <point x="161" y="430"/>
      <point x="199" y="430" type="qcurve" smooth="yes"/>
      <point x="218" y="430"/>
      <point x="248" y="441"/>
      <point x="258.5" y="453.5" type="qcurve" smooth="yes" name="inserted"/>
      <point x="269" y="466"/>
      <point x="280" y="509"/>
      <point x="280" y="542" type="qcurve" smooth="yes"/>
      <point x="280" y="575"/>
      <point x="269" y="618"/>
      <point x="258.5" y="630.5" type="qcurve" smooth="yes" name="inserted"/>
      <point x="248" y="643"/>
      <point x="218" y="654"/>
      <point x="199" y="654" type="qcurve" smooth="yes"/>
      <point x="161" y="654"/>
      <point x="118" y="607"/>
    </contour>
  </outline>
</glyph>
<glyph name="guillemotright" format="1">
  <advance width="478"/>
  <unicode hex="00BB"/>
  <outline>
    <contour>
      <point x="257" y="268" type="line"/>
      <point x="97" y="40" type="line"/>
      <point x="45" y="82" type="line"/>
      <point x="141" y="226" type="line"/>
      <point x="190" y="267" type="line"/>
      <point x="141" y="303" type="line"/>
      <point x="39" y="444" type="line"/>
      <point x="91" y="487" type="line"/>
    </contour>
    <contour>
      <point x="439" y="268" type="line"/>
      <point x="279" y="38" type="line"/>
      <point x="225" y="81" type="line"/>
      <point x="323" y="226" type="line"/>
      <point x="371" y="267" type="line"/>
      <point x="323" y="303" type="line"/>
      <point x="219" y="445" type="line"/>
      <point x="272" y="489" type="line"/>
    </contour>
  </outline>
</glyph>
<glyph name="Ccedilla" format="1">
  <advance width="571"/>
  <unicode hex="00C7"/>
  <outline>
    <contour>
      <point x="533" y="29" type="line"/>
      <point x="507" y="9"/>
      <point x="431" y="-9"/>
      <point x="386" y="-11" type="qcurve"/>
      <point x="369" y="-43" type="line"/>
      <point x="411" y="-51"/>
      <point x="448" y="-87"/>
      <point x="448" y="-118" type="qcurve" smooth="yes"/>
      <point x="448" y="-157"/>
      <point x="384" y="-208"/>
      <point x="326" y="-208" type="qcurve" smooth="yes"/>
      <point x="315" y="-208"/>
      <point x="293" y="-206"/>
      <point x="281" y="-204" type="qcurve"/>
      <point x="290" y="-165" type="line"/>
      <point x="296" y="-166"/>
      <point x="306" y="-166"/>
      <point x="311" y="-166" type="qcurve" smooth="yes"/>
      <point x="333" y="-166"/>
      <point x="358" y="-158"/>
      <point x="364.5" y="-152.5" type="qcurve" smooth="yes" name="inserted"/>
      <point x="371" y="-147"/>
      <point x="374" y="-133"/>
      <point x="374" y="-127" type="qcurve" smooth="yes"/>
      <point x="374.0" y="-113.0" name="inserted"/>
      <point x="331.0" y="-94.5"/>
      <point x="288" y="-90" type="qcurve"/>
      <point x="330" y="-10" type="line"/>
      <point x="272" y="-6"/>
      <point x="172" y="41"/>
      <point x="135.0" y="85.0" type="qcurve" smooth="yes" name="inserted"/>
      <point x="98" y="129"/>
      <point x="56" y="261"/>
      <point x="56" y="350" type="qcurve" smooth="yes"/>
      <point x="56" y="448"/>
      <point x="109" y="585"/>
      <point x="152.5" y="628.5" type="qcurve" smooth="yes" name="inserted"/>
      <point x="196" y="672"/>
      <point x="304" y="712"/>
      <point x="360" y="712" type="qcurve" smooth="yes"/>
      <point x="420" y="712"/>
      <point x="496" y="699"/>
      <point x="523" y="688" type="qcurve"/>
      <point x="503" y="615" type="line"/>
      <point x="479.0" y="626.5" name="inserted"/>
      <point x="410.5" y="638.0"/>
      <point x="366" y="638" type="qcurve" smooth="yes"/>
      <point x="325" y="638"/>
      <point x="245" y="608"/>
      <point x="213.5" y="574.0" type="qcurve" smooth="yes" name="inserted"/>
      <point x="182" y="540"/>
      <point x="144" y="430"/>
      <point x="144" y="350" type="qcurve" smooth="yes"/>
      <point x="144" y="278"/>
      <point x="180" y="170"/>
      <point x="211.5" y="134.0" type="qcurve" smooth="yes" name="inserted"/>
      <point x="243" y="98"/>
      <point x="328" y="62"/>
      <point x="378" y="62" type="qcurve" smooth="yes"/>
      <point x="423" y="62"/>
      <point x="490" y="80"/>
      <point x="513" y="94" type="qcurve"/>
    </contour>
  </outline>
</glyph>
<glyph name="multiply" format="1">
  <advance width="505"/>
  <unicode hex="00D7"/>
  <outline>
    <contour>
      <point x="127" y="517" type="line"/>
      <point x="253" y="390" type="line"/>
      <point x="380" y="517" type="line"/>
      <point x="431" y="464" type="line"/>
      <point x="305" y="338" type="line"/>
      <point x="431" y="211" type="line"/>
      <point x="380" y="159" type="line"/>
      <point x="253" y="287" type="line"/>
      <point x="126" y="159" type="line"/>
      <point x="74" y="210" type="line"/>
      <point x="202" y="339" type="line"/>
      <point x="76" y="464" type="line"/>
    </contour>
  </outline>
</glyph>
<glyph name="ae" format="1">
  <advance width="796"/>
  <unicode hex="00E6"/>
  <outline>
    <contour>
      <point x="211" y="62" type="qcurve" smooth="yes"/>
      <point x="239" y="62"/>
      <point x="283" y="77"/>
      <point x="299.0" y="88.5" type="qcurve" smooth="yes" name="inserted"/>
      <point x="315" y="100"/>
      <point x="336" y="128"/>
      <point x="341" y="141" type="qcurve"/>
      <point x="341" y="224" type="line"/>
      <point x="327" y="225"/>
      <point x="298" y="226"/>
      <point x="284" y="226" type="qcurve" smooth="yes"/>
      <point x="253" y="226"/>
      <point x="194" y="219"/>
      <point x="171.5" y="209.5" type="qcurve" smooth="yes" name="inserted"/>
      <point x="149" y="200"/>
      <point x="122" y="167"/>
      <point x="122" y="142" type="qcurve" smooth="yes"/>
      <point x="122" y="107"/>
      <point x="172" y="62"/>
    </contour>
    <contour>
      <point x="367" y="84" type="line"/>
      <point x="354" y="66"/>
      <point x="320" y="33"/>
      <point x="298.5" y="20.5" type="qcurve" smooth="yes" name="inserted"/>
      <point x="277" y="8"/>
      <point x="222" y="-8"/>
      <point x="189" y="-8" type="qcurve" smooth="yes"/>
      <point x="157" y="-8"/>
      <point x="102" y="12"/>
      <point x="82.0" y="30.5" type="qcurve" smooth="yes" name="inserted"/>
      <point x="62" y="49"/>
      <point x="39" y="101"/>
      <point x="39" y="134" type="qcurve" smooth="yes"/>
      <point x="39" y="178"/>
      <point x="75" y="237"/>
      <point x="107.5" y="254.5" type="qcurve" smooth="yes" name="inserted"/>
      <point x="140" y="272"/>
      <point x="231" y="287"/>
      <point x="286" y="287" type="qcurve" smooth="yes"/>
      <point x="300" y="287"/>
      <point x="327" y="287"/>
      <point x="341" y="285" type="qcurve"/>
      <point x="342" y="300"/>
      <point x="344" y="327"/>
      <point x="344" y="339" type="qcurve" smooth="yes"/>
      <point x="344" y="394"/>
      <point x="300" y="439"/>
      <point x="242" y="438" type="qcurve" smooth="yes"/>
      <point x="225" y="438"/>
      <point x="186" y="433"/>
      <point x="165.5" y="428.5" type="qcurve" smooth="yes" name="inserted"/>
      <point x="145" y="424"/>
      <point x="108" y="411"/>
      <point x="94" y="403" type="qcurve"/>
      <point x="69" y="463" type="line"/>
      <point x="107" y="486"/>
      <point x="208" y="508"/>
      <point x="263" y="508" type="qcurve" smooth="yes"/>
      <point x="315.5" y="508.0" name="inserted"/>
      <point x="383.5" y="475.5"/>
      <point x="399" y="443" type="qcurve"/>
      <point x="425" y="479"/>
      <point x="513" y="512"/>
      <point x="557" y="512" type="qcurve" smooth="yes"/>
      <point x="591" y="512"/>
      <point x="659" y="497"/>
      <point x="686.0" y="475.5" type="qcurve" smooth="yes" name="inserted"/>
      <point x="713" y="454"/>
      <point x="747" y="376"/>
      <point x="747" y="313" type="qcurve" smooth="yes"/>
      <point x="747" y="297"/>
      <point x="744" y="262"/>
      <point x="742" y="242" type="qcurve"/>
      <point x="419" y="242" type="line"/>
      <point x="419" y="155"/>
      <point x="492" y="58"/>
      <point x="580" y="58" type="qcurve" smooth="yes"/>
      <point x="615" y="58"/>
      <point x="682" y="83"/>
      <point x="700" y="98" type="qcurve"/>
      <point x="730" y="40" type="line"/>
      <point x="700" y="16"/>
      <point x="609" y="-12"/>
      <point x="558" y="-12" type="qcurve" smooth="yes"/>
      <point x="497" y="-12"/>
      <point x="398" y="38"/>
      <point x="374" y="84" type="qcurve"/>
    </contour>
    <contour>
      <point x="558" y="442" type="qcurve" smooth="yes"/>
      <point x="499" y="442"/>
      <point x="427" y="380"/>
      <point x="421" y="305" type="qcurve"/>
      <point x="669" y="305" type="line"/>
      <point x="669" y="317" type="line" smooth="yes"/>
      <point x="669" y="385"/>
      <point x="608" y="442"/>
    </contour>
  </outline>
</glyph>
<glyph name="oslash" format="1">
  <advance width="536"/>
  <unicode hex="00F8"/>
  <outline>
    <contour>
      <point x="49" y="250" type="qcurve" smooth="yes"/>
      <point x="49" y="377"/>
      <point x="162" y="512"/>
      <point x="268" y="512" type="qcurve" smooth="yes"/>
      <point x="304.5" y="512.0" name="inserted"/>
      <point x="365.5" y="496.0"/>
      <point x="390" y="480" type="qcurve"/>
      <point x="416" y="515" type="line"/>
      <point x="466" y="478" type="line"/>
      <point x="437" y="436" type="line"/>
      <point x="463" y="402"/>
      <point x="487" y="308"/>
      <point x="487" y="250" type="qcurve" smooth="yes"/>
      <point x="487" y="123"/>
      <point x="374" y="-12"/>
      <point x="268" y="-12" type="qcurve" smooth="yes"/>
      <point x="229.0" y="-12.0" name="inserted"/>
      <point x="165.0" y="5.5"/>
      <point x="140" y="23" type="qcurve"/>
      <point x="113" y="-14" type="line"/>
      <point x="61" y="24" type="line"/>
      <point x="94" y="70" type="line"/>
      <point x="71" y="104"/>
      <point x="49" y="195"/>
    </contour>
    <contour>
      <point x="404" y="250" type="qcurve" smooth="yes"/>
      <point x="404" y="282"/>
      <point x="394" y="341"/>
      <point x="383" y="365" type="qcurve"/>
      <point x="184" y="88" type="line"/>
      <point x="200" y="75"/>
      <point x="241" y="58"/>
      <point x="268" y="58" type="qcurve" smooth="yes"/>
      <point x="336.0" y="57.5" name="inserted"/>
      <point x="404.0" y="153.5"/>
    </contour>
    <contour>
      <point x="132" y="250" type="qcurve" smooth="yes"/>
      <point x="132" y="220"/>
      <point x="141" y="164"/>
      <point x="150" y="141" type="qcurve"/>
      <point x="347" y="415" type="line"/>
      <point x="332" y="427"/>
      <point x="293" y="442"/>
      <point x="268" y="442" type="qcurve" smooth="yes"/>
      <point x="200.0" y="442.5" name="inserted"/>
      <point x="132.0" y="346.5"/>
    </contour>
  </outline>
</glyph>
<glyph name="Aogonek" format="1">
  <advance width="585"/>
  <unicode hex="0104"/>
  <outline>
    <contour>
      <point x="418" y="194" type="line"/>
      <point x="160" y="194" type="line"/>
      <point x="90" y="0" type="line"/>
      <point x="8" y="0" type="line"/>
      <point x="273" y="711" type="line"/>
      <point x="311" y="711" type="line"/>
      <point x="577" y="0" type="line"/>
      <point x="555" y="0" type="line"/>
      <point x="529" y="-16"/>
      <point x="498" y="-59"/>
      <point x="498" y="-88" type="qcurve" smooth="yes"/>
      <point x="498" y="-108"/>
      <point x="525" y="-138"/>
      <point x="550" y="-138" type="qcurve" smooth="yes"/>
      <point x="559.5" y="-138.0" name="inserted"/>
      <point x="579.5" y="-133.5"/>
      <point x="590" y="-129" type="qcurve"/>
      <point x="601" y="-171" type="line"/>
      <point x="586" y="-183"/>
      <point x="536" y="-195"/>
      <point x="515" y="-195" type="qcurve" smooth="yes"/>
      <point x="471" y="-195"/>
      <point x="416" y="-148"/>
      <point x="416" y="-107" type="qcurve" smooth="yes"/>
      <point x="416" y="-72"/>
      <point x="459" y="-17"/>
      <point x="497" y="0" type="qcurve"/>
      <point x="490" y="0" type="line"/>
    </contour>
    <contour>
      <point x="187" y="266" type="line"/>
      <point x="393" y="266" type="line"/>
      <point x="315" y="479" type="line"/>
      <point x="290" y="585" type="line"/>
      <point x="289" y="585" type="line"/>
      <point x="264" y="477" type="line"/>
    </contour>
  </outline>
</glyph>
<glyph name="dcroat" format="1">
  <advance width="540"/>
  <unicode hex="0111"/>
  <outline>
    <contour>
      <point x="461" y="632" type="line"/>
      <point x="542" y="632" type="line"/>
      <point x="542" y="572" type="line"/>
      <point x="461" y="572" type="line"/>
      <point x="461" y="172" type="line" smooth="yes"/>
      <point x="461" y="121"/>
      <point x="463" y="38"/>
      <point x="471" y="-2" type="qcurve"/>
      <point x="417" y="-2" type="line"/>
      <point x="397" y="69" type="line"/>
      <point x="393" y="69" type="line"/>
      <point x="373" y="34"/>
      <point x="297" y="-12"/>
      <point x="246" y="-12" type="qcurve" smooth="yes"/>
      <point x="146" y="-12"/>
      <point x="49" y="114"/>
      <point x="49" y="248" type="qcurve" smooth="yes"/>
      <point x="49" y="376"/>
      <point x="170" y="509"/>
      <point x="276" y="509" type="qcurve" smooth="yes"/>
      <point x="313" y="509"/>
      <point x="356" y="501"/>
      <point x="381" y="492" type="qcurve"/>
      <point x="381" y="572" type="line"/>
      <point x="224" y="572" type="line"/>
      <point x="224" y="632" type="line"/>
      <point x="381" y="632" type="line"/>
      <point x="381" y="700" type="line"/>
      <point x="461" y="700" type="line"/>
    </contour>
    <contour>
      <point x="259" y="58" type="qcurve" smooth="yes"/>
      <point x="310" y="58"/>
      <point x="370" y="111"/>
      <point x="381" y="165" type="qcurve"/>
      <point x="381" y="414" type="line"/>
      <point x="363" y="428"/>
      <point x="317" y="439"/>
      <point x="279" y="439" type="qcurve" smooth="yes"/>
      <point x="210" y="439"/>
      <point x="132" y="348"/>
      <point x="132" y="248" type="qcurve" smooth="yes"/>
      <point x="132" y="207"/>
      <point x="145" y="137"/>
      <point x="160.0" y="111.5" type="qcurve" smooth="yes" name="inserted"/>
      <point x="175" y="86"/>
      <point x="224" y="58"/>
    </contour>
  </outline>
</glyph>
<glyph name="Eogonek" format="1">
  <advance width="536"/>
  <unicode hex="0118"/>
  <outline>
    <contour>
      <point x="85" y="700" type="line"/>
      <point x="466" y="700" type="line"/>
      <point x="466" y="626" type="line"/>
      <point x="168" y="626" type="line"/>
      <point x="168" y="397" type="line"/>
      <point x="441" y="397" type="line"/>
      <point x="441" y="323" type="line"/>
      <point x="168" y="323" type="line"/>
      <point x="168" y="74" type="line"/>
      <point x="471" y="74" type="line"/>
      <point x="471" y="0" type="line"/>
      <point x="435" y="0" type="line"/>
      <point x="409" y="-16"/>
      <point x="378" y="-58"/>
      <point x="378" y="-87" type="qcurve" smooth="yes"/>
      <point x="378" y="-107"/>
      <point x="404" y="-138"/>
      <point x="429" y="-138" type="qcurve" smooth="yes"/>
      <point x="438.5" y="-138.0" name="inserted"/>
      <point x="458.5" y="-133.0"/>
      <point x="469" y="-128" type="qcurve"/>
      <point x="480" y="-171" type="line"/>
      <point x="465" y="-183"/>
      <point x="415" y="-195"/>
      <point x="394" y="-195" type="qcurve" smooth="yes"/>
      <point x="349" y="-195"/>
      <point x="295" y="-147"/>
      <point x="295" y="-106" type="qcurve" smooth="yes"/>
      <point x="295" y="-71"/>
      <point x="337" y="-17"/>
      <point x="375" y="0" type="qcurve"/>
      <point x="85" y="0" type="line"/>
    </contour>
  </outline>
</glyph>
<glyph name="eogonek" format="1">
  <advance width="508"/>
  <unicode hex="0119"/>
  <outline>
    <contour>
      <point x="442" y="40" type="line"/>
      <point x="431" y="31"/>
      <point x="405" y="17"/>
      <point x="391" y="11" type="qcurve"/>
      <point x="357" y="-6"/>
      <point x="319" y="-55"/>
      <point x="318" y="-87" type="qcurve"/>
      <point x="319" y="-108"/>
      <point x="346" y="-138"/>
      <point x="371" y="-139" type="qcurve"/>
      <point x="380.5" y="-138.5" name="inserted"/>
      <point x="400.5" y="-133.5"/>
      <point x="411" y="-129" type="qcurve"/>
      <point x="422" y="-172" type="line"/>
      <point x="407" y="-184"/>
      <point x="356" y="-195"/>
      <point x="335" y="-195" type="qcurve" smooth="yes"/>
      <point x="290" y="-194"/>
      <point x="237" y="-147"/>
      <point x="236" y="-106" type="qcurve" smooth="yes"/>
      <point x="236" y="-76"/>
      <point x="266" y="-28"/>
      <point x="292" y="-11" type="qcurve"/>
      <point x="287" y="-12"/>
      <point x="275" y="-12"/>
      <point x="270" y="-12" type="qcurve" smooth="yes"/>
      <point x="213" y="-12"/>
      <point x="129" y="25"/>
      <point x="102.0" y="59.5" type="qcurve" smooth="yes" name="inserted"/>
      <point x="75" y="94"/>
      <point x="49" y="190"/>
      <point x="49" y="250" type="qcurve" smooth="yes"/>
      <point x="49" y="378"/>
      <point x="163" y="512"/>
      <point x="269" y="512" type="qcurve" smooth="yes"/>
      <point x="303" y="512"/>
      <point x="371" y="497"/>
      <point x="398.0" y="476.0" type="qcurve" smooth="yes" name="inserted"/>
      <point x="425" y="455"/>
      <point x="459" y="378"/>
      <point x="459" y="315" type="qcurve" smooth="yes"/>
      <point x="459.0" y="298.5" name="inserted"/>
      <point x="456.0" y="262.0"/>
      <point x="453" y="242" type="qcurve"/>
      <point x="132" y="242" type="line"/>
      <point x="132" y="198"/>
      <point x="150" y="130"/>
      <point x="169.0" y="106.0" type="qcurve" smooth="yes" name="inserted"/>
      <point x="188" y="82"/>
      <point x="249" y="58"/>
      <point x="293" y="58" type="qcurve" smooth="yes"/>
      <point x="327" y="58"/>
      <point x="395" y="82"/>
      <point x="412" y="98" type="qcurve"/>
    </contour>
    <contour>
      <point x="270" y="442" type="qcurve" smooth="yes"/>
      <point x="211" y="442"/>
      <point x="140" y="380"/>
      <point x="133" y="305" type="qcurve"/>
      <point x="381" y="305" type="line"/>
      <point x="381" y="381"/>
      <point x="323" y="442"/>
    </contour>
  </outline>
</glyph>
<glyph name="Iogonek" format="1">
  <advance width="291"/>
  <unicode hex="012E"/>
  <outline>
    <contour>
      <point x="104" y="700" type="line"/>
      <point x="187" y="700" type="line"/>
      <point x="187" y="0" type="line"/>
      <point x="173" y="0" type="line"/>
      <point x="147" y="-16"/>
      <point x="117" y="-59"/>
      <point x="117" y="-88" type="qcurve" smooth="yes"/>
      <point x="117" y="-108"/>
      <point x="143" y="-139"/>
      <point x="168" y="-139" type="qcurve" smooth="yes"/>
      <point x="177.5" y="-139.0" name="inserted"/>
      <point x="197.5" y="-134.0"/>
      <point x="208" y="-129" type="qcurve"/>
      <point x="219" y="-172" type="line"/>
      <point x="204" y="-184"/>
      <point x="154" y="-195"/>
      <point x="133" y="-195" type="qcurve" smooth="yes"/>
      <point x="88" y="-195"/>
      <point x="34" y="-148"/>
      <point x="34" y="-107" type="qcurve" smooth="yes"/>
      <point x="34" y="-72"/>
      <point x="76" y="-17"/>
      <point x="114" y="0" type="qcurve"/>
      <point x="104" y="0" type="line"/>
    </contour>
  </outline>
</glyph>
<glyph name="iogonek" format="1">
  <advance width="269"/>
  <unicode hex="012F"/>
  <outline>
    <contour>
      <point x="94" y="500" type="line"/>
      <point x="174" y="500" type="line"/>
      <point x="174" y="0" type="line"/>
      <point x="156" y="0" type="line"/>
      <point x="131" y="-16"/>
      <point x="102" y="-60"/>
      <point x="102" y="-88" type="qcurve" smooth="yes"/>
      <point x="102" y="-108"/>
      <point x="128" y="-139"/>
      <point x="153" y="-139" type="qcurve" smooth="yes"/>
      <point x="162.5" y="-139.0" name="inserted"/>
      <point x="182.5" y="-134.0"/>
      <point x="193" y="-129" type="qcurve"/>
      <point x="204" y="-172" type="line"/>
      <point x="189" y="-184"/>
      <point x="139" y="-195"/>
      <point x="117" y="-195" type="qcurve" smooth="yes"/>
      <point x="72" y="-195"/>
      <point x="19" y="-148"/>
      <point x="19" y="-107" type="qcurve" smooth="yes"/>
      <point x="19" y="-72"/>
      <point x="61" y="-17"/>
      <point x="99" y="0" type="qcurve"/>
      <point x="94" y="0" type="line"/>
    </contour>
    <contour>
      <point x="77" y="652" type="qcurve" smooth="yes"/>
      <point x="77" y="675"/>
      <point x="108" y="708"/>
      <point x="132" y="708" type="qcurve" smooth="yes"/>
      <point x="156" y="708"/>
      <point x="190" y="675"/>
      <point x="190" y="652" type="qcurve" smooth="yes"/>
      <point x="190" y="629"/>
      <point x="156" y="599"/>
      <point x="132" y="599" type="qcurve" smooth="yes"/>
      <point x="108" y="599"/>
      <point x="77" y="629"/>
    </contour>
  </outline>
</glyph>
<glyph name="OE" format="1">
  <advance width="932"/>
  <unicode hex="0152"/>
  <outline>
    <contour>
      <point x="481" y="618" type="line"/>
      <point x="453" y="629"/>
      <point x="379" y="638"/>
      <point x="341" y="638" type="qcurve" smooth="yes"/>
      <point x="249" y="638"/>
      <point x="144" y="497"/>
      <point x="144" y="350" type="qcurve" smooth="yes"/>
      <point x="144" y="292"/>
      <point x="167" y="188"/>
      <point x="192.0" y="148.5" type="qcurve" smooth="yes" name="inserted"/>
      <point x="217" y="109"/>
      <point x="295" y="62"/>
      <point x="349" y="62" type="qcurve" smooth="yes"/>
      <point x="378" y="62"/>
      <point x="439" y="66"/>
      <point x="481" y="79" type="qcurve"/>
    </contour>
    <contour>
      <point x="481" y="0" type="line"/>
      <point x="456" y="-5"/>
      <point x="386" y="-12"/>
      <point x="341" y="-12" type="qcurve" smooth="yes"/>
      <point x="268" y="-12"/>
      <point x="161" y="40"/>
      <point x="125.5" y="87.5" type="qcurve" smooth="yes" name="inserted"/>
      <point x="90" y="135"/>
      <point x="56" y="268"/>
      <point x="56" y="350" type="qcurve" smooth="yes"/>
      <point x="56" y="525"/>
      <point x="204" y="712"/>
      <point x="341" y="712" type="qcurve" smooth="yes"/>
      <point x="388" y="712"/>
      <point x="449" y="705"/>
      <point x="481" y="700" type="qcurve"/>
      <point x="862" y="700" type="line"/>
      <point x="862" y="626" type="line"/>
      <point x="564" y="626" type="line"/>
      <point x="564" y="397" type="line"/>
      <point x="837" y="397" type="line"/>
      <point x="837" y="323" type="line"/>
      <point x="564" y="323" type="line"/>
      <point x="564" y="74" type="line"/>
      <point x="867" y="74" type="line"/>
      <point x="867" y="0" type="line"/>
    </contour>
  </outline>
</glyph>
<glyph name="oe" format="1">
  <advance width="858"/>
  <unicode hex="0153"/>
  <outline>
    <contour>
      <point x="132" y="250" type="qcurve" smooth="yes"/>
      <point x="132" y="212"/>
      <point x="147" y="142"/>
      <point x="163.0" y="115.5" type="qcurve" smooth="yes" name="inserted"/>
      <point x="179" y="89"/>
      <point x="231" y="58"/>
      <point x="268" y="58" type="qcurve" smooth="yes"/>
      <point x="335.5" y="57.5" name="inserted"/>
      <point x="403.0" y="153.5"/>
      <point x="403" y="250" type="qcurve" smooth="yes"/>
      <point x="403" y="289"/>
      <point x="389" y="359"/>
      <point x="373.0" y="385.0" type="qcurve" smooth="yes" name="inserted"/>
      <point x="357" y="411"/>
      <point x="305" y="442"/>
      <point x="268" y="442" type="qcurve" smooth="yes"/>
      <point x="200.0" y="442.5" name="inserted"/>
      <point x="132.0" y="346.5"/>
    </contour>
    <contour>
      <point x="442" y="81" type="qcurve"/>
      <point x="415" y="36"/>
      <point x="328" y="-12"/>
      <point x="268" y="-12" type="qcurve" smooth="yes"/>
      <point x="212" y="-12"/>
      <point x="129" y="25"/>
      <point x="102.0" y="59.5" type="qcurve" smooth="yes" name="inserted"/>
      <point x="75" y="94"/>
      <point x="49" y="191"/>
      <point x="49" y="250" type="qcurve" smooth="yes"/>
      <point x="49" y="377"/>
      <point x="162" y="512"/>
      <point x="268" y="512" type="qcurve" smooth="yes"/>
      <point x="331" y="512"/>
      <point x="418" y="460"/>
      <point x="444" y="420" type="qcurve"/>
      <point x="470" y="462"/>
      <point x="559" y="512"/>
      <point x="619" y="512" type="qcurve" smooth="yes"/>
      <point x="653" y="512"/>
      <point x="721" y="497"/>
      <point x="748.0" y="476.0" type="qcurve" smooth="yes" name="inserted"/>
      <point x="775" y="455"/>
      <point x="809" y="378"/>
      <point x="809" y="315" type="qcurve" smooth="yes"/>
      <point x="809" y="298"/>
      <point x="807" y="262"/>
      <point x="804" y="242" type="qcurve"/>
      <point x="481" y="242" type="line"/>
      <point x="481" y="198"/>
      <point x="499" y="129"/>
      <point x="518.0" y="105.0" type="qcurve" smooth="yes" name="inserted"/>
      <point x="537" y="81"/>
      <point x="599" y="57"/>
      <point x="643" y="57" type="qcurve" smooth="yes"/>
      <point x="678" y="57"/>
      <point x="745" y="82"/>
      <point x="762" y="98" type="qcurve"/>
      <point x="792" y="40" type="line"/>
      <point x="762" y="16"/>
      <point x="671" y="-12"/>
      <point x="620" y="-12" type="qcurve" smooth="yes"/>
      <point x="558" y="-12"/>
      <point x="468" y="38"/>
    </contour>
    <contour>
      <point x="620" y="443" type="qcurve" smooth="yes"/>
      <point x="562" y="443"/>
      <point x="490" y="380"/>
      <point x="483" y="305" type="qcurve"/>
      <point x="731" y="305" type="line"/>
      <point x="731" y="314" type="line" smooth="yes"/>
      <point x="731" y="383"/>
      <point x="671" y="443"/>
    </contour>
  </outline>
</glyph>
<glyph name="Scedilla" format="1">
  <advance width="531"/>
  <unicode hex="015E"/>
  <outline>
    <contour>
      <point x="401" y="178" type="qcurve" smooth="yes"/>
      <point x="401" y="220"/>
      <point x="351" y="273"/>
      <point x="313.5" y="293.5" type="qcurve" smooth="yes" name="inserted"/>
      <point x="276" y="314"/>
      <point x="188" y="350"/>
      <point x="150.5" y="375.5" type="qcurve" smooth="yes" name="inserted"/>
      <point x="113" y="401"/>
      <point x="63" y="476"/>
      <point x="63" y="534" type="qcurve" smooth="yes"/>
      <point x="63" y="616"/>
      <point x="177" y="712"/>
      <point x="282" y="712" type="qcurve" smooth="yes"/>
      <point x="343" y="712"/>
      <point x="443" y="694"/>
      <point x="471" y="680" type="qcurve"/>
      <point x="446" y="607" type="line"/>
      <point x="423" y="618"/>
      <point x="334" y="638"/>
      <point x="278" y="638" type="qcurve" smooth="yes"/>
      <point x="212" y="638"/>
      <point x="146" y="579"/>
      <point x="146" y="539" type="qcurve" smooth="yes"/>
      <point x="146" y="500"/>
      <point x="196" y="448"/>
      <point x="233.5" y="427.5" type="qcurve" smooth="yes" name="inserted"/>
      <point x="271" y="407"/>
      <point x="359" y="367"/>
      <point x="396.5" y="340.5" type="qcurve" smooth="yes" name="inserted"/>
      <point x="434" y="314"/>
      <point x="484" y="240"/>
      <point x="484" y="185" type="qcurve" smooth="yes"/>
      <point x="484" y="106"/>
      <point x="386" y="4"/>
      <point x="298" y="-8" type="qcurve"/>
      <point x="279" y="-43" type="line"/>
      <point x="321" y="-51"/>
      <point x="358" y="-87"/>
      <point x="358" y="-118" type="qcurve" smooth="yes"/>
      <point x="358" y="-157"/>
      <point x="294" y="-208"/>
      <point x="236" y="-208" type="qcurve" smooth="yes"/>
      <point x="225" y="-208"/>
      <point x="203" y="-206"/>
      <point x="191" y="-204" type="qcurve"/>
      <point x="200" y="-165" type="line"/>
      <point x="206" y="-166"/>
      <point x="216" y="-166"/>
      <point x="221" y="-166" type="qcurve" smooth="yes"/>
      <point x="243" y="-166"/>
      <point x="268" y="-158"/>
      <point x="274.5" y="-152.5" type="qcurve" smooth="yes" name="inserted"/>
      <point x="281" y="-147"/>
      <point x="284" y="-133"/>
      <point x="284" y="-127" type="qcurve" smooth="yes"/>
      <point x="284.0" y="-113.0" name="inserted"/>
      <point x="241.0" y="-94.5"/>
      <point x="198" y="-90" type="qcurve"/>
      <point x="239" y="-12" type="line"/>
      <point x="167" y="-11"/>
      <point x="72" y="11"/>
      <point x="46" y="25" type="qcurve"/>
      <point x="74" y="100" type="line"/>
      <point x="97" y="87"/>
      <point x="187" y="62"/>
      <point x="243" y="62" type="qcurve" smooth="yes"/>
      <point x="276" y="62"/>
      <point x="334" y="75"/>
      <point x="355.0" y="89.5" type="qcurve" smooth="yes" name="inserted"/>
      <point x="376" y="104"/>
      <point x="401" y="148"/>
    </contour>
  </outline>
</glyph>
<glyph name="scedilla" format="1">
  <advance width="421"/>
  <unicode hex="015F"/>
  <outline>
    <contour>
      <point x="297" y="136" type="qcurve" smooth="yes"/>
      <point x="297" y="166"/>
      <point x="261" y="200"/>
      <point x="234.5" y="211.5" type="qcurve" smooth="yes" name="inserted"/>
      <point x="208" y="223"/>
      <point x="145" y="244"/>
      <point x="118.5" y="260.5" type="qcurve" smooth="yes" name="inserted"/>
      <point x="92" y="277"/>
      <point x="56" y="329"/>
      <point x="56" y="373" type="qcurve" smooth="yes"/>
      <point x="56" y="445"/>
      <point x="138" y="512"/>
      <point x="211" y="512" type="qcurve" smooth="yes"/>
      <point x="265" y="512"/>
      <point x="338" y="493"/>
      <point x="365" y="480" type="qcurve"/>
      <point x="346" y="415" type="line"/>
      <point x="323" y="426"/>
      <point x="258" y="442"/>
      <point x="221" y="442" type="qcurve" smooth="yes"/>
      <point x="177" y="442"/>
      <point x="136" y="412"/>
      <point x="136" y="375" type="qcurve" smooth="yes"/>
      <point x="136" y="349"/>
      <point x="172" y="320"/>
      <point x="198.5" y="308.5" type="qcurve" smooth="yes" name="inserted"/>
      <point x="225" y="297"/>
      <point x="288" y="275"/>
      <point x="314.5" y="257.0" type="qcurve" smooth="yes" name="inserted"/>
      <point x="341" y="239"/>
      <point x="377" y="184"/>
      <point x="377" y="139" type="qcurve" smooth="yes"/>
      <point x="377" y="80"/>
      <point x="307" y="-2"/>
      <point x="235" y="-10" type="qcurve"/>
      <point x="217" y="-43" type="line"/>
      <point x="259" y="-51"/>
      <point x="296" y="-87"/>
      <point x="296" y="-118" type="qcurve" smooth="yes"/>
      <point x="296" y="-157"/>
      <point x="232" y="-208"/>
      <point x="174" y="-208" type="qcurve" smooth="yes"/>
      <point x="163" y="-208"/>
      <point x="141" y="-206"/>
      <point x="129" y="-204" type="qcurve"/>
      <point x="138" y="-165" type="line"/>
      <point x="144" y="-166"/>
      <point x="154" y="-166"/>
      <point x="159" y="-166" type="qcurve" smooth="yes"/>
      <point x="181" y="-166"/>
      <point x="206" y="-158"/>
      <point x="212.5" y="-152.5" type="qcurve" smooth="yes" name="inserted"/>
      <point x="219" y="-147"/>
      <point x="222" y="-133"/>
      <point x="222" y="-127" type="qcurve" smooth="yes"/>
      <point x="222.0" y="-113.0" name="inserted"/>
      <point x="179.0" y="-94.5"/>
      <point x="136" y="-90" type="qcurve"/>
      <point x="178" y="-11" type="line"/>
      <point x="131" y="-9"/>
      <point x="63" y="11"/>
      <point x="39" y="25" type="qcurve"/>
      <point x="63" y="92" type="line"/>
      <point x="86" y="80"/>
      <point x="160" y="59"/>
      <point x="198" y="59" type="qcurve" smooth="yes"/>
      <point x="241" y="59"/>
      <point x="297" y="92"/>
    </contour>
  </outline>
</glyph>
<glyph name="Tcedilla" format="1">
  <advance width="555"/>
  <unicode hex="0162"/>
  <outline>
    <contour>
      <point x="236" y="0" type="line"/>
      <point x="236" y="626" type="line"/>
      <point x="18" y="626" type="line"/>
      <point x="18" y="700" type="line"/>
      <point x="537" y="700" type="line"/>
      <point x="537" y="626" type="line"/>
      <point x="319" y="626" type="line"/>
      <point x="319" y="0" type="line"/>
      <point x="307" y="0" type="line"/>
      <point x="283" y="-43" type="line"/>
      <point x="325" y="-51"/>
      <point x="362" y="-87"/>
      <point x="362" y="-118" type="qcurve" smooth="yes"/>
      <point x="362" y="-157"/>
      <point x="298" y="-208"/>
      <point x="240" y="-208" type="qcurve" smooth="yes"/>
      <point x="229" y="-208"/>
      <point x="207" y="-206"/>
      <point x="195" y="-204" type="qcurve"/>
      <point x="204" y="-165" type="line"/>
      <point x="210" y="-166"/>
      <point x="220" y="-166"/>
      <point x="225" y="-166" type="qcurve" smooth="yes"/>
      <point x="247" y="-166"/>
      <point x="272" y="-158"/>
      <point x="278.5" y="-152.5" type="qcurve" smooth="yes" name="inserted"/>
      <point x="285" y="-147"/>
      <point x="288" y="-133"/>
      <point x="288" y="-127" type="qcurve" smooth="yes"/>
      <point x="288.0" y="-113.0" name="inserted"/>
      <point x="245.0" y="-94.5"/>
      <point x="202" y="-90" type="qcurve"/>
      <point x="250" y="0" type="line"/>
    </contour>
  </outline>
</glyph>
<glyph name="tcedilla" format="1">
  <advance width="339"/>
  <unicode hex="0163"/>
  <outline>
    <contour>
      <point x="11" y="500" type="line"/>
      <point x="89" y="500" type="line"/>
      <point x="89" y="599" type="line"/>
      <point x="169" y="622" type="line"/>
      <point x="169" y="500" type="line"/>
      <point x="305" y="500" type="line"/>
      <point x="305" y="430" type="line"/>
      <point x="169" y="430" type="line"/>
      <point x="169" y="153" type="line" smooth="yes"/>
      <point x="169" y="101"/>
      <point x="195" y="58"/>
      <point x="226" y="58" type="qcurve" smooth="yes"/>
      <point x="252" y="58"/>
      <point x="288" y="68"/>
      <point x="310" y="77" type="qcurve"/>
      <point x="328" y="17" type="line"/>
      <point x="305" y="6"/>
      <point x="255" y="-9"/>
      <point x="226" y="-12" type="qcurve"/>
      <point x="209" y="-43" type="line"/>
      <point x="251" y="-51"/>
      <point x="288" y="-87"/>
      <point x="288" y="-118" type="qcurve" smooth="yes"/>
      <point x="288" y="-157"/>
      <point x="224" y="-208"/>
      <point x="166" y="-208" type="qcurve" smooth="yes"/>
      <point x="155" y="-208"/>
      <point x="133" y="-206"/>
      <point x="121" y="-204" type="qcurve"/>
      <point x="130" y="-165" type="line"/>
      <point x="136" y="-166"/>
      <point x="146" y="-166"/>
      <point x="151" y="-166" type="qcurve" smooth="yes"/>
      <point x="173" y="-166"/>
      <point x="198" y="-158"/>
      <point x="204.5" y="-152.5" type="qcurve" smooth="yes" name="inserted"/>
      <point x="211" y="-147"/>
      <point x="214" y="-133"/>
      <point x="214" y="-127" type="qcurve" smooth="yes"/>
      <point x="214.0" y="-113.0" name="inserted"/>
      <point x="171.0" y="-94.5"/>
      <point x="128" y="-90" type="qcurve"/>
      <point x="170" y="-10" type="line"/>
      <point x="125" y="-2"/>
      <point x="89" y="68"/>
      <point x="89" y="138" type="qcurve" smooth="yes"/>
      <point x="89" y="430" type="line"/>
      <point x="11" y="430" type="line"/>
    </contour>
  </outline>
</glyph>
<glyph name="Uogonek" format="1">
  <advance width="652"/>
  <unicode hex="0172"/>
  <outline>
    <contour>
      <point x="487" y="700" type="line"/>
      <point x="567" y="700" type="line"/>
      <point x="567" y="233" type="line"/>
      <point x="565" y="136"/>
      <point x="493" y="25"/>
      <point x="428" y="4" type="qcurve"/>
      <point x="398" y="-12"/>
      <point x="366" y="-58"/>
      <point x="366" y="-87" type="qcurve" smooth="yes"/>
      <point x="367" y="-108"/>
      <point x="393" y="-137"/>
      <point x="417" y="-138" type="qcurve" smooth="yes"/>
      <point x="427.5" y="-138.0" name="inserted"/>
      <point x="448.0" y="-133.5"/>
      <point x="458" y="-129" type="qcurve"/>
      <point x="469" y="-172" type="line"/>
      <point x="455" y="-183"/>
      <point x="407" y="-195"/>
      <point x="384" y="-195" type="qcurve" smooth="yes"/>
      <point x="339" y="-195"/>
      <point x="284" y="-147"/>
      <point x="284" y="-106" type="qcurve" smooth="yes"/>
      <point x="284" y="-76"/>
      <point x="316" y="-26"/>
      <point x="344" y="-9" type="qcurve"/>
      <point x="335" y="-9" type="line" smooth="yes"/>
      <point x="211" y="-9"/>
      <point x="85" y="103"/>
      <point x="85" y="217" type="qcurve" smooth="yes"/>
      <point x="85" y="700" type="line"/>
      <point x="168" y="700" type="line"/>
      <point x="168" y="256" type="line" smooth="yes"/>
      <point x="168" y="203"/>
      <point x="189" y="130"/>
      <point x="210.0" y="107.5" type="qcurve" smooth="yes" name="inserted"/>
      <point x="231" y="85"/>
      <point x="294" y="65"/>
      <point x="336" y="65" type="qcurve" smooth="yes"/>
      <point x="416" y="65"/>
      <point x="486" y="154"/>
      <point x="487" y="256" type="qcurve" smooth="yes"/>
    </contour>
  </outline>
</glyph>
<glyph name="florin" format="1">
  <advance width="545"/>
  <unicode hex="0192"/>
  <outline>
    <contour>
      <point x="316" y="430" type="line"/>
      <point x="237" y="-34" type="line" smooth="yes"/>
      <point x="231" y="-71"/>
      <point x="209" y="-134"/>
      <point x="190.5" y="-157.5" type="qcurve" smooth="yes" name="inserted"/>
      <point x="172" y="-181"/>
      <point x="118" y="-208"/>
      <point x="81" y="-208" type="qcurve" smooth="yes"/>
      <point x="52" y="-208"/>
      <point x="-10" y="-194"/>
      <point x="-34" y="-184" type="qcurve"/>
      <point x="-13" y="-118" type="line"/>
      <point x="10" y="-128"/>
      <point x="51" y="-138"/>
      <point x="75" y="-138" type="qcurve" smooth="yes"/>
      <point x="113" y="-138"/>
      <point x="152" y="-71"/>
      <point x="165" y="8" type="qcurve" smooth="yes"/>
      <point x="233" y="430" type="line"/>
      <point x="148" y="430" type="line"/>
      <point x="148" y="500" type="line"/>
      <point x="244" y="500" type="line"/>
      <point x="255" y="567" type="line" smooth="yes"/>
      <point x="267" y="641"/>
      <point x="330" y="712"/>
      <point x="402" y="712" type="qcurve" smooth="yes"/>
      <point x="435" y="712"/>
      <point x="498" y="698"/>
      <point x="523" y="687" type="qcurve"/>
      <point x="500" y="622" type="line"/>
      <point x="476.0" y="632.0" name="inserted"/>
      <point x="430.0" y="642.0"/>
      <point x="408" y="642" type="qcurve" smooth="yes"/>
      <point x="389" y="642"/>
      <point x="365" y="631"/>
      <point x="357.0" y="619.5" type="qcurve" smooth="yes" name="inserted"/>
      <point x="349" y="608"/>
      <point x="338" y="569"/>
      <point x="334" y="541" type="qcurve" smooth="yes"/>
      <point x="327" y="500" type="line"/>
      <point x="447" y="500" type="line"/>
      <point x="447" y="430" type="line"/>
    </contour>
  </outline>
</glyph>
<glyph name="breve" format="1">
  <advance width="425"/>
  <unicode hex="02D8"/>
  <outline>
    <contour>
      <point x="105" y="720" type="line"/>
      <point x="123" y="684"/>
      <point x="183" y="643"/>
      <point x="217" y="643" type="qcurve" smooth="yes"/>
      <point x="251" y="643"/>
      <point x="306" y="683"/>
      <point x="323" y="720" type="qcurve"/>
      <point x="365" y="702" type="line"/>
      <point x="362" y="678"/>
      <point x="337" y="631"/>
      <point x="317.5" y="613.0" type="qcurve" smooth="yes" name="inserted"/>
      <point x="298" y="595"/>
      <point x="246" y="573"/>
      <point x="216" y="573" type="qcurve" smooth="yes"/>
      <point x="188" y="573"/>
      <point x="138" y="590"/>
      <point x="117.5" y="606.5" type="qcurve" smooth="yes" name="inserted"/>
      <point x="97" y="623"/>
      <point x="67" y="668"/>
      <point x="60" y="697" type="qcurve"/>
    </contour>
  </outline>
</glyph>
<glyph name="ring" format="1">
  <advance width="315"/>
  <unicode hex="02DA"/>
  <outline>
    <contour>
      <point x="60" y="643" type="qcurve" smooth="yes"/>
      <point x="60" y="685"/>
      <point x="113" y="734"/>
      <point x="157" y="734" type="qcurve" smooth="yes"/>
      <point x="199" y="734"/>
      <point x="255" y="690"/>
      <point x="255" y="643" type="qcurve" smooth="yes"/>
      <point x="255" y="604"/>
      <point x="199" y="553"/>
      <point x="157" y="553" type="qcurve" smooth="yes"/>
      <point x="115" y="553"/>
      <point x="60" y="600"/>
    </contour>
    <contour>
      <point x="114" y="643" type="qcurve" smooth="yes"/>
      <point x="114" y="623"/>
      <point x="140" y="601"/>
      <point x="157" y="601" type="qcurve" smooth="yes"/>
      <point x="176" y="601"/>
      <point x="201" y="621"/>
      <point x="201" y="643" type="qcurve" smooth="yes"/>
      <point x="201" y="665"/>
      <point x="174" y="686"/>
      <point x="157" y="686" type="qcurve" smooth="yes"/>
      <point x="140" y="686"/>
      <point x="114" y="666"/>
    </contour>
  </outline>
</glyph>
<glyph name="tilde" format="1">
  <advance width="399"/>
  <unicode hex="02DC"/>
  <outline>
    <contour>
      <point x="60" y="656" type="line"/>
      <point x="89" y="689"/>
      <point x="137" y="714"/>
      <point x="157" y="714" type="qcurve" smooth="yes"/>
      <point x="174" y="714"/>
      <point x="203" y="701"/>
      <point x="216.5" y="693.5" type="qcurve" smooth="yes" name="inserted"/>
      <point x="230" y="686"/>
      <point x="255" y="674"/>
      <point x="269" y="674" type="qcurve" smooth="yes"/>
      <point x="280.0" y="674.0" name="inserted"/>
      <point x="303.0" y="686.0"/>
      <point x="315" y="698" type="qcurve"/>
      <point x="339" y="655" type="line"/>
      <point x="313" y="626"/>
      <point x="270" y="605"/>
      <point x="252" y="605" type="qcurve" smooth="yes"/>
      <point x="236" y="605"/>
      <point x="208" y="617"/>
      <point x="194.5" y="624.5" type="qcurve" smooth="yes" name="inserted"/>
      <point x="181" y="632"/>
      <point x="154" y="645"/>
      <point x="140" y="645" type="qcurve" smooth="yes"/>
      <point x="127" y="645"/>
      <point x="100" y="631"/>
      <point x="83" y="614" type="qcurve"/>
    </contour>
  </outline>
</glyph>
<glyph name="hungarumlaut" format="1">
  <advance width="387"/>
  <unicode hex="02DD"/>
  <outline>
    <contour>
      <point x="95" y="700" type="line"/>
      <point x="173" y="700" type="line"/>
      <point x="173" y="684" type="line"/>
      <point x="102" y="571" type="line"/>
      <point x="60" y="571" type="line"/>
    </contour>
    <contour>
      <point x="241" y="700" type="line"/>
      <point x="327" y="700" type="line"/>
      <point x="327" y="684" type="line"/>
      <point x="213" y="571" type="line"/>
      <point x="168" y="571" type="line"/>
    </contour>
  </outline>
</glyph>
<glyph name="uni0394" format="1">
  <advance width="568"/>
  <unicode hex="0394"/>
  <outline>
    <contour>
      <point x="14" y="0" type="line"/>
      <point x="14" y="37" type="line"/>
      <point x="268" y="711" type="line"/>
      <point x="302" y="711" type="line"/>
      <point x="558" y="37" type="line"/>
      <point x="558" y="0" type="line"/>
    </contour>
    <contour>
      <point x="106" y="72" type="line"/>
      <point x="461" y="72" type="line"/>
      <point x="306" y="475" type="line"/>
      <point x="282" y="580" type="line"/>
      <point x="281" y="580" type="line"/>
      <point x="253" y="473" type="line"/>
    </contour>
  </outline>
</glyph>
<glyph name="mu" format="1">
  <advance width="552"/>
  <unicode hex="03BC"/>
  <outline>
    <contour>
      <point x="148" y="500" type="line"/>
      <point x="148" y="217" type="line" smooth="yes"/>
      <point x="148" y="138"/>
      <point x="197" y="58"/>
      <point x="258" y="58" type="qcurve" smooth="yes"/>
      <point x="313" y="58"/>
      <point x="389" y="123"/>
      <point x="404" y="176" type="qcurve"/>
      <point x="404" y="500" type="line"/>
      <point x="484" y="500" type="line"/>
      <point x="484" y="163" type="line" smooth="yes"/>
      <point x="484" y="122"/>
      <point x="489" y="39"/>
      <point x="499" y="0" type="qcurve"/>
      <point x="444" y="0" type="line"/>
      <point x="416" y="74" type="line"/>
      <point x="412" y="74" type="line"/>
      <point x="392" y="39"/>
      <point x="309" y="-12"/>
      <point x="249" y="-12" type="qcurve" smooth="yes"/>
      <point x="201" y="-12"/>
      <point x="150" y="16"/>
      <point x="132" y="38" type="qcurve"/>
      <point x="127" y="38" type="line"/>
      <point x="148" y="-67" type="line"/>
      <point x="148" y="-200" type="line"/>
      <point x="68" y="-200" type="line"/>
      <point x="68" y="500" type="line"/>
    </contour>
  </outline>
</glyph>
<glyph name="afii10051" format="1">
  <advance width="728"/>
  <unicode hex="0402"/>
  <outline>
    <contour>
      <point x="319" y="0" type="line"/>
      <point x="236" y="0" type="line"/>
      <point x="236" y="626" type="line"/>
      <point x="18" y="626" type="line"/>
      <point x="18" y="700" type="line"/>
      <point x="537" y="700" type="line"/>
      <point x="537" y="626" type="line"/>
      <point x="319" y="626" type="line"/>
      <point x="319" y="415" type="line"/>
      <point x="331" y="419"/>
      <point x="402" y="436"/>
      <point x="458" y="436" type="qcurve" smooth="yes"/>
      <point x="498" y="436"/>
      <point x="575" y="417"/>
      <point x="605.0" y="393.0" type="qcurve" smooth="yes" name="inserted"/>
      <point x="635" y="369"/>
      <point x="672" y="288"/>
      <point x="672" y="226" type="qcurve" smooth="yes"/>
      <point x="672" y="106"/>
      <point x="550" y="-8"/>
      <point x="439" y="-8" type="qcurve" smooth="yes"/>
      <point x="406" y="-8"/>
      <point x="377" y="-7"/>
      <point x="369" y="-5" type="qcurve"/>
      <point x="369" y="67" type="line"/>
      <point x="382" y="65"/>
      <point x="413" y="64"/>
      <point x="442" y="64" type="qcurve" smooth="yes"/>
      <point x="513.0" y="64.0" name="inserted"/>
      <point x="584.0" y="142.0"/>
      <point x="584" y="220" type="qcurve" smooth="yes"/>
      <point x="584" y="262"/>
      <point x="560" y="318"/>
      <point x="539.5" y="334.5" type="qcurve" smooth="yes" name="inserted"/>
      <point x="519" y="351"/>
      <point x="464" y="364"/>
      <point x="432" y="364" type="qcurve" smooth="yes"/>
      <point x="414" y="364"/>
      <point x="379" y="359"/>
      <point x="363.5" y="355.5" type="qcurve" smooth="yes" name="inserted"/>
      <point x="348" y="352"/>
      <point x="325" y="344"/>
      <point x="319" y="342" type="qcurve"/>
    </contour>
  </outline>
</glyph>
<glyph name="afii10056" format="1">
  <advance width="293"/>
  <unicode hex="0407"/>
  <outline>
    <contour>
      <point x="32" y="793" type="qcurve" smooth="yes"/>
      <point x="32" y="815"/>
      <point x="61" y="841"/>
      <point x="83" y="841" type="qcurve" smooth="yes"/>
      <point x="104" y="841"/>
      <point x="133" y="815"/>
      <point x="133" y="793" type="qcurve" smooth="yes"/>
      <point x="133" y="771"/>
      <point x="104" y="746"/>
      <point x="83" y="746" type="qcurve" smooth="yes"/>
      <point x="61" y="746"/>
      <point x="32" y="771"/>
    </contour>
    <contour>
      <point x="161" y="793" type="qcurve" smooth="yes"/>
      <point x="161" y="815"/>
      <point x="190" y="841"/>
      <point x="211" y="841" type="qcurve" smooth="yes"/>
      <point x="233" y="841"/>
      <point x="262" y="815"/>
      <point x="262" y="793" type="qcurve" smooth="yes"/>
      <point x="262" y="771"/>
      <point x="233" y="746"/>
      <point x="211" y="746" type="qcurve" smooth="yes"/>
      <point x="190" y="746"/>
      <point x="161" y="771"/>
    </contour>
    <contour>
      <point x="105" y="700" type="line"/>
      <point x="188" y="700" type="line"/>
      <point x="188" y="0" type="line"/>
      <point x="105" y="0" type="line"/>
    </contour>
  </outline>
</glyph>
<glyph name="afii10059" format="1">
  <advance width="974"/>
  <unicode hex="040A"/>
  <outline>
    <contour>
      <point x="504" y="336" type="line"/>
      <point x="168" y="336" type="line"/>
      <point x="168" y="0" type="line"/>
      <point x="85" y="0" type="line"/>
      <point x="85" y="700" type="line"/>
      <point x="168" y="700" type="line"/>
      <point x="168" y="410" type="line"/>
      <point x="504" y="410" type="line"/>
      <point x="504" y="700" type="line"/>
      <point x="587" y="700" type="line"/>
      <point x="587" y="409" type="line"/>
      <point x="592" y="410"/>
      <point x="616" y="413"/>
      <point x="630.5" y="414.0" type="qcurve" smooth="yes" name="inserted"/>
      <point x="645" y="415"/>
      <point x="675" y="417"/>
      <point x="687" y="417" type="qcurve" smooth="yes"/>
      <point x="734" y="417"/>
      <point x="825" y="401"/>
      <point x="860.5" y="379.0" type="qcurve" smooth="yes" name="inserted"/>
      <point x="896" y="357"/>
      <point x="940" y="279"/>
      <point x="940" y="217" type="qcurve" smooth="yes"/>
      <point x="940" y="157"/>
      <point x="898" y="71"/>
      <point x="861.0" y="44.0" type="qcurve" smooth="yes" name="inserted"/>
      <point x="824" y="17"/>
      <point x="725" y="-8"/>
      <point x="667" y="-8" type="qcurve" smooth="yes"/>
      <point x="653" y="-8"/>
      <point x="613" y="-7"/>
      <point x="590.5" y="-5.5" type="qcurve" smooth="yes" name="inserted"/>
      <point x="568" y="-4"/>
      <point x="523" y="2"/>
      <point x="504" y="6" type="qcurve"/>
    </contour>
    <contour>
      <point x="678" y="64" type="qcurve" smooth="yes"/>
      <point x="714" y="64"/>
      <point x="778" y="80"/>
      <point x="801.5" y="98.0" type="qcurve" smooth="yes" name="inserted"/>
      <point x="825" y="116"/>
      <point x="852" y="171"/>
      <point x="852" y="210" type="qcurve" smooth="yes"/>
      <point x="852" y="252"/>
      <point x="823" y="305"/>
      <point x="798.5" y="320.0" type="qcurve" smooth="yes" name="inserted"/>
      <point x="774" y="335"/>
      <point x="710" y="345"/>
      <point x="675" y="345" type="qcurve" smooth="yes"/>
      <point x="666" y="345"/>
      <point x="640" y="343"/>
      <point x="627.0" y="342.0" type="qcurve" smooth="yes" name="inserted"/>
      <point x="614" y="341"/>
      <point x="592" y="337"/>
      <point x="587" y="336" type="qcurve"/>
      <point x="587" y="70" type="line"/>
      <point x="601" y="67"/>
      <point x="653" y="64"/>
    </contour>
  </outline>
</glyph>
<glyph name="afii10018" format="1">
  <advance width="550"/>
  <unicode hex="0411"/>
  <outline>
    <contour>
      <point x="85" y="700" type="line"/>
      <point x="465" y="700" type="line"/>
      <point x="465" y="626" type="line"/>
      <point x="168" y="626" type="line"/>
      <point x="168" y="416" type="line"/>
      <point x="185" y="419"/>
      <point x="235" y="425"/>
      <point x="258" y="425" type="qcurve" smooth="yes"/>
      <point x="309" y="425"/>
      <point x="401" y="406"/>
      <point x="436.0" y="383.0" type="qcurve" smooth="yes" name="inserted"/>
      <point x="471" y="360"/>
      <point x="512" y="281"/>
      <point x="512" y="221" type="qcurve" smooth="yes"/>
      <point x="512" y="161"/>
      <point x="470" y="74"/>
      <point x="435.0" y="46.5" type="qcurve" smooth="yes" name="inserted"/>
      <point x="400" y="19"/>
      <point x="307" y="-8"/>
      <point x="256" y="-8" type="qcurve" smooth="yes"/>
      <point x="239" y="-8"/>
      <point x="196" y="-7"/>
      <point x="172.5" y="-5.0" type="qcurve" smooth="yes" name="inserted"/>
      <point x="149" y="-3"/>
      <point x="104" y="2"/>
      <point x="85" y="7" type="qcurve"/>
    </contour>
    <contour>
      <point x="266" y="64" type="qcurve" smooth="yes"/>
      <point x="298" y="64"/>
      <point x="356" y="82"/>
      <point x="377.5" y="99.5" type="qcurve" smooth="yes" name="inserted"/>
      <point x="399" y="117"/>
      <point x="424" y="171"/>
      <point x="424" y="207" type="qcurve" smooth="yes"/>
      <point x="424" y="253"/>
      <point x="395" y="310"/>
      <point x="371.0" y="326.0" type="qcurve" smooth="yes" name="inserted"/>
      <point x="347" y="342"/>
      <point x="284" y="353"/>
      <point x="250" y="353" type="qcurve" smooth="yes"/>
      <point x="241" y="353"/>
      <point x="217" y="351"/>
      <point x="205.0" y="350.0" type="qcurve" smooth="yes" name="inserted"/>
      <point x="193" y="349"/>
      <point x="173" y="346"/>
      <point x="168" y="345" type="qcurve"/>
      <point x="168" y="70" type="line"/>
      <point x="175" y="68"/>
      <point x="198" y="66"/>
      <point x="211.5" y="65.0" type="qcurve" smooth="yes" name="inserted"/>
      <point x="225" y="64"/>
      <point x="253" y="64"/>
    </contour>
  </outline>
</glyph>
<glyph name="afii10020" format="1">
  <advance width="442"/>
  <unicode hex="0413"/>
  <outline>
    <contour>
      <point x="460" y="626" type="line"/>
      <point x="168" y="626" type="line"/>
      <point x="168" y="0" type="line"/>
      <point x="85" y="0" type="line"/>
      <point x="85" y="700" type="line"/>
      <point x="460" y="700" type="line"/>
    </contour>
  </outline>
</glyph>
<glyph name="afii10024" format="1">
  <advance width="806"/>
  <unicode hex="0416"/>
  <outline>
    <contour>
      <point x="358" y="700" type="line"/>
      <point x="438" y="700" type="line"/>
      <point x="438" y="374" type="line"/>
      <point x="481" y="388" type="line"/>
      <point x="684" y="700" type="line"/>
      <point x="776" y="700" type="line"/>
      <point x="574" y="396" type="line"/>
      <point x="534" y="364" type="line"/>
      <point x="584" y="323" type="line"/>
      <point x="807" y="0" type="line"/>
      <point x="705" y="0" type="line"/>
      <point x="484" y="324" type="line"/>
      <point x="438" y="324" type="line"/>
      <point x="438" y="0" type="line"/>
      <point x="358" y="0" type="line"/>
      <point x="358" y="336" type="line"/>
      <point x="316" y="322" type="line"/>
      <point x="95" y="0" type="line"/>
      <point x="-1" y="0" type="line"/>
      <point x="220" y="313" type="line"/>
      <point x="268" y="351" type="line"/>
      <point x="222" y="386" type="line"/>
      <point x="13" y="700" type="line"/>
      <point x="110" y="700" type="line"/>
      <point x="313" y="386" type="line"/>
      <point x="358" y="386" type="line"/>
    </contour>
  </outline>
</glyph>
<glyph name="afii10029" format="1">
  <advance width="624"/>
  <unicode hex="041B"/>
  <outline>
    <contour>
      <point x="456" y="626" type="line"/>
      <point x="247" y="626" type="line"/>
      <point x="237" y="426"/>
      <point x="204" y="161"/>
      <point x="171" y="87" type="qcurve" smooth="yes"/>
      <point x="149" y="39"/>
      <point x="89" y="-5"/>
      <point x="54" y="-5" type="qcurve" smooth="yes"/>
      <point x="36" y="-5"/>
      <point x="10" y="0"/>
      <point x="-2" y="5" type="qcurve"/>
      <point x="9" y="77" type="line"/>
      <point x="14.0" y="75.5" name="inserted"/>
      <point x="24.5" y="74.0"/>
      <point x="30" y="74" type="qcurve" smooth="yes"/>
      <point x="47" y="74"/>
      <point x="80" y="96"/>
      <point x="96" y="126" type="qcurve" smooth="yes"/>
      <point x="110" y="153"/>
      <point x="135" y="243"/>
      <point x="144.5" y="312.0" type="qcurve" smooth="yes" name="inserted"/>
      <point x="154" y="381"/>
      <point x="166" y="572"/>
      <point x="169" y="700" type="qcurve"/>
      <point x="539" y="700" type="line"/>
      <point x="539" y="0" type="line"/>
      <point x="456" y="0" type="line"/>
    </contour>
  </outline>
</glyph>
<glyph name="afii10037" format="1">
  <advance width="553"/>
  <unicode hex="0423"/>
  <outline>
    <contour>
      <point x="282" y="331" type="line"/>
      <point x="308" y="242" type="line"/>
      <point x="313" y="242" type="line"/>
      <point x="333" y="334" type="line"/>
      <point x="467" y="700" type="line"/>
      <point x="552" y="700" type="line"/>
      <point x="375" y="245" type="line" smooth="yes"/>
      <point x="348" y="174"/>
      <point x="307" y="79"/>
      <point x="286.0" y="49.5" type="qcurve" smooth="yes" name="inserted"/>
      <point x="265" y="20"/>
      <point x="217" y="-5"/>
      <point x="182" y="-5" type="qcurve" smooth="yes"/>
      <point x="149" y="-5"/>
      <point x="110" y="6"/>
      <point x="93" y="17" type="qcurve"/>
      <point x="118" y="86" type="line"/>
      <point x="138" y="75"/>
      <point x="172" y="69"/>
      <point x="186" y="69" type="qcurve" smooth="yes"/>
      <point x="214" y="69"/>
      <point x="252" y="126"/>
      <point x="266" y="182" type="qcurve"/>
      <point x="7" y="700" type="line"/>
      <point x="103" y="700" type="line"/>
    </contour>
  </outline>
</glyph>
<glyph name="afii10038" format="1">
  <advance width="780"/>
  <unicode hex="0424"/>
  <outline>
    <contour>
      <point x="349" y="78" type="line"/>
      <point x="332" y="75"/>
      <point x="287" y="73"/>
      <point x="267" y="73" type="qcurve" smooth="yes"/>
      <point x="220" y="73"/>
      <point x="137" y="105"/>
      <point x="106.5" y="139.0" type="qcurve" smooth="yes" name="inserted"/>
      <point x="76" y="173"/>
      <point x="41" y="278"/>
      <point x="41" y="350" type="qcurve" smooth="yes"/>
      <point x="41" y="418"/>
      <point x="76" y="525"/>
      <point x="108.5" y="562.0" type="qcurve" smooth="yes" name="inserted"/>
      <point x="141" y="599"/>
      <point x="231" y="638"/>
      <point x="286" y="638" type="qcurve" smooth="yes"/>
      <point x="299" y="638"/>
      <point x="338" y="636"/>
      <point x="349" y="634" type="qcurve"/>
      <point x="349" y="720" type="line"/>
      <point x="431" y="720" type="line"/>
      <point x="431" y="631" type="line"/>
      <point x="449" y="636"/>
      <point x="498" y="638"/>
      <point x="514" y="638" type="qcurve" smooth="yes"/>
      <point x="562" y="638"/>
      <point x="644" y="603"/>
      <point x="674.5" y="568.5" type="qcurve" smooth="yes" name="inserted"/>
      <point x="705" y="534"/>
      <point x="739" y="429"/>
      <point x="739" y="360" type="qcurve" smooth="yes"/>
      <point x="739" y="289"/>
      <point x="700" y="181"/>
      <point x="667.0" y="145.0" type="qcurve" smooth="yes" name="inserted"/>
      <point x="634" y="109"/>
      <point x="546" y="73"/>
      <point x="496" y="73" type="qcurve" smooth="yes"/>
      <point x="485" y="73"/>
      <point x="442" y="76"/>
      <point x="431" y="80" type="qcurve"/>
      <point x="431" y="-20" type="line"/>
      <point x="349" y="-20" type="line"/>
    </contour>
    <contour>
      <point x="502" y="568" type="qcurve" smooth="yes"/>
      <point x="488" y="568"/>
      <point x="444" y="566"/>
      <point x="430" y="561" type="qcurve"/>
      <point x="430" y="146" type="line"/>
      <point x="440" y="144"/>
      <point x="473" y="143"/>
      <point x="489" y="143" type="qcurve" smooth="yes"/>
      <point x="523" y="143"/>
      <point x="582" y="169"/>
      <point x="604.5" y="196.0" type="qcurve" smooth="yes" name="inserted"/>
      <point x="627" y="223"/>
      <point x="653" y="305"/>
      <point x="653" y="360" type="qcurve" smooth="yes"/>
      <point x="653" y="406"/>
      <point x="632" y="483"/>
      <point x="612.5" y="511.0" type="qcurve" smooth="yes" name="inserted"/>
      <point x="593" y="539"/>
      <point x="537" y="568"/>
    </contour>
    <contour>
      <point x="282" y="143" type="qcurve" smooth="yes"/>
      <point x="287" y="143"/>
      <point x="304" y="143"/>
      <point x="314.0" y="143.5" type="qcurve" smooth="yes" name="inserted"/>
      <point x="324" y="144"/>
      <point x="343" y="147"/>
      <point x="350" y="149" type="qcurve"/>
      <point x="350" y="564" type="line"/>
      <point x="338" y="566"/>
      <point x="303" y="568"/>
      <point x="289" y="568" type="qcurve" smooth="yes"/>
      <point x="255" y="568"/>
      <point x="196" y="541"/>
      <point x="174.0" y="513.5" type="qcurve" smooth="yes" name="inserted"/>
      <point x="152" y="486"/>
      <point x="127" y="404"/>
      <point x="127" y="350" type="qcurve" smooth="yes"/>
      <point x="127" y="302"/>
      <point x="149" y="225"/>
      <point x="169.5" y="198.0" type="qcurve" smooth="yes" name="inserted"/>
      <point x="190" y="171"/>
      <point x="247" y="143"/>
    </contour>
  </outline>
</glyph>
<glyph name="afii10066" format="1">
  <advance width="536"/>
  <unicode hex="0431"/>
  <outline>
    <contour>
      <point x="123" y="411" type="line"/>
      <point x="156" y="459"/>
      <point x="236" y="498"/>
      <point x="296" y="498" type="qcurve" smooth="yes"/>
      <point x="388" y="498"/>
      <point x="487" y="378"/>
      <point x="487" y="261" type="qcurve" smooth="yes"/>
      <point x="487" y="126"/>
      <point x="372" y="-12"/>
      <point x="269" y="-12" type="qcurve" smooth="yes"/>
      <point x="159" y="-12"/>
      <point x="49" y="140"/>
      <point x="49" y="303" type="qcurve" smooth="yes"/>
      <point x="49" y="389"/>
      <point x="66" y="511"/>
      <point x="82.5" y="553.0" type="qcurve" smooth="yes" name="inserted"/>
      <point x="99" y="595"/>
      <point x="146" y="645"/>
      <point x="175.5" y="659.5" type="qcurve" smooth="yes" name="inserted"/>
      <point x="205" y="674"/>
      <point x="275" y="686"/>
      <point x="315" y="690" type="qcurve" smooth="yes"/>
      <point x="367" y="695"/>
      <point x="426" y="708"/>
      <point x="444" y="725" type="qcurve"/>
      <point x="453" y="653" type="line"/>
      <point x="443" y="644"/>
      <point x="419" y="632"/>
      <point x="402.0" y="628.0" type="qcurve" smooth="yes" name="inserted"/>
      <point x="385" y="624"/>
      <point x="338" y="618"/>
      <point x="307" y="616" type="qcurve" smooth="yes"/>
      <point x="264" y="613"/>
      <point x="199" y="598"/>
      <point x="175.5" y="576.5" type="qcurve" smooth="yes" name="inserted"/>
      <point x="152" y="555"/>
      <point x="125" y="476"/>
      <point x="120" y="411" type="qcurve"/>
    </contour>
    <contour>
      <point x="132" y="249" type="qcurve" smooth="yes"/>
      <point x="132" y="211"/>
      <point x="148" y="141"/>
      <point x="164.5" y="114.5" type="qcurve" smooth="yes" name="inserted"/>
      <point x="181" y="88"/>
      <point x="233" y="58"/>
      <point x="268" y="58" type="qcurve" smooth="yes"/>
      <point x="337" y="58"/>
      <point x="404" y="157"/>
      <point x="404" y="254" type="qcurve" smooth="yes"/>
      <point x="404" y="292"/>
      <point x="390" y="356"/>
      <point x="375.0" y="379.5" type="qcurve" smooth="yes" name="inserted"/>
      <point x="360" y="403"/>
      <point x="314" y="428"/>
      <point x="282" y="428" type="qcurve" smooth="yes"/>
      <point x="204" y="429"/>
      <point x="132" y="336"/>
    </contour>
  </outline>
</glyph>
<glyph name="afii10067" format="1">
  <advance width="499"/>
  <unicode hex="0432"/>
  <outline>
    <contour>
      <point x="77" y="499" type="line"/>
      <point x="112" y="501"/>
      <point x="189" y="507"/>
      <point x="246" y="507" type="qcurve" smooth="yes"/>
      <point x="345" y="507"/>
      <point x="431" y="446"/>
      <point x="431" y="384" type="qcurve" smooth="yes"/>
      <point x="431" y="349"/>
      <point x="390" y="282"/>
      <point x="343" y="266" type="qcurve"/>
      <point x="343" y="262" type="line"/>
      <point x="402" y="251"/>
      <point x="450" y="191"/>
      <point x="450" y="141" type="qcurve" smooth="yes"/>
      <point x="450" y="63"/>
      <point x="338" y="-7"/>
      <point x="226" y="-7" type="qcurve" smooth="yes"/>
      <point x="184" y="-7"/>
      <point x="112" y="-2"/>
      <point x="77" y="1" type="qcurve"/>
    </contour>
    <contour>
      <point x="157" y="67" type="line"/>
      <point x="176" y="65"/>
      <point x="213" y="63"/>
      <point x="238" y="63" type="qcurve" smooth="yes"/>
      <point x="305" y="63"/>
      <point x="370" y="101"/>
      <point x="370" y="147" type="qcurve" smooth="yes"/>
      <point x="370" y="183"/>
      <point x="315" y="228"/>
      <point x="245" y="228" type="qcurve" smooth="yes"/>
      <point x="157" y="228" type="line"/>
    </contour>
    <contour>
      <point x="255" y="289" type="line" smooth="yes"/>
      <point x="273" y="289"/>
      <point x="307" y="301"/>
      <point x="320.5" y="311.5" type="qcurve" smooth="yes" name="inserted"/>
      <point x="334" y="322"/>
      <point x="351" y="350"/>
      <point x="351" y="366" type="qcurve" smooth="yes"/>
      <point x="351" y="406"/>
      <point x="303" y="437"/>
      <point x="243" y="437" type="qcurve" smooth="yes"/>
      <point x="211" y="437"/>
      <point x="174" y="435"/>
      <point x="157" y="434" type="qcurve"/>
      <point x="157" y="289" type="line"/>
    </contour>
  </outline>
</glyph>
<glyph name="afii10068" format="1">
  <advance width="369"/>
  <unicode hex="0433"/>
  <outline>
    <contour>
      <point x="369" y="430" type="line"/>
      <point x="157" y="430" type="line"/>
      <point x="157" y="0" type="line"/>
      <point x="77" y="0" type="line"/>
      <point x="77" y="500" type="line"/>
      <point x="369" y="500" type="line"/>
    </contour>
  </outline>
</glyph>
<glyph name="afii10069" format="1">
  <advance width="541"/>
  <unicode hex="0434"/>
  <outline>
    <contour>
      <point x="519" y="-127" type="line"/>
      <point x="465" y="-127" type="line"/>
      <point x="450" y="0" type="line"/>
      <point x="74" y="0" type="line"/>
      <point x="59" y="-127" type="line"/>
      <point x="5" y="-127" type="line"/>
      <point x="5" y="70" type="line"/>
      <point x="64" y="70" type="line"/>
      <point x="72" y="81"/>
      <point x="98" y="138"/>
      <point x="110.5" y="189.5" type="qcurve" smooth="yes" name="inserted"/>
      <point x="123" y="241"/>
      <point x="142" y="394"/>
      <point x="144" y="500" type="qcurve"/>
      <point x="446" y="500" type="line"/>
      <point x="446" y="70" type="line"/>
      <point x="519" y="70" type="line"/>
    </contour>
    <contour>
      <point x="366" y="70" type="line"/>
      <point x="366" y="430" type="line"/>
      <point x="216" y="430" type="line"/>
      <point x="214" y="388"/>
      <point x="204" y="289"/>
      <point x="195.5" y="239.5" type="qcurve" smooth="yes" name="inserted"/>
      <point x="187" y="190"/>
      <point x="161" y="102"/>
      <point x="144" y="70" type="qcurve"/>
    </contour>
  </outline>
</glyph>
<glyph name="afii10074" format="1">
  <advance width="546"/>
  <unicode hex="0438"/>
  <outline>
    <contour>
      <point x="389" y="296" type="line"/>
      <point x="392" y="358" type="line"/>
      <point x="389" y="358" type="line"/>
      <point x="348" y="294" type="line"/>
      <point x="123" y="0" type="line"/>
      <point x="77" y="0" type="line"/>
      <point x="77" y="500" type="line"/>
      <point x="157" y="500" type="line"/>
      <point x="157" y="195" type="line"/>
      <point x="154" y="136" type="line"/>
      <point x="158" y="136" type="line"/>
      <point x="197" y="198" type="line"/>
      <point x="422" y="500" type="line"/>
      <point x="469" y="500" type="line"/>
      <point x="469" y="0" type="line"/>
      <point x="389" y="0" type="line"/>
    </contour>
  </outline>
</glyph>
<glyph name="afii10076" format="1">
  <advance width="478"/>
  <unicode hex="043A"/>
  <outline>
    <contour>
      <point x="203" y="225" type="line"/>
      <point x="157" y="225" type="line"/>
      <point x="157" y="0" type="line"/>
      <point x="77" y="0" type="line"/>
      <point x="77" y="500" type="line"/>
      <point x="157" y="500" type="line"/>
      <point x="157" y="274" type="line"/>
      <point x="200" y="288" type="line"/>
      <point x="360" y="500" type="line"/>
      <point x="447" y="500" type="line"/>
      <point x="292" y="299" type="line"/>
      <point x="250" y="266" type="line"/>
      <point x="302" y="226" type="line"/>
      <point x="469" y="0" type="line"/>
      <point x="370" y="0" type="line"/>
    </contour>
  </outline>
</glyph>
<glyph name="afii10084" format="1">
  <advance width="398"/>
  <unicode hex="0442"/>
  <outline>
    <contour>
      <point x="396" y="430" type="line"/>
      <point x="239" y="430" type="line"/>
      <point x="239" y="0" type="line"/>
      <point x="159" y="0" type="line"/>
      <point x="159" y="430" type="line"/>
      <point x="2" y="430" type="line"/>
      <point x="2" y="500" type="line"/>
      <point x="396" y="500" type="line"/>
    </contour>
  </outline>
</glyph>
<glyph name="afii10086" format="1">
  <advance width="680"/>
  <unicode hex="0444"/>
  <outline>
    <contour>
      <point x="302" y="-4" type="line"/>
      <point x="285" y="-10"/>
      <point x="248" y="-12"/>
      <point x="233" y="-12" type="qcurve" smooth="yes"/>
      <point x="142" y="-12"/>
      <point x="44" y="116"/>
      <point x="44" y="250" type="qcurve" smooth="yes"/>
      <point x="44" y="378"/>
      <point x="152" y="508"/>
      <point x="254" y="508" type="qcurve" smooth="yes"/>
      <point x="268.0" y="508.0" name="inserted"/>
      <point x="292.0" y="506.0"/>
      <point x="302" y="504" type="qcurve"/>
      <point x="302" y="700" type="line"/>
      <point x="378" y="700" type="line"/>
      <point x="378" y="503" type="line"/>
      <point x="396" y="506"/>
      <point x="424" y="508"/>
      <point x="437" y="508" type="qcurve" smooth="yes"/>
      <point x="536" y="508"/>
      <point x="636" y="393"/>
      <point x="636" y="260" type="qcurve" smooth="yes"/>
      <point x="636" y="197"/>
      <point x="609" y="96"/>
      <point x="583.0" y="61.0" type="qcurve" smooth="yes" name="inserted"/>
      <point x="557" y="26"/>
      <point x="482" y="-12"/>
      <point x="433" y="-12" type="qcurve" smooth="yes"/>
      <point x="424" y="-12"/>
      <point x="389" y="-9"/>
      <point x="378" y="-5" type="qcurve"/>
      <point x="378" y="-200" type="line"/>
      <point x="302" y="-200" type="line"/>
    </contour>
    <contour>
      <point x="422" y="442" type="qcurve" smooth="yes"/>
      <point x="410" y="442"/>
      <point x="391" y="441"/>
      <point x="377" y="437" type="qcurve"/>
      <point x="377" y="57" type="line"/>
      <point x="387" y="55"/>
      <point x="412" y="54"/>
      <point x="427" y="54" type="qcurve" smooth="yes"/>
      <point x="491" y="54"/>
      <point x="556" y="160"/>
      <point x="556" y="260" type="qcurve" smooth="yes"/>
      <point x="556" y="345"/>
      <point x="497" y="442"/>
    </contour>
    <contour>
      <point x="253" y="54" type="qcurve" smooth="yes"/>
      <point x="265" y="54"/>
      <point x="289" y="56"/>
      <point x="303" y="59" type="qcurve"/>
      <point x="303" y="438" type="line"/>
      <point x="291" y="440"/>
      <point x="270" y="442"/>
      <point x="255" y="442" type="qcurve" smooth="yes"/>
      <point x="193" y="442"/>
      <point x="124" y="349"/>
      <point x="124" y="250" type="qcurve" smooth="yes"/>
      <point x="124" y="208"/>
      <point x="139" y="136"/>
      <point x="155.0" y="109.5" type="qcurve" smooth="yes" name="inserted"/>
      <point x="171" y="83"/>
      <point x="220" y="54"/>
    </contour>
  </outline>
</glyph>
<glyph name="afii10090" format="1">
  <advance width="736"/>
  <unicode hex="0448"/>
  <outline>
    <contour>
      <point x="77" y="0" type="line"/>
      <point x="77" y="500" type="line"/>
      <point x="157" y="500" type="line"/>
      <point x="157" y="70" type="line"/>
      <point x="328" y="70" type="line"/>
      <point x="328" y="500" type="line"/>
      <point x="408" y="500" type="line"/>
      <point x="408" y="70" type="line"/>
      <point x="579" y="70" type="line"/>
      <point x="579" y="500" type="line"/>
      <point x="659" y="500" type="line"/>
      <point x="659" y="0" type="line"/>
    </contour>
  </outline>
</glyph>
<glyph name="afii10092" format="1">
  <advance width="497"/>
  <unicode hex="044A"/>
  <outline>
    <contour>
      <point x="191" y="70" type="line"/>
      <point x="210.5" y="67.0" name="inserted"/>
      <point x="245.5" y="64.0"/>
      <point x="261" y="64" type="qcurve" smooth="yes"/>
      <point x="324" y="64"/>
      <point x="384" y="113"/>
      <point x="384" y="158" type="qcurve" smooth="yes"/>
      <point x="384" y="198"/>
      <point x="326" y="250"/>
      <point x="264" y="250" type="qcurve" smooth="yes"/>
      <point x="247" y="250"/>
      <point x="209" y="248"/>
      <point x="191" y="243" type="qcurve"/>
    </contour>
    <contour>
      <point x="191" y="309" type="line"/>
      <point x="215" y="313"/>
      <point x="258" y="316"/>
      <point x="278" y="316" type="qcurve" smooth="yes"/>
      <point x="330" y="316"/>
      <point x="402" y="293"/>
      <point x="424.5" y="273.0" type="qcurve" smooth="yes" name="inserted"/>
      <point x="447" y="253"/>
      <point x="467" y="198"/>
      <point x="467" y="167" type="qcurve" smooth="yes"/>
      <point x="467" y="76"/>
      <point x="358" y="-6"/>
      <point x="243" y="-6" type="qcurve" smooth="yes"/>
      <point x="210" y="-6"/>
      <point x="146" y="-3"/>
      <point x="111" y="0" type="qcurve"/>
      <point x="111" y="430" type="line"/>
      <point x="1" y="430" type="line"/>
      <point x="1" y="500" type="line"/>
      <point x="191" y="500" type="line"/>
    </contour>
  </outline>
</glyph>
<glyph name="afii10093" format="1">
  <advance width="660"/>
  <unicode hex="044B"/>
  <outline>
    <contour>
      <point x="157" y="70" type="line"/>
      <point x="175.5" y="67.0" name="inserted"/>
      <point x="211.0" y="64.0"/>
      <point x="228" y="64" type="qcurve" smooth="yes"/>
      <point x="291" y="64"/>
      <point x="341" y="113"/>
      <point x="341" y="158" type="qcurve" smooth="yes"/>
      <point x="341" y="198"/>
      <point x="292" y="250"/>
      <point x="231" y="250" type="qcurve" smooth="yes"/>
      <point x="214" y="250"/>
      <point x="174" y="248"/>
      <point x="157" y="243" type="qcurve"/>
    </contour>
    <contour>
      <point x="157" y="309" type="line"/>
      <point x="181" y="313"/>
      <point x="225" y="316"/>
      <point x="245" y="316" type="qcurve" smooth="yes"/>
      <point x="296" y="316"/>
      <point x="365" y="293"/>
      <point x="386.0" y="273.0" type="qcurve" smooth="yes" name="inserted"/>
      <point x="407" y="253"/>
      <point x="424" y="198"/>
      <point x="424" y="167" type="qcurve" smooth="yes"/>
      <point x="424" y="76"/>
      <point x="323" y="-6"/>
      <point x="210" y="-6" type="qcurve" smooth="yes"/>
      <point x="178.0" y="-6.0" name="inserted"/>
      <point x="111.5" y="-3.0"/>
      <point x="77" y="0" type="qcurve"/>
      <point x="77" y="500" type="line"/>
      <point x="157" y="500" type="line"/>
    </contour>
    <contour>
      <point x="503" y="500" type="line"/>
      <point x="583" y="500" type="line"/>
      <point x="583" y="0" type="line"/>
      <point x="503" y="0" type="line"/>
    </contour>
  </outline>
</glyph>
<glyph name="afii10097" format="1">
  <advance width="475"/>
  <unicode hex="044F"/>
  <outline>
    <contour>
      <point x="326" y="207" type="line"/>
      <point x="249" y="195" type="line"/>
      <point x="117" y="0" type="line"/>
      <point x="20" y="0" type="line"/>
      <point x="140" y="171" type="line"/>
      <point x="180" y="208" type="line"/>
      <point x="128" y="216"/>
      <point x="55" y="284"/>
      <point x="55" y="342" type="qcurve" smooth="yes"/>
      <point x="55" y="387"/>
      <point x="86" y="451"/>
      <point x="115.0" y="472.0" type="qcurve" smooth="yes" name="inserted"/>
      <point x="144" y="493"/>
      <point x="224" y="512"/>
      <point x="274" y="512" type="qcurve" smooth="yes"/>
      <point x="311" y="512"/>
      <point x="375" y="502"/>
      <point x="406" y="496" type="qcurve"/>
      <point x="406" y="0" type="line"/>
      <point x="326" y="0" type="line"/>
    </contour>
    <contour>
      <point x="326" y="432" type="line"/>
      <point x="313" y="437"/>
      <point x="281" y="442"/>
      <point x="269" y="442" type="qcurve" smooth="yes"/>
      <point x="205" y="442"/>
      <point x="138" y="396"/>
      <point x="138" y="346" type="qcurve" smooth="yes"/>
      <point x="138" y="301"/>
      <point x="209" y="252"/>
      <point x="267" y="252" type="qcurve" smooth="yes"/>
      <point x="268" y="252"/>
      <point x="272" y="252"/>
      <point x="278.0" y="252.0" type="qcurve" smooth="yes" name="inserted"/>
      <point x="284" y="252"/>
      <point x="306" y="253"/>
      <point x="326" y="254" type="qcurve"/>
    </contour>
  </outline>
</glyph>
<glyph name="afii10106" format="1">
  <advance width="733"/>
  <unicode hex="0459"/>
  <outline>
    <contour>
      <point x="426" y="309" type="line"/>
      <point x="450" y="313"/>
      <point x="494" y="316"/>
      <point x="514" y="316" type="qcurve" smooth="yes"/>
      <point x="566" y="316"/>
      <point x="638" y="293"/>
      <point x="660.5" y="273.0" type="qcurve" smooth="yes" name="inserted"/>
      <point x="683" y="253"/>
      <point x="703" y="198"/>
      <point x="703" y="167" type="qcurve" smooth="yes"/>
      <point x="703" y="76"/>
      <point x="594" y="-6"/>
      <point x="479" y="-6" type="qcurve" smooth="yes"/>
      <point x="447.0" y="-6.0" name="inserted"/>
      <point x="380.5" y="-3.0"/>
      <point x="346" y="0" type="qcurve"/>
      <point x="346" y="430" type="line"/>
      <point x="201" y="430" type="line"/>
      <point x="198" y="388"/>
      <point x="192" y="291"/>
      <point x="186.0" y="242.5" type="qcurve" smooth="yes" name="inserted"/>
      <point x="180" y="194"/>
      <point x="160" y="105"/>
      <point x="144.5" y="71.0" type="qcurve" smooth="yes" name="inserted"/>
      <point x="129" y="37"/>
      <point x="84" y="-4"/>
      <point x="53" y="-4" type="qcurve" smooth="yes"/>
      <point x="34" y="-4"/>
      <point x="6" y="0"/>
      <point x="-5" y="5" type="qcurve"/>
      <point x="7" y="72" type="line"/>
      <point x="13.0" y="70.0" name="inserted"/>
      <point x="26.0" y="68.0"/>
      <point x="33" y="68" type="qcurve" smooth="yes"/>
      <point x="53" y="68"/>
      <point x="85" y="102"/>
      <point x="97.0" y="149.5" type="qcurve" smooth="yes" name="inserted"/>
      <point x="109" y="197"/>
      <point x="125" y="365"/>
      <point x="128" y="500" type="qcurve"/>
      <point x="426" y="500" type="line"/>
    </contour>
    <contour>
      <point x="426" y="69" type="line"/>
      <point x="444.5" y="66.0" name="inserted"/>
      <point x="480.0" y="63.0"/>
      <point x="497" y="63" type="qcurve" smooth="yes"/>
      <point x="560" y="63"/>
      <point x="620" y="113"/>
      <point x="620" y="158" type="qcurve" smooth="yes"/>
      <point x="620" y="198"/>
      <point x="562" y="250"/>
      <point x="500" y="250" type="qcurve" smooth="yes"/>
      <point x="483" y="250"/>
      <point x="443" y="248"/>
      <point x="426" y="243" type="qcurve"/>
    </contour>
  </outline>
</glyph>
<glyph name="afii10107" format="1">
  <advance width="770"/>
  <unicode hex="045A"/>
  <outline>
    <contour>
      <point x="463" y="70" type="line"/>
      <point x="481.5" y="67.0" name="inserted"/>
      <point x="517.0" y="64.0"/>
      <point x="534" y="64" type="qcurve" smooth="yes"/>
      <point x="597" y="64"/>
      <point x="657" y="113"/>
      <point x="657" y="158" type="qcurve" smooth="yes"/>
      <point x="657" y="198"/>
      <point x="599" y="250"/>
      <point x="537" y="250" type="qcurve" smooth="yes"/>
      <point x="520" y="250"/>
      <point x="481" y="247"/>
      <point x="463" y="243" type="qcurve"/>
    </contour>
    <contour>
      <point x="463" y="309" type="line"/>
      <point x="487" y="313"/>
      <point x="531" y="316"/>
      <point x="551" y="316" type="qcurve" smooth="yes"/>
      <point x="603" y="316"/>
      <point x="675" y="293"/>
      <point x="697.5" y="273.0" type="qcurve" smooth="yes" name="inserted"/>
      <point x="720" y="253"/>
      <point x="740" y="198"/>
      <point x="740" y="167" type="qcurve" smooth="yes"/>
      <point x="740" y="76"/>
      <point x="631" y="-6"/>
      <point x="516" y="-6" type="qcurve" smooth="yes"/>
      <point x="484.0" y="-6.0" name="inserted"/>
      <point x="417.5" y="-3.0"/>
      <point x="383" y="0" type="qcurve"/>
      <point x="383" y="223" type="line"/>
      <point x="157" y="223" type="line"/>
      <point x="157" y="0" type="line"/>
      <point x="77" y="0" type="line"/>
      <point x="77" y="500" type="line"/>
      <point x="157" y="500" type="line"/>
      <point x="157" y="293" type="line"/>
      <point x="383" y="293" type="line"/>
      <point x="383" y="500" type="line"/>
      <point x="463" y="500" type="line"/>
    </contour>
  </outline>
</glyph>
<glyph name="afii10193" format="1">
  <advance width="535"/>
  <unicode hex="045F"/>
  <outline>
    <contour>
      <point x="77" y="0" type="line"/>
      <point x="77" y="500" type="line"/>
      <point x="157" y="500" type="line"/>
      <point x="157" y="70" type="line"/>
      <point x="378" y="70" type="line"/>
      <point x="378" y="500" type="line"/>
      <point x="458" y="500" type="line"/>
      <point x="458" y="0" type="line"/>
      <point x="312" y="0" type="line"/>
      <point x="297" y="-179" type="line"/>
      <point x="245" y="-179" type="line"/>
      <point x="225" y="0" type="line"/>
    </contour>
  </outline>
</glyph>
<glyph name="afii10146" format="1">
  <advance width="619"/>
  <unicode hex="0462"/>
  <outline>
    <contour>
      <point x="0" y="620" type="line"/>
      <point x="149" y="620" type="line"/>
      <point x="149" y="721" type="line"/>
      <point x="232" y="721" type="line"/>
      <point x="232" y="620" type="line"/>
      <point x="439" y="620" type="line"/>
      <point x="439" y="550" type="line"/>
      <point x="232" y="550" type="line"/>
      <point x="232" y="427" type="line"/>
      <point x="237" y="428"/>
      <point x="261" y="431"/>
      <point x="275.0" y="432.0" type="qcurve" smooth="yes" name="inserted"/>
      <point x="289" y="433"/>
      <point x="319" y="435"/>
      <point x="331" y="435" type="qcurve" smooth="yes"/>
      <point x="379" y="435"/>
      <point x="470" y="416"/>
      <point x="505.5" y="392.5" type="qcurve" smooth="yes" name="inserted"/>
      <point x="541" y="369"/>
      <point x="585" y="288"/>
      <point x="585" y="226" type="qcurve" smooth="yes"/>
      <point x="585" y="166"/>
      <point x="543" y="78"/>
      <point x="506.0" y="49.0" type="qcurve" smooth="yes" name="inserted"/>
      <point x="469" y="20"/>
      <point x="370" y="-8"/>
      <point x="312" y="-8" type="qcurve" smooth="yes"/>
      <point x="298" y="-8"/>
      <point x="258" y="-7"/>
      <point x="235.5" y="-5.5" type="qcurve" smooth="yes" name="inserted"/>
      <point x="213" y="-4"/>
      <point x="168" y="2"/>
      <point x="149" y="7" type="qcurve"/>
      <point x="149" y="550" type="line"/>
      <point x="0" y="550" type="line"/>
    </contour>
    <contour>
      <point x="323" y="64" type="qcurve" smooth="yes"/>
      <point x="359" y="64"/>
      <point x="422" y="83"/>
      <point x="446.0" y="102.5" type="qcurve" smooth="yes" name="inserted"/>
      <point x="470" y="122"/>
      <point x="497" y="181"/>
      <point x="497" y="220" type="qcurve" smooth="yes"/>
      <point x="497" y="262"/>
      <point x="467" y="318"/>
      <point x="442.5" y="334.0" type="qcurve" smooth="yes" name="inserted"/>
      <point x="418" y="350"/>
      <point x="354" y="363"/>
      <point x="320" y="363" type="qcurve" smooth="yes"/>
      <point x="311" y="363"/>
      <point x="285" y="361"/>
      <point x="272.0" y="360.0" type="qcurve" smooth="yes" name="inserted"/>
      <point x="259" y="359"/>
      <point x="237" y="355"/>
      <point x="232" y="354" type="qcurve"/>
      <point x="232" y="70" type="line"/>
      <point x="246" y="67"/>
      <point x="298" y="64"/>
    </contour>
  </outline>
</glyph>
<glyph name="afii10194" format="1">
  <advance width="497"/>
  <unicode hex="0463"/>
  <outline>
    <contour>
      <point x="1" y="500" type="line"/>
      <point x="110" y="500" type="line"/>
      <point x="110" y="700" type="line"/>
      <point x="190" y="700" type="line"/>
      <point x="190" y="500" type="line"/>
      <point x="350" y="500" type="line"/>
      <point x="350" y="434" type="line"/>
      <point x="190" y="434" type="line"/>
      <point x="190" y="309" type="line"/>
      <point x="214" y="313"/>
      <point x="258" y="316"/>
      <point x="278" y="316" type="qcurve" smooth="yes"/>
      <point x="330" y="316"/>
      <point x="402" y="293"/>
      <point x="424.5" y="273.0" type="qcurve" smooth="yes" name="inserted"/>
      <point x="447" y="253"/>
      <point x="467" y="198"/>
      <point x="467" y="167" type="qcurve" smooth="yes"/>
      <point x="467" y="76"/>
      <point x="358" y="-6"/>
      <point x="243" y="-6" type="qcurve" smooth="yes"/>
      <point x="211.0" y="-6.0" name="inserted"/>
      <point x="144.5" y="-3.0"/>
      <point x="110" y="0" type="qcurve"/>
      <point x="110" y="434" type="line"/>
      <point x="1" y="434" type="line"/>
    </contour>
    <contour>
      <point x="190" y="70" type="line"/>
      <point x="209.5" y="67.0" name="inserted"/>
      <point x="245.0" y="64.0"/>
      <point x="261" y="64" type="qcurve" smooth="yes"/>
      <point x="324" y="64"/>
      <point x="384" y="113"/>
      <point x="384" y="158" type="qcurve" smooth="yes"/>
      <point x="384" y="198"/>
      <point x="326" y="250"/>
      <point x="264" y="250" type="qcurve" smooth="yes"/>
      <point x="247" y="250"/>
      <point x="208" y="248"/>
      <point x="190" y="243" type="qcurve"/>
    </contour>
  </outline>
</glyph>
<glyph name="afii10147" format="1">
  <advance width="684"/>
  <unicode hex="0472"/>
  <outline>
    <contour>
      <point x="56" y="350" type="qcurve" smooth="yes"/>
      <point x="56" y="525"/>
      <point x="204" y="712"/>
      <point x="341" y="712" type="qcurve" smooth="yes"/>
      <point x="415" y="712"/>
      <point x="523" y="660"/>
      <point x="558.5" y="612.5" type="qcurve" smooth="yes" name="inserted"/>
      <point x="594" y="565"/>
      <point x="628" y="432"/>
      <point x="628" y="350" type="qcurve" smooth="yes"/>
      <point x="628" y="175"/>
      <point x="479" y="-12"/>
      <point x="341" y="-12" type="qcurve" smooth="yes"/>
      <point x="268" y="-12"/>
      <point x="161" y="40"/>
      <point x="125.5" y="87.5" type="qcurve" smooth="yes" name="inserted"/>
      <point x="90" y="135"/>
      <point x="56" y="268"/>
    </contour>
    <contour>
      <point x="540" y="392" type="line"/>
      <point x="532" y="511"/>
      <point x="423" y="638"/>
      <point x="341" y="638" type="qcurve" smooth="yes"/>
      <point x="305" y="638"/>
      <point x="237" y="613"/>
      <point x="210.0" y="584.0" type="qcurve" smooth="yes" name="inserted"/>
      <point x="183" y="555"/>
      <point x="148" y="461"/>
      <point x="144" y="392" type="qcurve"/>
    </contour>
    <contour>
      <point x="144" y="318" type="line"/>
      <point x="152" y="189"/>
      <point x="261" y="62"/>
      <point x="341" y="62" type="qcurve" smooth="yes"/>
      <point x="378" y="62"/>
      <point x="448" y="86"/>
      <point x="475.0" y="115.5" type="qcurve" smooth="yes" name="inserted"/>
      <point x="502" y="145"/>
      <point x="537" y="243"/>
      <point x="540" y="318" type="qcurve"/>
    </contour>
  </outline>
</glyph>
<glyph name="afii10148" format="1">
  <advance width="598"/>
  <unicode hex="0474"/>
  <outline>
    <contour>
      <point x="304" y="-11" type="line"/>
      <point x="267" y="-11" type="line"/>
      <point x="-2" y="700" type="line"/>
      <point x="88" y="700" type="line"/>
      <point x="266" y="219" type="line"/>
      <point x="290" y="113" type="line"/>
      <point x="292" y="113" type="line"/>
      <point x="308" y="221" type="line"/>
      <point x="327" y="287"/>
      <point x="368" y="420"/>
      <point x="389" y="492" type="qcurve" smooth="yes"/>
      <point x="412" y="570"/>
      <point x="453" y="657"/>
      <point x="474.0" y="677.5" type="qcurve" smooth="yes" name="inserted"/>
      <point x="495" y="698"/>
      <point x="539" y="707"/>
      <point x="565" y="707" type="qcurve" smooth="yes"/>
      <point x="600" y="707"/>
      <point x="640" y="696"/>
      <point x="657" y="685" type="qcurve"/>
      <point x="633" y="615" type="line"/>
      <point x="613" y="626"/>
      <point x="578" y="633"/>
      <point x="564" y="633" type="qcurve" smooth="yes"/>
      <point x="536" y="633"/>
      <point x="498" y="581"/>
      <point x="478" y="520" type="qcurve" smooth="yes"/>
    </contour>
  </outline>
</glyph>
<glyph name="afii10196" format="1">
  <advance width="507"/>
  <unicode hex="0475"/>
  <outline>
    <contour>
      <point x="261" y="-11" type="line"/>
      <point x="227" y="-11" type="line"/>
      <point x="10" y="500" type="line"/>
      <point x="102" y="500" type="line"/>
      <point x="222" y="207" type="line"/>
      <point x="250" y="112" type="line"/>
      <point x="251" y="112" type="line"/>
      <point x="276" y="209" type="line"/>
      <point x="290" y="245"/>
      <point x="307" y="287"/>
      <point x="311.5" y="299.0" type="qcurve" smooth="yes" name="inserted"/>
      <point x="316" y="311"/>
      <point x="320" y="321"/>
      <point x="322" y="325" type="qcurve"/>
      <point x="338" y="368"/>
      <point x="366" y="435"/>
      <point x="382.5" y="458.5" type="qcurve" smooth="yes" name="inserted"/>
      <point x="399" y="482"/>
      <point x="442" y="507"/>
      <point x="472" y="507" type="qcurve" smooth="yes"/>
      <point x="490" y="507"/>
      <point x="518" y="503"/>
      <point x="530" y="498" type="qcurve"/>
      <point x="518" y="424" type="line"/>
      <point x="509" y="428"/>
      <point x="492" y="433"/>
      <point x="484" y="433" type="qcurve" smooth="yes"/>
      <point x="467" y="433"/>
      <point x="433" y="403"/>
      <point x="413" y="356" type="qcurve" smooth="yes"/>
    </contour>
  </outline>
</glyph>
<glyph name="uni048E" format="1">
  <advance width="559"/>
  <unicode hex="048E"/>
  <outline>
    <contour>
      <point x="85" y="693" type="line"/>
      <point x="123" y="702"/>
      <point x="211" y="708"/>
      <point x="254" y="708" type="qcurve" smooth="yes"/>
      <point x="300" y="708"/>
      <point x="395" y="690"/>
      <point x="434.0" y="666.0" type="qcurve" smooth="yes" name="inserted"/>
      <point x="473" y="642"/>
      <point x="522" y="558"/>
      <point x="522" y="493" type="qcurve" smooth="yes"/>
      <point x="522" y="418"/>
      <point x="459" y="322"/>
      <point x="409" y="296" type="qcurve"/>
      <point x="477" y="198" type="line"/>
      <point x="431" y="165" type="line"/>
      <point x="354" y="275" type="line"/>
      <point x="330.0" y="268.5" name="inserted"/>
      <point x="278.0" y="262.0"/>
      <point x="250" y="262" type="qcurve" smooth="yes"/>
      <point x="245" y="262"/>
      <point x="222" y="262"/>
      <point x="209.5" y="262.5" type="qcurve" smooth="yes" name="inserted"/>
      <point x="197" y="263"/>
      <point x="173" y="265"/>
      <point x="168" y="266" type="qcurve"/>
      <point x="168" y="0" type="line"/>
      <point x="85" y="0" type="line"/>
    </contour>
    <contour>
      <point x="291" y="462" type="line"/>
      <point x="362" y="359" type="line"/>
      <point x="394" y="376"/>
      <point x="434" y="439"/>
      <point x="434" y="493" type="qcurve" smooth="yes"/>
      <point x="434" y="534"/>
      <point x="403" y="589"/>
      <point x="377.5" y="605.5" type="qcurve" smooth="yes" name="inserted"/>
      <point x="352" y="622"/>
      <point x="288" y="636"/>
      <point x="256" y="636" type="qcurve" smooth="yes"/>
      <point x="230" y="636"/>
      <point x="182" y="634"/>
      <point x="168" y="630" type="qcurve"/>
      <point x="168" y="340" type="line"/>
      <point x="173" y="338"/>
      <point x="195" y="337"/>
      <point x="207.0" y="336.5" type="qcurve" smooth="yes" name="inserted"/>
      <point x="219" y="336"/>
      <point x="241" y="336"/>
      <point x="246" y="336" type="qcurve" smooth="yes"/>
      <point x="263" y="336"/>
      <point x="295" y="338"/>
      <point x="312" y="342" type="qcurve"/>
      <point x="248" y="435" type="line"/>
    </contour>
  </outline>
</glyph>
<glyph name="uni048F" format="1">
  <advance width="541"/>
  <unicode hex="048F"/>
  <outline>
    <contour>
      <point x="77" y="500" type="line"/>
      <point x="132" y="500" type="line"/>
      <point x="147" y="440" type="line"/>
      <point x="151" y="440" type="line"/>
      <point x="174" y="475"/>
      <point x="247" y="512"/>
      <point x="294" y="512" type="qcurve" smooth="yes"/>
      <point x="394" y="512"/>
      <point x="492" y="394"/>
      <point x="492" y="260" type="qcurve" smooth="yes"/>
      <point x="492" y="185"/>
      <point x="448" y="73"/>
      <point x="407" y="38" type="qcurve"/>
      <point x="460" y="-24" type="line"/>
      <point x="418" y="-61" type="line"/>
      <point x="359" y="8" type="line"/>
      <point x="337.5" y="-2.0" name="inserted"/>
      <point x="289.0" y="-12.0"/>
      <point x="262" y="-12" type="qcurve" smooth="yes"/>
      <point x="225" y="-12"/>
      <point x="182" y="-3"/>
      <point x="157" y="8" type="qcurve"/>
      <point x="157" y="-200" type="line"/>
      <point x="77" y="-200" type="line"/>
    </contour>
    <contour>
      <point x="297" y="163" type="line"/>
      <point x="355" y="94" type="line"/>
      <point x="381" y="120"/>
      <point x="409" y="203"/>
      <point x="409" y="261" type="qcurve" smooth="yes"/>
      <point x="409" y="302"/>
      <point x="395" y="369"/>
      <point x="379.5" y="393.0" type="qcurve" smooth="yes" name="inserted"/>
      <point x="364" y="417"/>
      <point x="315" y="442"/>
      <point x="279" y="442" type="qcurve" smooth="yes"/>
      <point x="228" y="442"/>
      <point x="169" y="389"/>
      <point x="157" y="335" type="qcurve"/>
      <point x="157" y="86" type="line"/>
      <point x="175" y="72"/>
      <point x="221" y="58"/>
      <point x="259" y="58" type="qcurve" smooth="yes"/>
      <point x="274.5" y="57.5" name="inserted"/>
      <point x="301.5" y="62.0"/>
      <point x="313" y="67" type="qcurve"/>
      <point x="258" y="132" type="line"/>
    </contour>
  </outline>
</glyph>
<glyph name="afii10050" format="1">
  <advance width="442"/>
  <unicode hex="0490"/>
  <outline>
    <contour>
      <point x="460" y="626" type="line"/>
      <point x="168" y="626" type="line"/>
      <point x="168" y="0" type="line"/>
      <point x="85" y="0" type="line"/>
      <point x="85" y="700" type="line"/>
      <point x="388" y="700" type="line"/>
      <point x="404" y="834" type="line"/>
      <point x="460" y="834" type="line"/>
    </contour>
  </outline>
</glyph>
<glyph name="uni0495" format="1">
  <advance width="535"/>
  <unicode hex="0495"/>
  <outline>
    <contour>
      <point x="157" y="0" type="line"/>
      <point x="77" y="0" type="line"/>
      <point x="77" y="500" type="line"/>
      <point x="368" y="500" type="line"/>
      <point x="368" y="430" type="line"/>
      <point x="157" y="430" type="line"/>
      <point x="157" y="252" type="line"/>
      <point x="168" y="257"/>
      <point x="228" y="273"/>
      <point x="282" y="273" type="qcurve" smooth="yes"/>
      <point x="322" y="273"/>
      <point x="394" y="250"/>
      <point x="421.0" y="223.5" type="qcurve" smooth="yes" name="inserted"/>
      <point x="448" y="197"/>
      <point x="480" y="110"/>
      <point x="480" y="45" type="qcurve" smooth="yes"/>
      <point x="480" y="-86"/>
      <point x="375" y="-209"/>
      <point x="263" y="-209" type="qcurve" smooth="yes"/>
      <point x="230" y="-209"/>
      <point x="201" y="-208"/>
      <point x="193" y="-206" type="qcurve"/>
      <point x="193" y="-136" type="line"/>
      <point x="206" y="-138"/>
      <point x="237" y="-139"/>
      <point x="266" y="-139" type="qcurve" smooth="yes"/>
      <point x="336" y="-139"/>
      <point x="400" y="-48"/>
      <point x="400" y="35" type="qcurve" smooth="yes"/>
      <point x="400" y="124"/>
      <point x="322" y="203"/>
      <point x="260" y="203" type="qcurve" smooth="yes"/>
      <point x="224" y="203"/>
      <point x="168" y="187"/>
      <point x="157" y="182" type="qcurve"/>
    </contour>
  </outline>
</glyph>
<glyph name="uni0498" format="1">
  <advance width="541"/>
  <unicode hex="0498"/>
  <outline>
    <contour>
      <point x="139" y="331" type="line"/>
      <point x="139" y="401" type="line"/>
      <point x="155" y="401" type="line" smooth="yes"/>
      <point x="164" y="401"/>
      <point x="190" y="401"/>
      <point x="203.5" y="402.0" type="qcurve" smooth="yes" name="inserted"/>
      <point x="217" y="403"/>
      <point x="242" y="404"/>
      <point x="250" y="406" type="qcurve"/>
      <point x="276" y="410"/>
      <point x="322" y="429"/>
      <point x="339.0" y="444.0" type="qcurve" smooth="yes" name="inserted"/>
      <point x="356" y="459"/>
      <point x="376" y="499"/>
      <point x="376" y="523" type="qcurve" smooth="yes"/>
      <point x="376" y="556"/>
      <point x="354" y="600"/>
      <point x="334.5" y="613.5" type="qcurve" smooth="yes" name="inserted"/>
      <point x="315" y="627"/>
      <point x="264" y="638"/>
      <point x="235" y="638" type="qcurve" smooth="yes"/>
      <point x="181" y="638"/>
      <point x="105" y="623"/>
      <point x="82" y="612" type="qcurve"/>
      <point x="60" y="678" type="line"/>
      <point x="80" y="689"/>
      <point x="184" y="712"/>
      <point x="249" y="712" type="qcurve" smooth="yes"/>
      <point x="289" y="712"/>
      <point x="366" y="695"/>
      <point x="396.5" y="675.5" type="qcurve" smooth="yes" name="inserted"/>
      <point x="427" y="656"/>
      <point x="464" y="589"/>
      <point x="464" y="540" type="qcurve" smooth="yes"/>
      <point x="464" y="490"/>
      <point x="398" y="399"/>
      <point x="332" y="379" type="qcurve"/>
      <point x="332" y="375" type="line"/>
      <point x="403" y="365"/>
      <point x="485" y="279"/>
      <point x="485" y="207" type="qcurve" smooth="yes"/>
      <point x="485" y="155"/>
      <point x="448" y="78"/>
      <point x="417.5" y="51.5" type="qcurve" smooth="yes" name="inserted"/>
      <point x="387" y="25"/>
      <point x="306" y="-6"/>
      <point x="262" y="-10" type="qcurve"/>
      <point x="248" y="-179" type="line"/>
      <point x="196" y="-179" type="line"/>
      <point x="177" y="-11" type="line"/>
      <point x="131" y="-9"/>
      <point x="67" y="5"/>
      <point x="44" y="14" type="qcurve"/>
      <point x="65" y="89" type="line"/>
      <point x="88" y="78"/>
      <point x="171" y="63"/>
      <point x="230" y="63" type="qcurve" smooth="yes"/>
      <point x="261" y="63"/>
      <point x="321" y="80"/>
      <point x="344.5" y="97.0" type="qcurve" smooth="yes" name="inserted"/>
      <point x="368" y="114"/>
      <point x="397" y="166"/>
      <point x="397" y="202" type="qcurve" smooth="yes"/>
      <point x="397" y="265"/>
      <point x="309" y="324"/>
      <point x="238" y="329" type="qcurve" smooth="yes"/>
      <point x="226" y="330"/>
      <point x="205" y="331"/>
      <point x="194" y="331" type="qcurve" smooth="yes"/>
    </contour>
  </outline>
</glyph>
<glyph name="uni04A3" format="1">
  <advance width="546"/>
  <unicode hex="04A3"/>
  <outline>
    <contour>
      <point x="383" y="221" type="line"/>
      <point x="157" y="221" type="line"/>
      <point x="157" y="0" type="line"/>
      <point x="77" y="0" type="line"/>
      <point x="77" y="500" type="line"/>
      <point x="157" y="500" type="line"/>
      <point x="157" y="291" type="line"/>
      <point x="383" y="291" type="line"/>
      <point x="383" y="500" type="line"/>
      <point x="463" y="500" type="line"/>
      <point x="463" y="70" type="line"/>
      <point x="536" y="70" type="line"/>
      <point x="536" y="-127" type="line"/>
      <point x="482" y="-127" type="line"/>
      <point x="467" y="0" type="line"/>
      <point x="383" y="0" type="line"/>
    </contour>
  </outline>
</glyph>
<glyph name="uni04A4" format="1">
  <advance width="861"/>
  <unicode hex="04A4"/>
  <outline>
    <contour>
      <point x="879" y="626" type="line"/>
      <point x="587" y="626" type="line"/>
      <point x="587" y="0" type="line"/>
      <point x="504" y="0" type="line"/>
      <point x="504" y="321" type="line"/>
      <point x="168" y="321" type="line"/>
      <point x="168" y="0" type="line"/>
      <point x="85" y="0" type="line"/>
      <point x="85" y="700" type="line"/>
      <point x="168" y="700" type="line"/>
      <point x="168" y="395" type="line"/>
      <point x="504" y="395" type="line"/>
      <point x="504" y="700" type="line"/>
      <point x="879" y="700" type="line"/>
    </contour>
  </outline>
</glyph>
<glyph name="uni04A5" format="1">
  <advance width="675"/>
  <unicode hex="04A5"/>
  <outline>
    <contour>
      <point x="675" y="430" type="line"/>
      <point x="463" y="430" type="line"/>
      <point x="463" y="0" type="line"/>
      <point x="383" y="0" type="line"/>
      <point x="383" y="221" type="line"/>
      <point x="157" y="221" type="line"/>
      <point x="157" y="0" type="line"/>
      <point x="77" y="0" type="line"/>
      <point x="77" y="500" type="line"/>
      <point x="157" y="500" type="line"/>
      <point x="157" y="291" type="line"/>
      <point x="383" y="291" type="line"/>
      <point x="383" y="500" type="line"/>
      <point x="675" y="500" type="line"/>
    </contour>
  </outline>
</glyph>
<glyph name="uni04A7" format="1">
  <advance width="836"/>
  <unicode hex="04A7"/>
  <outline>
    <contour>
      <point x="458" y="0" type="line"/>
      <point x="378" y="0" type="line"/>
      <point x="378" y="430" type="line"/>
      <point x="157" y="430" type="line"/>
      <point x="157" y="0" type="line"/>
      <point x="77" y="0" type="line"/>
      <point x="77" y="500" type="line"/>
      <point x="458" y="500" type="line"/>
      <point x="458" y="252" type="line"/>
      <point x="469" y="257"/>
      <point x="529" y="273"/>
      <point x="583" y="273" type="qcurve" smooth="yes"/>
      <point x="622" y="273"/>
      <point x="693" y="250"/>
      <point x="720.5" y="223.5" type="qcurve" smooth="yes" name="inserted"/>
      <point x="748" y="197"/>
      <point x="780" y="110"/>
      <point x="780" y="45" type="qcurve" smooth="yes"/>
      <point x="780" y="-86"/>
      <point x="676" y="-209"/>
      <point x="564" y="-209" type="qcurve" smooth="yes"/>
      <point x="531" y="-209"/>
      <point x="502" y="-208"/>
      <point x="494" y="-206" type="qcurve"/>
      <point x="494" y="-136" type="line"/>
      <point x="507" y="-138"/>
      <point x="538" y="-139"/>
      <point x="567" y="-139" type="qcurve" smooth="yes"/>
      <point x="637" y="-139"/>
      <point x="700" y="-48"/>
      <point x="700" y="35" type="qcurve" smooth="yes"/>
      <point x="700" y="124"/>
      <point x="623" y="203"/>
      <point x="561" y="203" type="qcurve" smooth="yes"/>
      <point x="525" y="203"/>
      <point x="469" y="187"/>
      <point x="458" y="182" type="qcurve"/>
    </contour>
  </outline>
</glyph>
<glyph name="uni04A9" format="1">
  <advance width="660"/>
  <unicode hex="04A9"/>
  <outline>
    <contour>
      <point x="269" y="442" type="line"/>
      <point x="200.5" y="441.5" name="inserted"/>
      <point x="132.0" y="346.0"/>
      <point x="132" y="251" type="qcurve" smooth="yes"/>
      <point x="132" y="212"/>
      <point x="151" y="142"/>
      <point x="171.0" y="115.0" type="qcurve" smooth="yes" name="inserted"/>
      <point x="191" y="88"/>
      <point x="250" y="58"/>
      <point x="291" y="58" type="qcurve" smooth="yes"/>
      <point x="302" y="58"/>
      <point x="331" y="62"/>
      <point x="341" y="68" type="qcurve"/>
      <point x="305" y="90"/>
      <point x="255" y="190"/>
      <point x="255" y="253" type="qcurve" smooth="yes"/>
      <point x="255" y="297"/>
      <point x="272" y="385"/>
      <point x="292.5" y="420.5" type="qcurve" smooth="yes" name="inserted"/>
      <point x="313" y="456"/>
      <point x="383" y="500"/>
      <point x="436" y="500" type="qcurve" smooth="yes"/>
      <point x="482" y="500"/>
      <point x="547" y="466"/>
      <point x="567.5" y="437.0" type="qcurve" smooth="yes" name="inserted"/>
      <point x="588" y="408"/>
      <point x="607" y="330"/>
      <point x="607" y="285" type="qcurve" smooth="yes"/>
      <point x="607" y="245"/>
      <point x="587" y="173"/>
      <point x="570.5" y="143.5" type="qcurve" smooth="yes" name="inserted"/>
      <point x="554" y="114"/>
      <point x="511" y="71"/>
      <point x="489" y="61" type="qcurve"/>
      <point x="496.5" y="57.5" name="inserted"/>
      <point x="515.5" y="54.0"/>
      <point x="527" y="54" type="qcurve" smooth="yes"/>
      <point x="547" y="54"/>
      <point x="589" y="69"/>
      <point x="606" y="87" type="qcurve"/>
      <point x="631" y="27" type="line"/>
      <point x="613" y="10"/>
      <point x="552" y="-12"/>
      <point x="516" y="-12" type="qcurve" smooth="yes"/>
      <point x="488" y="-12"/>
      <point x="431" y="6"/>
      <point x="413" y="24" type="qcurve"/>
      <point x="383" y="3"/>
      <point x="311" y="-12"/>
      <point x="279" y="-12" type="qcurve" smooth="yes"/>
      <point x="224" y="-12"/>
      <point x="138" y="25"/>
      <point x="109.0" y="59.5" type="qcurve" smooth="yes" name="inserted"/>
      <point x="80" y="94"/>
      <point x="49" y="191"/>
      <point x="49" y="250" type="qcurve" smooth="yes"/>
      <point x="49" y="375"/>
      <point x="160" y="511"/>
      <point x="269" y="512" type="qcurve"/>
    </contour>
    <contour>
      <point x="338" y="256" type="qcurve" smooth="yes"/>
      <point x="338" y="199"/>
      <point x="383" y="104"/>
      <point x="421" y="78" type="qcurve"/>
      <point x="442" y="88"/>
      <point x="479" y="127"/>
      <point x="493.0" y="154.0" type="qcurve" smooth="yes" name="inserted"/>
      <point x="507" y="181"/>
      <point x="524" y="247"/>
      <point x="524" y="285" type="qcurve" smooth="yes"/>
      <point x="524" y="312"/>
      <point x="513" y="364"/>
      <point x="502.0" y="384.5" type="qcurve" smooth="yes" name="inserted"/>
      <point x="491" y="405"/>
      <point x="458" y="430"/>
      <point x="435" y="430" type="qcurve" smooth="yes"/>
      <point x="405" y="430"/>
      <point x="367" y="400"/>
      <point x="356.5" y="375.5" type="qcurve" smooth="yes" name="inserted"/>
      <point x="346" y="351"/>
      <point x="338" y="288"/>
    </contour>
  </outline>
</glyph>
<glyph name="uni04AA" format="1">
  <advance width="571"/>
  <unicode hex="04AA"/>
  <outline>
    <contour>
      <point x="533" y="29" type="line"/>
      <point x="507" y="9"/>
      <point x="433" y="-9"/>
      <point x="390" y="-11" type="qcurve"/>
      <point x="376" y="-179" type="line"/>
      <point x="324" y="-179" type="line"/>
      <point x="305" y="-7" type="line"/>
      <point x="252" y="1"/>
      <point x="161" y="51"/>
      <point x="127.5" y="95.0" type="qcurve" smooth="yes" name="inserted"/>
      <point x="94" y="139"/>
      <point x="56" y="266"/>
      <point x="56" y="350" type="qcurve" smooth="yes"/>
      <point x="56" y="448"/>
      <point x="109" y="585"/>
      <point x="152.5" y="628.5" type="qcurve" smooth="yes" name="inserted"/>
      <point x="196" y="672"/>
      <point x="304" y="712"/>
      <point x="360" y="712" type="qcurve" smooth="yes"/>
      <point x="420" y="712"/>
      <point x="496" y="699"/>
      <point x="523" y="688" type="qcurve"/>
      <point x="503" y="615" type="line"/>
      <point x="479.0" y="626.5" name="inserted"/>
      <point x="410.5" y="638.0"/>
      <point x="366" y="638" type="qcurve" smooth="yes"/>
      <point x="325" y="638"/>
      <point x="245" y="608"/>
      <point x="213.5" y="574.0" type="qcurve" smooth="yes" name="inserted"/>
      <point x="182" y="540"/>
      <point x="144" y="430"/>
      <point x="144" y="350" type="qcurve" smooth="yes"/>
      <point x="144" y="278"/>
      <point x="180" y="170"/>
      <point x="211.5" y="134.0" type="qcurve" smooth="yes" name="inserted"/>
      <point x="243" y="98"/>
      <point x="328" y="63"/>
      <point x="378" y="63" type="qcurve" smooth="yes"/>
      <point x="423" y="63"/>
      <point x="490" y="80"/>
      <point x="513" y="94" type="qcurve"/>
    </contour>
  </outline>
</glyph>
<glyph name="uni04AC" format="1">
  <advance width="555"/>
  <unicode hex="04AC"/>
  <outline>
    <contour>
      <point x="236" y="626" type="line"/>
      <point x="18" y="626" type="line"/>
      <point x="18" y="700" type="line"/>
      <point x="537" y="700" type="line"/>
      <point x="537" y="626" type="line"/>
      <point x="319" y="626" type="line"/>
      <point x="319" y="74" type="line"/>
      <point x="411" y="74" type="line"/>
      <point x="411" y="-129" type="line"/>
      <point x="353" y="-129" type="line"/>
      <point x="338" y="0" type="line"/>
      <point x="236" y="0" type="line"/>
    </contour>
  </outline>
</glyph>
<glyph name="uni04AD" format="1">
  <advance width="398"/>
  <unicode hex="04AD"/>
  <outline>
    <contour>
      <point x="159" y="430" type="line"/>
      <point x="2" y="430" type="line"/>
      <point x="2" y="500" type="line"/>
      <point x="396" y="500" type="line"/>
      <point x="396" y="430" type="line"/>
      <point x="239" y="430" type="line"/>
      <point x="239" y="70" type="line"/>
      <point x="313" y="70" type="line"/>
      <point x="313" y="-127" type="line"/>
      <point x="259" y="-127" type="line"/>
      <point x="244" y="0" type="line"/>
      <point x="159" y="0" type="line"/>
    </contour>
  </outline>
</glyph>
<glyph name="uni04B0" format="1">
  <advance width="558"/>
  <unicode hex="04B0"/>
  <outline>
    <contour>
      <point x="89" y="285" type="line"/>
      <point x="235" y="285" type="line"/>
      <point x="8" y="700" type="line"/>
      <point x="105" y="700" type="line"/>
      <point x="269" y="394" type="line"/>
      <point x="286" y="333" type="line"/>
      <point x="287" y="333" type="line"/>
      <point x="305" y="396" type="line"/>
      <point x="462" y="700" type="line"/>
      <point x="551" y="700" type="line"/>
      <point x="326" y="285" type="line"/>
      <point x="472" y="285" type="line"/>
      <point x="472" y="223" type="line"/>
      <point x="322" y="223" type="line"/>
      <point x="322" y="0" type="line"/>
      <point x="239" y="0" type="line"/>
      <point x="239" y="223" type="line"/>
      <point x="89" y="223" type="line"/>
    </contour>
  </outline>
</glyph>
<glyph name="uni04B2" format="1">
  <advance width="648"/>
  <unicode hex="04B2"/>
  <outline>
    <contour>
      <point x="259" y="356" type="line"/>
      <point x="46" y="700" type="line"/>
      <point x="146" y="700" type="line"/>
      <point x="288" y="463" type="line"/>
      <point x="313" y="406" type="line"/>
      <point x="337" y="463" type="line"/>
      <point x="487" y="700" type="line"/>
      <point x="579" y="700" type="line"/>
      <point x="359" y="363" type="line"/>
      <point x="542" y="74" type="line"/>
      <point x="639" y="74" type="line"/>
      <point x="639" y="-129" type="line"/>
      <point x="581" y="-129" type="line"/>
      <point x="566" y="0" type="line"/>
      <point x="492" y="0" type="line"/>
      <point x="334" y="251" type="line"/>
      <point x="307" y="311" type="line"/>
      <point x="281" y="251" type="line"/>
      <point x="119" y="0" type="line"/>
      <point x="26" y="0" type="line"/>
    </contour>
  </outline>
</glyph>
<glyph name="uni04B6" format="1">
  <advance width="639"/>
  <unicode hex="04B6"/>
  <outline>
    <contour>
      <point x="437" y="302" type="line"/>
      <point x="410" y="287"/>
      <point x="322" y="257"/>
      <point x="265" y="257" type="qcurve" smooth="yes"/>
      <point x="223" y="257"/>
      <point x="153" y="276"/>
      <point x="128.0" y="298.5" type="qcurve" smooth="yes" name="inserted"/>
      <point x="103" y="321"/>
      <point x="75" y="397"/>
      <point x="75" y="453" type="qcurve" smooth="yes"/>
      <point x="75" y="700" type="line"/>
      <point x="158" y="700" type="line"/>
      <point x="158" y="468" type="line" smooth="yes"/>
      <point x="158.0" y="399.5" name="inserted"/>
      <point x="220.0" y="331.0"/>
      <point x="282" y="331" type="qcurve" smooth="yes"/>
      <point x="329" y="331"/>
      <point x="411" y="356"/>
      <point x="437" y="377" type="qcurve"/>
      <point x="437" y="700" type="line"/>
      <point x="520" y="700" type="line"/>
      <point x="520" y="74" type="line"/>
      <point x="612" y="74" type="line"/>
      <point x="612" y="-129" type="line"/>
      <point x="554" y="-129" type="line"/>
      <point x="539" y="0" type="line"/>
      <point x="437" y="0" type="line"/>
    </contour>
  </outline>
</glyph>
<glyph name="uni04B8" format="1">
  <advance width="613"/>
  <unicode hex="04B8"/>
  <outline>
    <contour>
      <point x="271" y="257" type="line"/>
      <point x="226" y="257"/>
      <point x="153" y="276"/>
      <point x="127.5" y="298.5" type="qcurve" smooth="yes" name="inserted"/>
      <point x="102" y="321"/>
      <point x="75" y="397"/>
      <point x="75" y="453" type="qcurve" smooth="yes"/>
      <point x="75" y="700" type="line"/>
      <point x="158" y="700" type="line"/>
      <point x="158" y="468" type="line" smooth="yes"/>
      <point x="158.0" y="402.5" name="inserted"/>
      <point x="214.5" y="334.0"/>
      <point x="271" y="331" type="qcurve"/>
      <point x="271" y="455" type="line"/>
      <point x="337" y="455" type="line"/>
      <point x="337" y="335" type="line"/>
      <point x="369" y="340"/>
      <point x="425" y="362"/>
      <point x="445" y="377" type="qcurve"/>
      <point x="445" y="700" type="line"/>
      <point x="528" y="700" type="line"/>
      <point x="528" y="0" type="line"/>
      <point x="445" y="0" type="line"/>
      <point x="445" y="302" type="line"/>
      <point x="426" y="291"/>
      <point x="371" y="271"/>
      <point x="337" y="264" type="qcurve"/>
      <point x="337" y="145" type="line"/>
      <point x="271" y="145" type="line"/>
    </contour>
  </outline>
</glyph>
<glyph name="uni04B9" format="1">
  <advance width="497"/>
  <unicode hex="04B9"/>
  <outline>
    <contour>
      <point x="205" y="176" type="line"/>
      <point x="166" y="176"/>
      <point x="107" y="192"/>
      <point x="87.5" y="212.0" type="qcurve" smooth="yes" name="inserted"/>
      <point x="68" y="232"/>
      <point x="49" y="298"/>
      <point x="49" y="348" type="qcurve" smooth="yes"/>
      <point x="49" y="500" type="line"/>
      <point x="129" y="500" type="line"/>
      <point x="129" y="364" type="line" smooth="yes"/>
      <point x="129" y="339"/>
      <point x="134" y="297"/>
      <point x="142.0" y="281.5" type="qcurve" smooth="yes" name="inserted"/>
      <point x="150" y="266"/>
      <point x="180" y="248"/>
      <point x="205" y="246" type="qcurve"/>
      <point x="205" y="373" type="line"/>
      <point x="268" y="373" type="line"/>
      <point x="268" y="250" type="line"/>
      <point x="294" y="255"/>
      <point x="330" y="270"/>
      <point x="340" y="278" type="qcurve"/>
      <point x="340" y="500" type="line"/>
      <point x="420" y="500" type="line"/>
      <point x="420" y="0" type="line"/>
      <point x="340" y="0" type="line"/>
      <point x="340" y="210" type="line"/>
      <point x="330" y="203"/>
      <point x="294" y="187"/>
      <point x="268" y="182" type="qcurve"/>
      <point x="268" y="68" type="line"/>
      <point x="205" y="68" type="line"/>
    </contour>
  </outline>
</glyph>
<glyph name="uni04BA" format="1">
  <advance width="605"/>
  <unicode hex="04BA"/>
  <outline>
    <contour>
      <point x="448" y="0" type="line"/>
      <point x="448" y="232" type="line" smooth="yes"/>
      <point x="448.0" y="300.5" name="inserted"/>
      <point x="386.0" y="369.0"/>
      <point x="324" y="369" type="qcurve" smooth="yes"/>
      <point x="276" y="369"/>
      <point x="194" y="344"/>
      <point x="168" y="323" type="qcurve"/>
      <point x="168" y="0" type="line"/>
      <point x="85" y="0" type="line"/>
      <point x="85" y="700" type="line"/>
      <point x="168" y="700" type="line"/>
      <point x="168" y="398" type="line"/>
      <point x="195" y="413"/>
      <point x="284" y="443"/>
      <point x="340" y="443" type="qcurve" smooth="yes"/>
      <point x="382" y="443"/>
      <point x="453" y="424"/>
      <point x="478.0" y="401.5" type="qcurve" smooth="yes" name="inserted"/>
      <point x="503" y="379"/>
      <point x="531" y="303"/>
      <point x="531" y="247" type="qcurve" smooth="yes"/>
      <point x="531" y="0" type="line"/>
    </contour>
  </outline>
</glyph>
<glyph name="uni04BC" format="1">
  <advance width="774"/>
  <unicode hex="04BC"/>
  <outline>
    <contour>
      <point x="274" y="318" type="line"/>
      <point x="282" y="187"/>
      <point x="396" y="62"/>
      <point x="505" y="62" type="qcurve" smooth="yes"/>
      <point x="550" y="62"/>
      <point x="627" y="89"/>
      <point x="652" y="104" type="qcurve"/>
      <point x="674" y="37" type="line"/>
      <point x="642" y="17"/>
      <point x="551" y="-12"/>
      <point x="489" y="-12" type="qcurve" smooth="yes"/>
      <point x="423" y="-12"/>
      <point x="316" y="26"/>
      <point x="277.0" y="66.5" type="qcurve" smooth="yes" name="inserted"/>
      <point x="238" y="107"/>
      <point x="193" y="231"/>
      <point x="190" y="318" type="qcurve"/>
      <point x="153" y="318" type="line" smooth="yes"/>
      <point x="69" y="318"/>
      <point x="1" y="387"/>
      <point x="1" y="441" type="qcurve" smooth="yes"/>
      <point x="1" y="470"/>
      <point x="16" y="505"/>
      <point x="29" y="518" type="qcurve"/>
      <point x="107" y="518" type="line"/>
      <point x="91" y="505"/>
      <point x="79" y="465"/>
      <point x="79" y="450" type="qcurve" smooth="yes"/>
      <point x="79" y="438"/>
      <point x="85" y="415"/>
      <point x="94.0" y="406.0" type="qcurve" smooth="yes" name="inserted"/>
      <point x="103" y="397"/>
      <point x="137" y="386"/>
      <point x="165" y="386" type="qcurve" smooth="yes"/>
      <point x="171" y="386"/>
      <point x="183" y="386"/>
      <point x="190" y="387" type="qcurve"/>
      <point x="197" y="543"/>
      <point x="337" y="712"/>
      <point x="465" y="712" type="qcurve" smooth="yes"/>
      <point x="590" y="712"/>
      <point x="718" y="562"/>
      <point x="718" y="425" type="qcurve" smooth="yes"/>
      <point x="718.0" y="400.0" name="inserted"/>
      <point x="713.5" y="346.5"/>
      <point x="709" y="318" type="qcurve"/>
    </contour>
    <contour>
      <point x="631" y="388" type="line"/>
      <point x="633" y="402"/>
      <point x="635" y="428"/>
      <point x="635" y="441" type="qcurve" smooth="yes"/>
      <point x="635" y="481"/>
      <point x="615" y="553"/>
      <point x="594.5" y="581.0" type="qcurve" smooth="yes" name="inserted"/>
      <point x="574" y="609"/>
      <point x="510" y="642"/>
      <point x="466" y="642" type="qcurve" smooth="yes"/>
      <point x="373" y="642"/>
      <point x="278" y="508"/>
      <point x="273" y="388" type="qcurve"/>
    </contour>
  </outline>
</glyph>
<glyph name="uni04C4" format="1">
  <advance width="481"/>
  <unicode hex="04C4"/>
  <outline>
    <contour>
      <point x="361" y="16" type="qcurve" smooth="yes"/>
      <point x="361" y="121"/>
      <point x="277" y="216"/>
      <point x="203" y="216" type="qcurve" smooth="yes"/>
      <point x="157" y="216" type="line"/>
      <point x="157" y="0" type="line"/>
      <point x="77" y="0" type="line"/>
      <point x="77" y="500" type="line"/>
      <point x="157" y="500" type="line"/>
      <point x="157" y="265" type="line"/>
      <point x="200" y="279" type="line"/>
      <point x="360" y="500" type="line"/>
      <point x="447" y="500" type="line"/>
      <point x="291" y="290" type="line"/>
      <point x="255" y="264" type="line"/>
      <point x="299" y="258" type="line"/>
      <point x="344" y="248"/>
      <point x="399" y="200"/>
      <point x="414.5" y="167.5" type="qcurve" smooth="yes" name="inserted"/>
      <point x="430" y="135"/>
      <point x="441" y="56"/>
      <point x="441" y="16" type="qcurve" smooth="yes"/>
      <point x="441" y="-45"/>
      <point x="414" y="-132"/>
      <point x="390.5" y="-160.0" type="qcurve" smooth="yes" name="inserted"/>
      <point x="367" y="-188"/>
      <point x="302" y="-214"/>
      <point x="264" y="-214" type="qcurve" smooth="yes"/>
      <point x="256" y="-214"/>
      <point x="239" y="-214"/>
      <point x="230" y="-212" type="qcurve"/>
      <point x="230" y="-143" type="line"/>
      <point x="235" y="-144"/>
      <point x="243" y="-144"/>
      <point x="248" y="-144" type="qcurve" smooth="yes"/>
      <point x="302" y="-144"/>
      <point x="361" y="-62"/>
    </contour>
  </outline>
</glyph>
<glyph name="uni04C7" format="1">
  <advance width="672"/>
  <unicode hex="04C7"/>
  <outline>
    <contour>
      <point x="587" y="-27" type="line" smooth="yes"/>
      <point x="587" y="-120"/>
      <point x="524" y="-212"/>
      <point x="454" y="-212" type="qcurve" smooth="yes"/>
      <point x="446" y="-212"/>
      <point x="431" y="-212"/>
      <point x="423" y="-210" type="qcurve"/>
      <point x="423" y="-140" type="line"/>
      <point x="451" y="-140"/>
      <point x="484" y="-123"/>
      <point x="492.0" y="-106.5" type="qcurve" smooth="yes" name="inserted"/>
      <point x="500" y="-90"/>
      <point x="504" y="-36"/>
      <point x="504" y="0" type="qcurve" smooth="yes"/>
      <point x="504" y="321" type="line"/>
      <point x="168" y="321" type="line"/>
      <point x="168" y="0" type="line"/>
      <point x="85" y="0" type="line"/>
      <point x="85" y="700" type="line"/>
      <point x="168" y="700" type="line"/>
      <point x="168" y="395" type="line"/>
      <point x="504" y="395" type="line"/>
      <point x="504" y="700" type="line"/>
      <point x="587" y="700" type="line"/>
    </contour>
  </outline>
</glyph>
<glyph name="uni04C8" format="1">
  <advance width="540"/>
  <unicode hex="04C8"/>
  <outline>
    <contour>
      <point x="383" y="221" type="line"/>
      <point x="157" y="221" type="line"/>
      <point x="157" y="0" type="line"/>
      <point x="77" y="0" type="line"/>
      <point x="77" y="500" type="line"/>
      <point x="157" y="500" type="line"/>
      <point x="157" y="291" type="line"/>
      <point x="383" y="291" type="line"/>
      <point x="383" y="500" type="line"/>
      <point x="463" y="500" type="line"/>
      <point x="463" y="-27" type="line" smooth="yes"/>
      <point x="463" y="-120"/>
      <point x="399" y="-212"/>
      <point x="329" y="-212" type="qcurve" smooth="yes"/>
      <point x="321" y="-212"/>
      <point x="307" y="-211"/>
      <point x="299" y="-210" type="qcurve"/>
      <point x="299" y="-142" type="line"/>
      <point x="327" y="-142"/>
      <point x="360" y="-125"/>
      <point x="369.0" y="-107.5" type="qcurve" smooth="yes" name="inserted"/>
      <point x="378" y="-90"/>
      <point x="383" y="-36"/>
      <point x="383" y="0" type="qcurve" smooth="yes"/>
    </contour>
  </outline>
</glyph>
<glyph name="uni04C9" format="1">
  <advance width="681"/>
  <unicode hex="04C9"/>
  <outline>
    <contour>
      <point x="504" y="321" type="line"/>
      <point x="168" y="321" type="line"/>
      <point x="168" y="0" type="line"/>
      <point x="85" y="0" type="line"/>
      <point x="85" y="700" type="line"/>
      <point x="168" y="700" type="line"/>
      <point x="168" y="395" type="line"/>
      <point x="504" y="395" type="line"/>
      <point x="504" y="700" type="line"/>
      <point x="587" y="700" type="line"/>
      <point x="587" y="70" type="line"/>
      <point x="691" y="70" type="line"/>
      <point x="691" y="48" type="line"/>
      <point x="600" y="-130" type="line"/>
      <point x="546" y="-130" type="line"/>
      <point x="591" y="0" type="line"/>
      <point x="504" y="0" type="line"/>
    </contour>
  </outline>
</glyph>
<glyph name="uni04CC" format="1">
  <advance width="490"/>
  <unicode hex="04CC"/>
  <outline>
    <contour>
      <point x="333" y="212" type="line"/>
      <point x="317" y="202"/>
      <point x="254" y="179"/>
      <point x="199" y="179" type="qcurve" smooth="yes"/>
      <point x="162" y="179"/>
      <point x="106" y="196"/>
      <point x="87.0" y="215.5" type="qcurve" smooth="yes" name="inserted"/>
      <point x="68" y="235"/>
      <point x="49" y="301"/>
      <point x="49" y="350" type="qcurve" smooth="yes"/>
      <point x="49" y="500" type="line"/>
      <point x="129" y="500" type="line"/>
      <point x="129" y="366" type="line" smooth="yes"/>
      <point x="129" y="340"/>
      <point x="135" y="297"/>
      <point x="144.0" y="281.0" type="qcurve" smooth="yes" name="inserted"/>
      <point x="153" y="265"/>
      <point x="187" y="249"/>
      <point x="215" y="249" type="qcurve" smooth="yes"/>
      <point x="260" y="249"/>
      <point x="318" y="269"/>
      <point x="333" y="281" type="qcurve"/>
      <point x="333" y="500" type="line"/>
      <point x="413" y="500" type="line"/>
      <point x="413" y="0" type="line"/>
      <point x="325" y="0" type="line"/>
      <point x="310" y="-127" type="line"/>
      <point x="256" y="-127" type="line"/>
      <point x="256" y="67" type="line"/>
      <point x="333" y="67" type="line"/>
    </contour>
  </outline>
</glyph>
<glyph name="uni04CD" format="1">
  <advance width="801"/>
  <unicode hex="04CD"/>
  <outline>
    <contour>
      <point x="623" y="470" type="line"/>
      <point x="633" y="575" type="line"/>
      <point x="628" y="575" type="line"/>
      <point x="590" y="479" type="line"/>
      <point x="408" y="163" type="line"/>
      <point x="383" y="163" type="line"/>
      <point x="190" y="480" type="line"/>
      <point x="154" y="575" type="line"/>
      <point x="149" y="575" type="line"/>
      <point x="163" y="471" type="line"/>
      <point x="163" y="0" type="line"/>
      <point x="85" y="0" type="line"/>
      <point x="85" y="700" type="line"/>
      <point x="147" y="700" type="line"/>
      <point x="366" y="342" type="line"/>
      <point x="399" y="264" type="line"/>
      <point x="401" y="264" type="line"/>
      <point x="432" y="344" type="line"/>
      <point x="641" y="700" type="line"/>
      <point x="706" y="700" type="line"/>
      <point x="706" y="70" type="line"/>
      <point x="810" y="70" type="line"/>
      <point x="810" y="48" type="line"/>
      <point x="719" y="-130" type="line"/>
      <point x="665" y="-130" type="line"/>
      <point x="710" y="0" type="line"/>
      <point x="623" y="0" type="line"/>
    </contour>
  </outline>
</glyph>
<glyph name="uni04F6" format="1">
  <advance width="442"/>
  <unicode hex="04F6"/>
  <outline>
    <contour>
      <point x="460" y="626" type="line"/>
      <point x="168" y="626" type="line"/>
      <point x="168" y="74" type="line"/>
      <point x="260" y="74" type="line"/>
      <point x="260" y="-129" type="line"/>
      <point x="202" y="-129" type="line"/>
      <point x="187" y="0" type="line"/>
      <point x="85" y="0" type="line"/>
      <point x="85" y="700" type="line"/>
      <point x="460" y="700" type="line"/>
    </contour>
  </outline>
</glyph>
<glyph name="uni04FC" format="1">
  <advance width="618"/>
  <unicode hex="04FC"/>
  <outline>
    <contour>
      <point x="479" y="-42" type="qcurve" smooth="yes"/>
      <point x="479" y="7"/>
      <point x="447" y="81"/>
      <point x="427" y="112" type="qcurve" smooth="yes"/>
      <point x="336" y="251" type="line"/>
      <point x="307" y="311" type="line"/>
      <point x="281" y="251" type="line"/>
      <point x="119" y="0" type="line"/>
      <point x="26" y="0" type="line"/>
      <point x="259" y="356" type="line"/>
      <point x="46" y="700" type="line"/>
      <point x="146" y="700" type="line"/>
      <point x="288" y="463" type="line"/>
      <point x="313" y="406" type="line"/>
      <point x="337" y="463" type="line"/>
      <point x="487" y="700" type="line"/>
      <point x="579" y="700" type="line"/>
      <point x="359" y="363" type="line"/>
      <point x="498" y="148" type="line" smooth="yes"/>
      <point x="530" y="99"/>
      <point x="559" y="17"/>
      <point x="559" y="-25" type="qcurve" smooth="yes"/>
      <point x="559" y="-118"/>
      <point x="493" y="-210"/>
      <point x="422" y="-210" type="qcurve" smooth="yes"/>
      <point x="414" y="-210"/>
      <point x="399" y="-210"/>
      <point x="391" y="-208" type="qcurve"/>
      <point x="391" y="-140" type="line"/>
      <point x="419" y="-140"/>
      <point x="454" y="-124"/>
      <point x="463.5" y="-110.5" type="qcurve" smooth="yes" name="inserted"/>
      <point x="473" y="-97"/>
      <point x="479" y="-61"/>
    </contour>
  </outline>
</glyph>
